<svg preserveAspectRatio="none" width="100%" height="100%" overflow="visible" style="display: block;" viewBox="0 0 172 96" fill="none" xmlns="http://www.w3.org/2000/svg">
<g id="Frame 1321317615">
<g id="Vector">
<path d="M82.1783 41.4411C81.9976 41.4122 81.7441 41.3864 81.4991 41.3278C81.2042 41.2578 81.0181 41.0806 81.0916 40.7519C81.2594 40.0019 81.3995 39.2427 81.6231 38.5086C81.8552 37.7479 82.1684 37.0115 82.4571 36.2683C82.6677 35.7251 82.6838 35.1797 82.4946 34.6343C82.2978 34.0668 82.0811 33.5054 81.8682 32.9287C81.7204 33.0657 81.558 33.2163 81.3918 33.3699C81.0985 32.9523 81.2218 32.6153 81.8391 32.0166C81.7701 31.9908 81.6828 31.9786 81.6223 31.9322C81.1207 31.5488 80.6276 31.1547 80.1244 30.7736C79.8419 30.5591 79.5394 30.3712 79.256 30.1574C79.0301 29.9863 78.9887 29.755 79.1419 29.5184C79.8265 28.4641 80.7179 27.6296 81.8712 27.1039C82.3238 26.8978 82.5091 26.9929 82.7259 27.4379C82.9908 27.9841 83.2106 28.5546 83.5085 29.0818C83.9205 29.8106 84.7445 30.0677 85.567 30.0403C86.4898 30.0091 87.4539 30.0342 88.2098 30.731C88.595 31.0863 88.775 31.5488 88.8194 32.0463C88.8929 32.8648 88.909 33.6879 88.9748 34.5072C88.9886 34.6776 89.0874 34.8617 89.1984 34.9994C89.4366 35.2953 89.697 35.576 89.9688 35.8423C90.4145 36.2797 90.9338 36.441 91.5403 36.1907C91.5939 36.1686 91.6551 36.1656 91.8305 36.1298C91.6337 36.3352 91.5364 36.5011 91.3909 36.5764C90.9292 36.8175 90.8955 37.1796 91.0019 37.6254C91.129 38.1587 91.018 38.6584 90.6864 39.0981C90.4819 39.3697 90.2147 39.55 89.8203 39.5584C89.6909 38.8844 89.4611 38.2941 88.6654 38.3131C88.4066 39.194 88.1256 40.0734 87.8912 40.9642C87.5612 42.2178 87.7963 43.4479 88.0942 44.6757C88.5077 46.3827 88.9005 48.0959 89.2919 49.8082C89.5078 50.7523 89.8119 51.6492 90.3686 52.4639C91.3909 53.9602 91.8152 55.6391 91.9079 57.4382C91.9507 58.2613 92.2142 59.073 92.375 59.8908C92.4945 60.4978 92.6216 61.1041 92.7227 61.7142C92.7786 62.0482 92.6492 62.3251 92.3061 62.4323C91.8719 62.5685 91.5855 62.4437 91.4177 62.02C91.3128 61.7545 91.2454 61.4586 91.2378 61.1741C91.1941 59.5256 90.6205 58.0065 90.1258 56.4637C89.7138 55.1789 89.0874 53.999 88.4686 52.8062C87.5007 50.9425 86.6154 49.0369 85.6934 47.1495C85.4154 46.5813 85.1336 46.0146 84.8487 45.4501C84.8127 45.3794 84.7445 45.3246 84.622 45.1831C84.4956 45.8381 84.3524 46.4002 84.2827 46.97C84.0231 49.0795 83.7229 51.1874 83.5644 53.3053C83.4373 55.0047 83.4557 56.7178 83.4848 58.4241C83.4978 59.1894 83.7099 59.9493 83.8041 60.7146C83.8516 61.1018 83.8623 61.4982 83.8478 61.8884C83.8271 62.4354 83.6533 62.5601 83.0146 62.5556C82.5735 62.5525 82.395 62.3753 82.369 61.8922C82.3345 61.2601 82.3476 60.6233 82.2717 59.9965C82.0925 58.5154 81.8674 57.0404 81.6721 55.5608C81.4753 54.0743 81.3643 52.5917 81.7855 51.1167C82.0703 50.1209 81.8238 49.1305 81.676 48.1438C81.4585 46.6886 81.231 45.2265 81.4922 43.7628C81.6331 42.9808 81.9409 42.2262 82.1783 41.4411ZM86.0579 31.5092C86.3091 31.8303 86.6039 32.1117 86.7754 32.4533C86.9439 32.788 86.9324 33.2079 87.2502 33.6027C87.4294 32.9576 87.4218 32.4259 87.2671 31.8995C87.2403 31.8074 87.0971 31.7131 86.9906 31.6865C86.6866 31.6104 86.3734 31.5671 86.0579 31.5092ZM83.6839 39.849C83.7092 39.3324 83.7406 38.8441 83.3462 38.3701C83.206 38.6303 83.0858 38.8205 82.997 39.0243C82.6631 39.795 82.7795 39.9425 83.6839 39.849Z" fill="#FFF5E5" style="fill:#FFF5E5;fill:color(display-p3 1.0000 0.9591 0.8978);fill-opacity:1;"/>
<path d="M72.5093 48.6109C72.4396 49.1594 72.3676 49.7078 72.3017 50.2563C71.9541 53.1341 71.6087 56.0119 71.2618 58.8897C71.1752 59.6063 71.078 60.3213 71.0075 61.0395C70.9861 61.2616 70.9179 61.3407 70.6882 61.3475C69.7922 61.3765 69.7731 61.3863 69.662 60.4993C69.3588 58.0879 69.0746 55.6741 68.7813 53.2619C68.4873 50.8367 68.1917 48.4116 67.8961 45.9872C67.6832 44.2406 67.4688 42.4947 67.252 40.7489C67.2291 40.561 67.1969 40.3723 67.1517 40.189C67.043 39.7501 66.9243 39.3127 66.4916 39.0175C67.7062 39.0175 68.92 39.0175 70.1475 39.0175C70.1368 39.0677 70.1376 39.1278 70.1207 39.1331C69.685 39.2784 69.5954 39.6382 69.6276 40.0148C69.7187 41.0737 69.8305 42.1311 69.9561 43.1862C70.2739 45.8502 70.6032 48.5135 70.9287 51.1768C70.9578 51.4149 70.9915 51.653 71.0834 51.9002C71.1576 51.3274 71.235 50.7546 71.3054 50.1802C71.7067 46.8886 72.1072 43.5962 72.507 40.3046C72.5483 39.9654 72.5912 39.6261 72.6188 39.2853C72.6372 39.0517 72.7314 38.9498 72.9795 38.9719C73.2184 38.9932 73.4604 38.9764 73.7407 38.9764C74.2653 43.2912 74.7875 47.5839 75.3098 51.8759C75.3297 51.8789 75.3496 51.8827 75.3696 51.8858C75.417 51.5503 75.4699 51.2156 75.5105 50.8793C75.8888 47.7634 76.2709 44.6476 76.6347 41.5294C76.6898 41.0547 76.6783 40.5694 76.6584 40.0909C76.6408 39.655 76.4869 39.2678 75.9899 39.0829C76.0167 39.0578 76.0435 39.0327 76.0703 39.0069C76.9226 39.0069 77.7749 39.0069 78.6265 39.0069C78.6334 39.0411 78.6503 39.0806 78.6418 39.0867C77.9863 39.566 77.9113 40.3031 77.824 41.0075C77.2006 46.0321 76.5964 51.0589 75.9876 56.0849C75.7777 57.8178 75.5717 59.5515 75.3604 61.3126C74.9553 61.3126 74.5685 61.3126 74.1435 61.3126C73.6228 57.0792 73.102 52.8496 72.582 48.6193C72.5568 48.6162 72.533 48.6132 72.5093 48.6109Z" fill="#FFF5E5" style="fill:#FFF5E5;fill:color(display-p3 1.0000 0.9591 0.8978);fill-opacity:1;"/>
<path d="M52.1994 39.0236C51.3501 39.5112 51.432 40.2704 51.4259 40.971C51.406 43.1497 51.419 45.3284 51.419 47.5071C51.419 47.6554 51.419 47.803 51.419 47.9734C52.2231 47.9734 52.982 47.9734 53.757 47.9734C53.77 47.9202 53.7915 47.8737 53.7915 47.8273C53.79 45.3573 53.7953 42.8873 53.7754 40.418C53.7708 39.8893 53.6996 39.3492 53.1252 39.0251C54.3528 39.0251 55.5804 39.0251 56.808 39.0251C56.249 39.3431 56.2068 39.8695 56.154 40.3853C56.1333 40.5861 56.1379 40.79 56.1379 40.9923C56.1371 47.1108 56.1364 53.2284 56.141 59.3469C56.141 59.6869 56.1724 60.0292 56.2191 60.3662C56.2712 60.7405 56.4128 61.0729 56.8179 61.2753C55.5804 61.346 54.3544 61.3437 53.1099 61.2867C53.6919 60.9702 53.7716 60.437 53.7762 59.9075C53.7961 57.4884 53.7923 55.0694 53.7961 52.6495C53.7976 51.4468 53.7961 50.2449 53.7961 49.011C53.0073 49.011 52.2392 49.011 51.4183 49.011C51.4183 49.1487 51.4183 49.2834 51.4183 49.418C51.4183 52.7621 51.4167 56.1062 51.4213 59.4503C51.4221 59.7402 51.4412 60.0345 51.4956 60.3191C51.5668 60.6918 51.661 61.0699 52.1182 61.2C51.8923 61.3696 48.888 61.4114 48.391 61.2601C49.1316 60.8424 49.0933 60.1281 49.0948 59.4663C49.1078 53.2596 49.1032 47.0529 49.0994 40.8463C49.0994 40.5564 49.0642 40.2651 49.0213 39.9775C48.9639 39.5926 48.8023 39.2632 48.4316 39.0251C49.6508 39.0236 50.8692 39.0236 52.1994 39.0236Z" fill="#FFF5E5" style="fill:#FFF5E5;fill:color(display-p3 1.0000 0.9591 0.8978);fill-opacity:1;"/>
<path d="M65.1675 50.1939C65.1675 52.9044 65.1675 55.614 65.1675 58.3245C65.1675 60.0703 64.2876 61.1848 62.5592 61.556C61.193 61.8496 59.947 61.5818 58.9185 60.596C58.3917 60.0908 58.1313 59.4579 58.1321 58.7216C58.1336 53.023 58.1328 47.3238 58.1336 41.6252C58.1336 40.564 58.6551 39.798 59.5297 39.2472C60.8377 38.4226 62.6756 38.4744 63.9369 39.3629C64.7532 39.9387 65.1667 40.7268 65.1675 41.7218C65.169 44.5456 65.1675 47.3694 65.1675 50.1939ZM62.8257 50.1688C62.8257 47.1686 62.8349 44.1683 62.8134 41.168C62.8111 40.7923 62.7246 40.3739 62.5408 40.0513C62.1211 39.3142 61.1662 39.3248 60.7381 40.0582C60.5735 40.3404 60.4609 40.6994 60.4601 41.0235C60.444 47.1123 60.4417 53.2018 60.4647 59.2906C60.4662 59.6671 60.6294 60.0931 60.8476 60.4065C61.2359 60.9649 61.971 60.9482 62.4298 60.44C62.746 60.0893 62.828 59.6641 62.8272 59.2069C62.8242 56.1952 62.8257 53.182 62.8257 50.1688Z" fill="#FFF5E5" style="fill:#FFF5E5;fill:color(display-p3 1.0000 0.9591 0.8978);fill-opacity:1;"/>
<path d="M106.958 38.8859C107.075 38.8859 107.193 38.8859 107.31 38.8859C108.687 38.8859 110.064 38.8829 111.441 38.8867C113.181 38.892 114.292 39.9927 114.295 41.7127C114.298 43.2707 114.302 44.8286 114.294 46.3866C114.289 47.3527 113.968 48.1681 113.127 48.7334C113.042 48.7904 112.972 48.9608 112.989 49.065C113.555 52.6777 114.127 56.2888 114.714 59.8984C114.792 60.3769 114.864 60.8888 115.387 61.1878C114.226 61.1878 113.065 61.1878 111.83 61.1878C112.439 60.7549 112.37 60.1913 112.277 59.623C111.73 56.2637 111.179 52.9051 110.639 49.545C110.595 49.2681 110.499 49.1373 110.204 49.1776C110.055 49.1982 109.9 49.1814 109.701 49.1814C109.692 49.3351 109.678 49.4682 109.678 49.6006C109.677 52.8306 109.677 56.0606 109.679 59.2906C109.679 59.5431 109.693 59.7972 109.723 60.0482C109.776 60.4971 109.893 60.9185 110.338 61.1931C109.214 61.1931 108.088 61.1931 106.859 61.1931C107.546 60.7915 107.589 60.1958 107.589 59.5979C107.594 53.2391 107.593 46.8803 107.589 40.5222C107.59 39.9235 107.547 39.3279 106.958 38.8859ZM109.692 48.2762C110.085 48.2762 110.439 48.2762 110.793 48.2762C111.688 48.2754 112.088 47.8791 112.093 46.9791C112.098 46.1812 112.094 45.3832 112.094 44.5852C112.094 43.4076 112.098 42.2292 112.091 41.0517C112.088 40.4659 111.795 39.9342 111.363 39.8855C110.817 39.8239 110.258 39.8703 109.691 39.8703C109.692 42.6667 109.692 45.4372 109.692 48.2762Z" fill="#FFF5E5" style="fill:#FFF5E5;fill:color(display-p3 1.0000 0.9591 0.8978);fill-opacity:1;"/>
<path d="M101.119 42.3745C100.833 42.4841 100.682 42.3844 100.568 42.106C100.284 41.4198 99.8944 40.7915 99.3063 40.3229C99.0337 40.1053 98.7159 39.9136 98.3866 39.801C97.4515 39.4823 96.6957 40.0171 96.6344 41.0014C96.629 41.0897 96.6329 41.1787 96.6329 41.2677C96.6329 47.1313 96.629 52.9949 96.6428 58.8585C96.6436 59.1863 96.7408 59.5348 96.8779 59.8352C97.051 60.2141 97.388 60.4202 97.8321 60.4119C98.212 60.405 98.5918 60.4103 99.0222 60.4103C99.0222 60.2437 99.0222 60.1091 99.0222 59.9744C99.0222 56.2386 99.0222 52.5027 99.0222 48.7668C99.0222 48.6778 99.0245 48.5896 99.0191 48.5013C98.9831 47.9316 98.9594 47.3565 98.3904 46.9693C99.5789 46.9693 100.767 46.9693 101.956 46.9693C101.352 47.3451 101.311 47.9453 101.31 48.5196C101.295 52.2304 101.296 55.9411 101.309 59.6511C101.311 60.227 101.368 60.8188 102.062 61.1886C101.876 61.2099 101.794 61.2281 101.712 61.2281C100.284 61.2296 98.8568 61.238 97.4285 61.2251C96.7937 61.219 96.1948 61.0425 95.6519 60.7123C94.7099 60.1388 94.2811 59.2761 94.2796 58.1982C94.2757 52.7781 94.2734 47.3572 94.2811 41.9371C94.2834 40.4606 95.403 39.2708 97.0464 38.9658C97.3198 38.9148 97.6024 38.8905 97.8811 38.8882C98.9265 38.8798 99.9718 38.8867 101.017 38.8882C101.042 38.8882 101.066 38.8973 101.119 38.908C101.119 40.0604 101.119 41.2175 101.119 42.3745Z" fill="#FFF5E5" style="fill:#FFF5E5;fill:color(display-p3 1.0000 0.9591 0.8978);fill-opacity:1;"/>
<path d="M125.118 54.4562C125.855 54.4562 126.575 54.4562 127.355 54.4562C127.355 54.619 127.355 54.7651 127.355 54.9119C127.355 56.3436 127.333 57.7752 127.369 59.2061C127.378 59.5789 127.491 59.9927 127.686 60.3084C128.05 60.8964 128.793 60.904 129.178 60.3297C129.372 60.0414 129.509 59.6557 129.514 59.3119C129.546 57.3363 129.566 55.3584 129.506 53.3844C129.489 52.8298 129.288 52.2228 128.997 51.7466C128.47 50.8854 127.8 50.1125 127.21 49.2887C126.569 48.3941 125.923 47.5002 125.334 46.5722C124.983 46.0199 124.88 45.3718 124.884 44.7122C124.892 43.6989 124.886 42.6857 124.886 41.6716C124.886 40.1563 125.65 39.1461 127.122 38.714C128.603 38.2788 130.242 38.8015 131.047 39.9669C131.32 40.3632 131.468 40.7961 131.465 41.2837C131.457 42.4711 131.462 43.6586 131.462 44.8674C130.743 44.8674 130.061 44.8674 129.325 44.8674C129.325 44.7274 129.325 44.5928 129.325 44.4581C129.325 43.2037 129.325 41.9501 129.325 40.6956C129.325 40.5945 129.328 40.4925 129.324 40.3914C129.3 39.8406 128.943 39.4237 128.466 39.388C127.998 39.353 127.517 39.7333 127.504 40.2765C127.472 41.5667 127.46 42.8614 127.525 44.1493C127.567 44.9686 128.055 45.6433 128.541 46.2831C129.292 47.2743 130.084 48.2351 130.816 49.2392C131.613 50.3324 132.035 51.5442 131.998 52.9279C131.949 54.7384 131.985 56.5505 131.985 58.3625C131.985 59.8718 131.238 60.8942 129.789 61.3673C128.245 61.8717 126.466 61.4023 125.621 60.1928C125.351 59.8056 125.138 59.2989 125.116 58.8364C125.05 57.4458 125.092 56.0507 125.092 54.657C125.093 54.597 125.108 54.5369 125.118 54.4562Z" fill="#FFF5E5" style="fill:#FFF5E5;fill:color(display-p3 1.0000 0.9591 0.8978);fill-opacity:1;"/>
<path d="M40.2023 54.5544C40.9834 54.5544 41.704 54.5544 42.466 54.5544C42.466 54.7103 42.466 54.8457 42.466 54.9819C42.466 56.4516 42.4652 57.9205 42.4668 59.3902C42.4675 59.8512 42.5947 60.2666 42.9439 60.5899C43.3222 60.939 43.8016 60.9322 44.1784 60.5777C44.5038 60.2711 44.6371 59.8794 44.6386 59.448C44.644 57.4466 44.6447 55.4451 44.6386 53.4437C44.6371 52.8306 44.4303 52.2623 44.0849 51.7717C43.4723 50.9022 42.7976 50.0753 42.1758 49.2111C41.5762 48.3781 40.9819 47.5398 40.442 46.6703C40.105 46.1271 39.9948 45.4965 40.004 44.8469C40.0193 43.7826 40.0338 42.7176 40.0017 41.6549C39.9641 40.4286 40.5661 39.6109 41.6007 39.0654C42.9301 38.364 44.6754 38.5907 45.7375 39.582C46.292 40.0992 46.5983 40.7268 46.5883 41.5005C46.5753 42.5267 46.5853 43.5529 46.5853 44.5791C46.5853 44.7031 46.5853 44.8271 46.5853 44.9754C45.867 44.9754 45.1839 44.9754 44.4464 44.9754C44.4464 44.84 44.4464 44.7054 44.4464 44.5715C44.4464 43.3049 44.4464 42.0375 44.4464 40.771C44.4464 40.6698 44.451 40.5678 44.4433 40.4667C44.402 39.925 44.0175 39.5051 43.5519 39.4914C43.0572 39.477 42.623 39.8733 42.6123 40.4438C42.5893 41.6975 42.5717 42.9527 42.6253 44.2041C42.6598 44.999 43.1101 45.6631 43.5795 46.2839C44.2756 47.2051 45.0146 48.0944 45.7061 49.0194C46.4038 49.9528 46.9575 50.96 47.0785 52.1474C47.0991 52.3483 47.106 52.5514 47.106 52.7537C47.1083 54.6289 47.1076 56.5033 47.1068 58.3785C47.1068 60.0977 46.2146 61.2258 44.5038 61.5651C43.0258 61.858 41.7025 61.5324 40.7368 60.3099C40.4818 59.9874 40.3792 59.5416 40.2314 59.143C40.1809 59.0068 40.2015 58.8425 40.2015 58.6911C40.2015 57.3218 40.2023 55.9556 40.2023 54.5544Z" fill="#FFF5E5" style="fill:#FFF5E5;fill:color(display-p3 1.0000 0.9591 0.8978);fill-opacity:1;"/>
<path d="M116.095 38.9133C117.305 38.9133 118.514 38.9133 119.831 38.9133C119.017 39.4024 119.07 40.1327 119.069 40.8288C119.064 47.1982 119.066 53.5669 119.066 59.9364C119.066 60.0977 119.066 60.2597 119.066 60.4157C120.83 60.6165 122.145 59.1727 122.5 56.6623C122.61 56.657 122.728 56.6516 122.87 56.6448C122.87 58.1784 122.87 59.6793 122.87 61.206C120.608 61.206 118.35 61.206 115.996 61.206C116.816 60.6743 116.721 59.8984 116.721 59.1719C116.729 53.0557 116.726 46.9396 116.725 40.8242C116.725 40.6721 116.733 40.5192 116.715 40.3685C116.654 39.8322 116.659 39.2632 116.022 38.984C116.046 38.9604 116.071 38.9369 116.095 38.9133Z" fill="#FFF5E5" style="fill:#FFF5E5;fill:color(display-p3 1.0000 0.9591 0.8978);fill-opacity:1;"/>
<path d="M102.684 38.9133C103.834 38.9133 105.043 38.9133 106.203 38.9133C106.042 39.2046 105.836 39.4907 105.722 39.8102C105.631 40.0642 105.626 40.3579 105.626 40.634C105.622 46.9145 105.622 53.1957 105.625 59.4762C105.625 59.6907 105.641 59.9067 105.671 60.1197C105.731 60.5419 105.859 60.9314 106.272 61.1924C105.057 61.1924 103.843 61.1924 102.543 61.1924C103.376 60.6857 103.284 59.9022 103.288 59.1772C103.305 56.4676 103.297 53.7579 103.295 51.0475C103.292 47.5398 103.288 44.0329 103.28 40.5252C103.279 40.2864 103.28 40.0277 103.193 39.8132C103.063 39.4968 102.857 39.2115 102.684 38.9133Z" fill="#FFF5E5" style="fill:#FFF5E5;fill:color(display-p3 1.0000 0.9591 0.8978);fill-opacity:1;"/>
<path d="M73.7016 66.2085C74.4077 66.5851 74.6642 67.0286 74.554 67.6463C74.4238 68.3743 74.0103 68.8193 73.2506 68.8611C72.2757 68.9144 71.2955 68.8741 70.2969 68.8741C70.2969 67.1997 70.2969 65.533 70.2969 63.8647C71.2733 63.8647 72.2382 63.8366 73.2008 63.8754C73.7461 63.8975 74.1282 64.2421 74.2706 64.767C74.4161 65.3033 74.2576 65.7673 73.7928 66.1066C73.7621 66.1286 73.7422 66.1621 73.7016 66.2085ZM71.3422 66.7212C71.3422 67.1632 71.3422 67.5824 71.3422 68.0137C71.8622 68.0137 72.3546 68.0319 72.8462 68.0084C73.2667 67.9878 73.4757 67.7672 73.4864 67.4066C73.4979 67.0293 73.2873 66.76 72.8677 66.7304C72.3668 66.6939 71.8606 66.7212 71.3422 66.7212ZM71.3299 64.7069C71.3299 65.0804 71.3299 65.4295 71.3299 65.7871C71.8583 65.7871 72.376 65.8198 72.8861 65.7741C73.1556 65.7498 73.308 65.5147 73.2958 65.2203C73.2835 64.9252 73.1219 64.7297 72.8347 64.7137C72.3462 64.6878 71.8553 64.7069 71.3299 64.7069Z" fill="#FFF5E5" style="fill:#FFF5E5;fill:color(display-p3 1.0000 0.9591 0.8978);fill-opacity:1;"/>
<path d="M102.316 66.6383C102.831 67.358 103.348 68.0822 103.936 68.9045C103.441 68.9045 103.068 68.9182 102.697 68.8938C102.615 68.8885 102.529 68.7577 102.467 68.6694C102.177 68.2533 101.883 67.8387 101.612 67.4097C101.319 66.9456 100.933 66.6992 100.326 66.8087C100.326 67.4789 100.326 68.1674 100.326 68.8817C99.9595 68.8817 99.6348 68.8817 99.2803 68.8817C99.2803 67.2127 99.2803 65.5368 99.2803 63.8876C100.319 63.8876 101.347 63.8488 102.371 63.902C102.971 63.9332 103.371 64.4254 103.441 65.0165C103.524 65.7239 103.243 66.2663 102.659 66.5143C102.523 66.5721 102.382 66.6147 102.316 66.6383ZM100.322 65.9347C100.845 65.9347 101.34 65.9567 101.832 65.927C102.187 65.9057 102.38 65.657 102.375 65.3124C102.37 64.9724 102.197 64.7411 101.856 64.7221C101.351 64.6947 100.844 64.7152 100.323 64.7152C100.322 65.1215 100.322 65.5102 100.322 65.9347Z" fill="#FFF5E5" style="fill:#FFF5E5;fill:color(display-p3 1.0000 0.9591 0.8978);fill-opacity:1;"/>
<path d="M117.356 65.7802C117.356 66.1028 117.356 66.353 117.356 66.6573C116.513 66.6573 115.681 66.6573 114.828 66.6573C114.828 67.1351 114.828 67.5588 114.828 68.0312C115.763 68.0312 116.688 68.0312 117.637 68.0312C117.637 68.3385 117.637 68.5972 117.637 68.8824C116.365 68.8824 115.097 68.8824 113.798 68.8824C113.798 67.2157 113.798 65.5414 113.798 63.8434C115.037 63.8434 116.278 63.8434 117.536 63.8434C117.536 64.1196 117.536 64.3782 117.536 64.6825C116.629 64.6825 115.744 64.6825 114.832 64.6825C114.832 65.0636 114.832 65.3984 114.832 65.7802C115.662 65.7802 116.494 65.7802 117.356 65.7802Z" fill="#FFF5E5" style="fill:#FFF5E5;fill:color(display-p3 1.0000 0.9591 0.8978);fill-opacity:1;"/>
<path d="M89.3723 68.8771C89.3087 68.8938 89.2965 68.8999 89.2842 68.9007C88.2802 68.9494 88.2734 68.9524 87.9188 68.035C87.8384 67.8258 87.7373 67.7414 87.5075 67.7497C87.0236 67.7665 86.5388 67.7665 86.0548 67.7497C85.8343 67.7421 85.7209 67.8189 85.6796 68.0251C85.675 68.0494 85.6612 68.0723 85.6528 68.0958C85.3151 68.9958 85.3151 68.9958 84.2559 68.8763C84.9184 67.1868 85.577 65.5071 86.2302 63.8396C87.3207 63.7613 87.3207 63.7613 87.7159 64.7419C88.2259 66.0092 88.7367 67.2766 89.2467 68.5439C89.288 68.6466 89.3248 68.7516 89.3723 68.8771ZM86.1169 66.8475C86.5947 66.8475 87.0067 66.8475 87.4555 66.8475C87.2334 66.2572 87.0251 65.7019 86.7777 65.0454C86.5373 65.7019 86.3351 66.2534 86.1169 66.8475Z" fill="#FFF5E5" style="fill:#FFF5E5;fill:color(display-p3 1.0000 0.9591 0.8978);fill-opacity:1;"/>
<path d="M57.2391 63.8511C57.2759 63.8389 57.2882 63.832 57.3004 63.8313C58.3304 63.7582 58.3319 63.7582 58.711 64.6954C59.2233 65.9613 59.7341 67.2279 60.2442 68.4945C60.2909 68.6093 60.3299 68.7272 60.3958 68.9068C60.032 68.9068 59.7081 68.9212 59.388 68.8961C59.3122 68.89 59.2241 68.7638 59.1812 68.674C59.0403 68.3804 58.9959 67.9528 58.7677 67.8121C58.5165 67.6569 58.103 67.7573 57.7599 67.7566C56.8065 67.7535 56.798 67.7528 56.4795 68.6276C56.4021 68.8398 56.3087 68.9326 56.0759 68.9136C55.8239 68.8923 55.5689 68.9091 55.2572 68.9091C55.9304 67.1906 56.5874 65.5132 57.2391 63.8511ZM57.7943 65.0401C57.557 65.6889 57.3479 66.2595 57.1319 66.8506C57.5998 66.8506 58.0126 66.8506 58.4683 66.8506C58.2454 66.2519 58.0348 65.6874 57.7943 65.0401Z" fill="#FFF5E5" style="fill:#FFF5E5;fill:color(display-p3 1.0000 0.9591 0.8978);fill-opacity:1;"/>
<path d="M45.6188 65.212C45.203 65.3109 44.886 65.3862 44.549 65.4668C44.3468 64.9145 43.9838 64.5897 43.3743 64.6285C42.8068 64.6643 42.3833 64.9731 42.2922 65.5733C42.2125 66.099 42.2225 66.6566 42.3029 67.1837C42.3887 67.7436 42.8267 68.0654 43.3321 68.089C43.9096 68.1164 44.2434 67.8821 44.4778 67.2857C44.5054 67.2165 44.5337 67.1472 44.5781 67.0385C44.9051 67.1381 45.2267 67.2362 45.5461 67.3336C45.3715 68.251 44.7397 68.849 43.8422 68.973C42.7861 69.1183 41.8067 68.6717 41.4084 67.7878C40.9696 66.8148 40.9673 65.8076 41.4689 64.8552C42.1375 63.5863 44.114 63.3132 45.082 64.344C45.2957 64.573 45.4205 64.8849 45.6188 65.212Z" fill="#FFF5E5" style="fill:#FFF5E5;fill:color(display-p3 1.0000 0.9591 0.8978);fill-opacity:1;"/>
<path d="M130.055 64.6795C130.055 66.1187 130.055 67.4934 130.055 68.8878C129.696 68.8878 129.371 68.8878 129.016 68.8878C129.016 67.4994 129.016 66.1248 129.016 64.6909C128.501 64.6909 128.016 64.6909 127.51 64.6909C127.51 64.3828 127.51 64.134 127.51 63.8518C128.847 63.8518 130.187 63.8518 131.539 63.8518C131.539 64.1219 131.539 64.3805 131.539 64.6795C131.049 64.6795 130.583 64.6795 130.055 64.6795Z" fill="#FFF5E5" style="fill:#FFF5E5;fill:color(display-p3 1.0000 0.9591 0.8978);fill-opacity:1;"/>
</g>
</g>
</svg>
