<svg width="36" height="42" viewBox="0 0 36 42" fill="none" xmlns="http://www.w3.org/2000/svg">
<circle cx="18" cy="18" r="18" fill="#232323"/>
<path d="M23 12C22.9558 12.5202 22.9251 13.0248 22.9079 13.5137C22.8906 14.0027 22.8823 14.3785 22.8828 14.6411C22.8828 14.9014 22.8885 15.1443 22.8998 15.3696C22.9111 15.595 22.9221 15.7927 22.9329 15.9628H22.5491C22.3934 15.0598 22.2048 14.3509 21.9834 13.8362C21.7619 13.3215 21.4691 12.9526 21.1049 12.7294C20.7434 12.5029 20.2677 12.39 19.6777 12.3905H19.1419V22.0506C19.1419 22.5144 19.1837 22.859 19.2672 23.0844C19.3087 23.1963 19.3769 23.296 19.4658 23.3745C19.5547 23.453 19.6614 23.5078 19.7763 23.534C20.0322 23.6078 20.405 23.6502 20.8948 23.6612V24C20.5613 23.9776 20.1273 23.9634 19.5929 23.9573C19.0584 23.9513 18.5129 23.9486 17.9564 23.9491C17.3777 23.9491 16.8352 23.9519 16.3288 23.9573C15.8223 23.9628 15.4131 23.977 15.1012 24V23.6612C15.472 23.6633 15.8418 23.6206 16.2027 23.534C16.3183 23.5069 16.4258 23.4519 16.516 23.3736C16.6061 23.2953 16.6764 23.1961 16.7207 23.0844C16.8096 22.859 16.854 22.5144 16.854 22.0506V12.3905H16.3053C15.7267 12.3905 15.2537 12.5035 14.8862 12.7294C14.5188 12.9553 14.2238 13.3261 14.0013 13.8419C13.7793 14.355 13.5959 15.063 13.4509 15.9661H13.0671C13.0909 15.7692 13.1046 15.5712 13.1083 15.3729C13.1137 15.1475 13.1166 14.9047 13.1172 14.6443C13.1177 14.384 13.1094 14.0071 13.0921 13.5137C13.0754 13.0248 13.0447 12.5202 13 12C13.4897 12.0115 14.0285 12.0238 14.6163 12.0369C15.2041 12.05 15.7938 12.0555 16.3853 12.0533H19.6106C20.2033 12.0533 20.7932 12.0479 21.3805 12.0369C21.9677 12.026 22.5076 12.0137 23 12Z" fill="#F9F7F1"/>
<path d="M14 34H22L18 42L14 34Z" fill="#232323"/>
</svg>
