<svg preserveAspectRatio="none" width="100%" height="100%" overflow="visible" style="display: block;" viewBox="0 0 172 96" fill="none" xmlns="http://www.w3.org/2000/svg">
<g id="Frame 1321317617">
<g id="Vector">
<path d="M93.8199 32.3778C93.7518 32.1579 93.7978 32.0727 94.0135 32.0709C95.7247 32.057 97.4358 32.0316 99.147 32.0238C99.2516 32.0232 99.4236 32.1223 99.4487 32.2099C99.5103 32.4219 99.2862 32.4225 99.1781 32.4225C98.7455 32.4231 98.3123 32.3905 97.8117 32.3669C97.8732 32.7155 97.9073 33.0284 97.9861 33.3298C98.4862 35.2364 99.0012 37.1392 99.5007 39.0458C100.029 41.0646 100.547 43.0865 101.068 45.1072C101.157 45.4503 101.23 45.7977 101.322 46.1402C101.349 46.2387 101.419 46.3245 101.461 46.4006C101.797 45.1417 102.131 43.8936 102.462 42.6443C102.858 41.1522 103.188 39.6378 103.669 38.1747C103.941 37.3483 103.675 36.6433 103.504 35.9069C103.253 34.8262 102.928 33.763 102.634 32.6919C102.608 32.5971 102.579 32.5034 102.559 32.4364C102.151 32.4364 101.755 32.4467 101.36 32.4285C101.274 32.4243 101.136 32.3283 101.122 32.2558C101.094 32.1029 101.174 32.0111 101.365 32.0123C103.116 32.0196 104.867 32.0196 106.618 32.0129C106.863 32.0123 106.91 32.1259 106.852 32.3977C106.317 32.3977 105.768 32.3977 105.166 32.3977C106.385 37.0843 107.585 41.6977 108.806 46.3921C108.944 45.8442 109.063 45.37 109.182 44.8958C109.334 44.2911 109.488 43.687 109.637 43.0811C110.21 40.7535 110.783 38.426 111.353 36.0978C111.544 35.3185 111.726 34.5368 111.912 33.7563C112.101 32.9644 111.736 32.4793 110.92 32.44C110.751 32.4322 110.581 32.4346 110.412 32.4394C110.248 32.4442 110.148 32.4038 110.154 32.2044C110.159 32.0268 110.219 31.9519 110.402 31.9531C111.476 31.9604 112.552 31.9604 113.627 31.9652C113.696 31.9658 113.77 31.9767 113.829 32.0069C113.896 32.0419 114.007 32.1168 114 32.1513C113.98 32.234 113.918 32.3391 113.846 32.3687C113.722 32.4201 113.577 32.4225 113.441 32.4424C113.039 32.5022 112.725 32.6992 112.585 33.0918C112.398 33.621 112.223 34.1568 112.079 34.6999C111.876 35.4677 111.707 36.2446 111.522 37.0172C111.187 38.4169 110.854 39.8166 110.513 41.2145C110.294 42.1109 110.056 43.0032 109.835 43.899C109.382 45.7373 108.934 47.578 108.482 49.4168C108.364 49.8983 108.235 50.3767 108.109 50.8564C108.062 51.0358 107.968 51.153 107.764 51.1681C107.553 51.1844 107.482 51.0551 107.439 50.8914C107.24 50.1441 107.046 49.3951 106.847 48.6478C106.4 46.9612 105.952 45.2746 105.504 43.5879C105.066 41.9418 104.628 40.2956 104.188 38.6501C104.145 38.4918 104.085 38.3384 104.004 38.0979C103.892 38.5232 103.799 38.873 103.709 39.2228C103.316 40.7402 102.924 42.2577 102.53 43.7752C102.046 45.6352 101.563 47.4958 101.073 49.354C100.936 49.8711 100.76 50.3779 100.628 50.8962C100.571 51.1204 100.423 51.1717 100.257 51.1397C100.165 51.1222 100.046 50.9959 100.021 50.8974C99.3496 48.3246 98.6965 45.7476 98.0256 43.1747C97.4544 40.9837 96.8629 38.7981 96.2845 36.6089C95.9452 35.3239 95.6064 34.039 95.2867 32.7487C95.218 32.472 95.1188 32.3446 94.8195 32.3711C94.4945 32.4001 94.1659 32.3778 93.8199 32.3778Z" fill="var(--fill-0, #FFF5E5)" style="fill:#FFF5E5;fill:color(display-p3 1.0000 0.9591 0.8978);fill-opacity:1;"/>
<path d="M81.1714 50.529C81.7802 50.529 82.3514 50.529 82.9125 50.529C83.02 50.9029 82.9853 50.9687 82.6938 50.9699C80.933 50.9754 79.1717 50.9784 77.4109 50.982C77.3213 50.982 77.2263 50.9977 77.1438 50.9718C77.0596 50.9458 76.9192 50.8721 76.9228 50.8292C76.9335 50.7023 76.9497 50.5513 77.1588 50.5567C77.6535 50.5694 78.1488 50.561 78.6871 50.561C78.6871 47.5767 78.6871 44.6227 78.6871 41.6639C76.6414 41.6639 74.6225 41.6639 72.5905 41.6639C72.5905 44.6239 72.5905 47.5405 72.5905 50.5006C73.0619 50.5006 73.5333 50.4963 74.0047 50.503C74.166 50.5054 74.3823 50.4202 74.3775 50.7349C74.3746 50.9452 74.279 50.9875 74.1003 50.9856C73.5232 50.9802 72.9454 50.9838 72.3676 50.9838C71.1231 50.9838 69.8786 50.9838 68.634 50.9838C68.2337 50.9838 68.2337 50.9832 68.3825 50.5422C68.919 50.5422 69.4693 50.5422 70.0429 50.5422C70.0429 44.517 70.0429 38.5021 70.0429 32.4382C69.5565 32.4382 69.0535 32.4442 68.551 32.4328C68.4596 32.4303 68.3126 32.3736 68.2911 32.3083C68.2463 32.1712 68.2349 32.0105 68.4817 32.0081C69.1234 32.0014 69.7644 31.9604 70.4061 31.9579C71.5581 31.9531 72.7106 31.9646 73.8625 31.9749C74.0197 31.9761 74.1768 32.0093 74.3321 32.0274C74.4056 32.3947 74.3769 32.434 74.0185 32.437C73.66 32.44 73.3003 32.4545 72.9436 32.4328C72.661 32.4152 72.5684 32.501 72.5702 32.8001C72.5833 34.7428 72.5768 36.6862 72.5768 38.6289C72.5768 39.4729 72.5768 40.3168 72.5768 41.206C74.6309 41.206 76.6635 41.206 78.6889 41.206C78.6889 38.2647 78.6889 35.3433 78.6889 32.4237C78.0956 32.4237 77.5436 32.4237 76.955 32.4237C76.9491 32.295 76.9437 32.1718 76.9365 32.0159C77.2329 32.0159 77.5083 32.0159 77.7831 32.0159C79.2965 32.0159 80.8099 32.0147 82.3233 32.0178C82.4811 32.0184 82.6418 32.031 82.7942 32.0679C82.8784 32.0884 82.9477 32.17 83.0236 32.2244C82.9417 32.2757 82.8611 32.3687 82.778 32.3711C82.2821 32.385 81.7862 32.3778 81.2264 32.3778C81.1278 38.4537 81.2348 44.4608 81.1714 50.529Z" fill="var(--fill-0, #FFF5E5)" style="fill:#FFF5E5;fill:color(display-p3 1.0000 0.9591 0.8978);fill-opacity:1;"/>
<path d="M91.488 70.8216C91.4778 71.0427 91.4743 71.2644 91.4563 71.4849C91.4175 71.9573 91.335 72.417 91.0387 72.8067C90.7728 73.157 90.4323 73.3642 89.9889 73.4005C89.4596 73.444 88.9547 73.4071 88.4618 73.1631C88.074 72.971 87.8297 72.6587 87.6068 72.3173C87.1007 71.5429 86.9036 70.6627 86.7996 69.7584C86.6532 68.4898 86.5517 67.2146 86.3671 65.952C86.2709 65.2948 86.0689 64.6393 85.4756 64.2231C85.3788 64.1549 85.2498 64.1005 85.1345 64.0981C84.5226 64.086 83.9102 64.0926 83.2148 64.0926C83.2148 64.7245 83.2148 65.3951 83.2148 66.065C83.2142 68.2391 83.219 70.4132 83.207 72.588C83.2052 72.864 83.2913 72.9317 83.547 72.9178C83.9144 72.8985 84.2843 72.9021 84.6511 72.9269C84.7718 72.9353 84.9815 73.0338 84.9857 73.1015C85 73.3298 84.7915 73.2724 84.6541 73.273C83.2602 73.2785 81.8669 73.2785 80.473 73.2827C80.047 73.2839 79.621 73.3014 79.195 73.2978C78.9136 73.2954 78.8419 73.1649 79.0259 72.9051C79.5654 72.9051 80.1193 72.9051 80.6881 72.9051C80.6881 66.8696 80.6881 60.8535 80.6881 54.7896C80.222 54.7896 79.7494 54.7896 79.2762 54.7896C78.8705 54.789 78.8586 54.7721 79.0062 54.3649C80.0625 54.3649 81.1272 54.3649 82.1913 54.3649C83.0278 54.3649 83.8648 54.3402 84.7001 54.374C85.5449 54.4078 86.3945 54.4574 87.2023 54.7576C88.497 55.2391 89.2761 56.176 89.6077 57.5201C89.8682 58.5749 89.833 59.635 89.5892 60.6735C89.3323 61.7675 88.7002 62.609 87.6893 63.1406C87.1515 63.4233 86.6031 63.6559 86.0014 63.7483C85.95 63.7562 85.9046 63.8015 85.8168 63.8522C86.0492 63.9446 86.235 64.025 86.425 64.0932C88.0274 64.6714 88.8735 65.8874 89.1782 67.5166C89.3156 68.2512 89.3419 69.0069 89.4279 69.7518C89.5211 70.5637 89.6245 71.3744 89.7237 72.1857C89.726 72.2056 89.7237 72.2279 89.7314 72.2455C89.8503 72.5076 89.9967 72.762 90.3098 72.7855C90.6372 72.8103 90.8158 72.559 90.9108 72.2962C91.0273 71.9724 91.0751 71.6245 91.1612 71.2886C91.2042 71.1194 91.2657 70.9545 91.3189 70.7878C91.3751 70.7987 91.4312 70.8101 91.488 70.8216ZM83.2435 63.6698C83.8117 63.6698 84.3673 63.668 84.923 63.6704C85.7122 63.6734 86.2834 63.314 86.6329 62.6048C87.0637 61.7306 87.127 60.7768 87.145 59.8296C87.1593 59.0593 87.0751 58.2873 87.038 57.5165C87.0075 56.8882 86.8277 56.3065 86.5278 55.7586C86.2834 55.3115 85.9476 54.9328 85.438 54.8724C84.7228 54.7878 83.9975 54.7938 83.2435 54.7594C83.2435 57.7539 83.2435 60.6874 83.2435 63.6698Z" fill="var(--fill-0, #FFF5E5)" style="fill:#FFF5E5;fill:color(display-p3 1.0000 0.9591 0.8978);fill-opacity:1;"/>
<path d="M95.5741 41.0731C95.5622 42.7748 95.411 44.456 94.9749 46.0979C94.5937 47.5333 93.9747 48.8478 92.8431 49.8554C92.0807 50.5338 91.1779 50.8733 90.1861 51.0545C89.1136 51.2502 88.0812 51.1089 87.0619 50.7984C86.4919 50.625 86.0032 50.2921 85.5539 49.8868C84.145 48.6152 83.5225 46.9418 83.1556 45.1417C82.8629 43.7051 82.7655 42.2432 82.8037 40.7819C82.8503 38.9721 83.0248 37.1713 83.7489 35.4828C84.4987 33.734 85.6979 32.4648 87.5811 31.9894C88.4546 31.7689 89.3508 31.755 90.2327 31.9296C90.8063 32.0431 91.3984 32.1688 91.9218 32.4183C93.2338 33.0435 94.0709 34.1399 94.6128 35.4756C95.0292 36.5013 95.2969 37.5694 95.3985 38.6742C95.472 39.4716 95.5168 40.2733 95.5741 41.0731ZM85.435 41.3709C85.5025 42.5435 85.5862 43.916 85.6596 45.2884C85.7152 46.319 85.9381 47.3146 86.2631 48.2872C86.529 49.0815 86.8922 49.8294 87.5972 50.3248C88.88 51.2267 90.7328 50.9295 91.6338 49.3522C92.052 48.62 92.2892 47.816 92.4708 46.9968C92.7989 45.521 92.8353 44.012 92.8777 42.512C92.9333 40.524 92.8568 38.5347 92.5933 36.5587C92.4505 35.4864 92.2205 34.4426 91.6475 33.5044C91.1528 32.6943 90.4436 32.2111 89.5086 32.1428C88.0973 32.0395 87.127 32.6448 86.5009 33.9206C85.9004 35.1427 85.7283 36.4663 85.6112 37.7947C85.5133 38.9147 85.4971 40.0419 85.435 41.3709Z" fill="var(--fill-0, #FFF5E5)" style="fill:#FFF5E5;fill:color(display-p3 1.0000 0.9591 0.8978);fill-opacity:1;"/>
<path d="M69.1431 73.4005C69.0361 73.2126 68.9274 73.0266 68.8234 72.8369C68.7242 72.6562 68.6239 72.4762 68.5366 72.2902C68.3932 71.9839 68.1997 72.0648 68.0252 72.2334C67.2043 73.0284 66.1981 73.3268 65.0952 73.4675C62.7776 73.7623 61.0826 72.7656 59.7986 70.9231C58.9723 69.7373 58.5415 68.3781 58.2935 66.9554C58.0958 65.8191 57.9835 64.675 58.002 63.5218C58.0289 61.8466 58.2685 60.2101 58.8617 58.6316C59.3881 57.2307 60.1732 56.0286 61.3879 55.1527C62.3486 54.4598 63.43 54.145 64.6178 54.174C65.465 54.1946 66.2662 54.3492 66.9647 54.8536C67.2288 55.0445 67.4636 55.2819 67.6882 55.5206C67.9481 55.7972 68.1919 55.7411 68.4679 55.4366C68.6269 55.2608 68.6998 55.0053 68.8091 54.7848C68.8216 54.7594 68.8067 54.7165 68.8222 54.6972C68.934 54.5595 69.072 54.2985 69.1622 54.3142C69.4227 54.3583 69.2297 54.6005 69.2178 54.7286C69.1502 55.471 69.0397 56.2098 68.9453 56.9498C68.9364 57.0193 68.9352 57.09 68.9334 57.1607C68.913 58.1061 68.8856 59.0515 68.8796 59.9975C68.8784 60.189 68.7882 60.2633 68.6466 60.2591C68.6 60.2579 68.5211 60.0869 68.5211 59.9933C68.5169 59.182 68.5396 58.3713 68.3359 57.5751C67.8973 55.8631 66.4754 54.6404 64.7224 54.5643C63.6481 54.5178 62.8116 55.0029 62.2088 55.9156C61.5498 56.9142 61.2373 58.0288 61.0425 59.1947C60.7587 60.8915 60.6536 62.6017 60.6966 64.3174C60.7426 66.1647 60.7958 68.0186 61.2905 69.817C61.5199 70.6501 61.7703 71.4819 62.3546 72.1548C63.0954 73.0084 63.969 73.2513 65.0994 72.9885C66.3105 72.707 66.9975 71.5701 67.0203 70.3891C67.0465 69.0112 67.0555 67.6332 67.083 66.2553C67.0884 65.9732 66.9964 65.9067 66.7179 65.9236C66.2238 65.9538 65.7261 65.9291 65.2308 65.9152C65.177 65.9134 65.0749 65.8197 65.082 65.7877C65.103 65.6911 65.1478 65.5805 65.2195 65.5213C65.2774 65.4736 65.3891 65.4845 65.477 65.4839C67.0997 65.4796 68.7225 65.4754 70.3452 65.4826C70.427 65.4833 70.5519 65.5702 70.5812 65.647C70.6427 65.8089 70.5436 65.9176 70.3781 65.9321C70.1403 65.9526 69.9007 65.9732 69.6635 65.9611C69.4275 65.949 69.345 66.039 69.3498 66.2722C69.36 66.7651 69.3528 67.2587 69.3528 67.7522C69.3528 69.5041 69.354 71.2554 69.3504 73.0072C69.3504 73.1262 69.314 73.2446 69.2948 73.3636C69.2429 73.3751 69.1933 73.3878 69.1431 73.4005Z" fill="var(--fill-0, #FFF5E5)" style="fill:#FFF5E5;fill:color(display-p3 1.0000 0.9591 0.8978);fill-opacity:1;"/>
<path d="M59.0165 51.0974C59.0165 50.9107 59.0129 50.7851 59.0171 50.66C59.0553 49.5968 59.1061 48.5336 59.13 47.4698C59.1485 46.6446 59.1288 45.8188 59.1402 44.9937C59.1414 44.9018 59.2346 44.8112 59.2848 44.72C59.3349 44.8112 59.421 44.8988 59.4299 44.9943C59.5166 45.8895 59.5279 46.7975 59.6815 47.6807C59.9384 49.1607 61.4972 50.5356 63.013 50.6981C63.9923 50.8032 64.8741 50.6576 65.6801 50.0922C66.3696 49.6089 66.7126 48.9124 66.8398 48.0932C66.93 47.5127 66.9115 46.9322 66.7609 46.3668C66.5196 45.4642 65.9161 44.836 65.1334 44.401C64.2575 43.9141 63.3476 43.4895 62.4573 43.0279C61.6089 42.5882 60.8095 42.0747 60.1893 41.3256C59.6355 40.6557 59.2555 39.8945 59.1384 39.0234C59.0547 38.4012 58.949 37.7711 58.9687 37.1483C59.0093 35.864 59.2501 34.6153 59.9784 33.5207C60.8185 32.2576 62.0296 31.7097 63.5005 31.7846C64.4499 31.8329 65.3318 32.1168 66.029 32.8441C66.4013 33.2326 66.8553 33.0677 67.0268 32.5445C67.1087 32.2944 67.1421 31.9598 67.5813 31.9459C67.5454 32.2352 67.512 32.4986 67.4797 32.762C67.4056 33.3739 67.2999 33.9835 67.2664 34.5978C67.2168 35.5209 67.2252 36.447 67.1923 37.3706C67.1858 37.5591 67.2312 37.8484 66.8518 37.7935C66.8279 37.0595 66.8004 36.3388 66.7819 35.6175C66.7365 33.8741 65.6347 32.5367 63.957 32.2842C62.8045 32.1108 61.6472 32.2491 60.8161 33.2652C60.1391 34.0928 59.9766 35.0527 60.0728 36.102C60.1445 36.8837 60.4367 37.5482 61.0216 38.023C61.5301 38.4362 62.115 38.763 62.6927 39.0772C63.7473 39.6499 64.9004 40.0322 65.8695 40.7692C66.8661 41.5274 67.5144 42.5126 67.7988 43.7462C67.9852 44.5551 68.0312 45.3766 67.9667 46.194C67.8567 47.5852 67.4929 48.9027 66.5255 49.9599C65.9072 50.6359 65.1089 50.9826 64.2085 51.1071C63.3775 51.2218 62.5661 51.1439 61.8061 50.7966C61.4183 50.6196 61.0318 50.3773 60.7348 50.0747C60.0752 49.4029 59.7663 49.7865 59.4963 50.3423C59.3965 50.5477 59.2967 50.7531 59.1892 50.9548C59.1665 50.9965 59.1109 51.0213 59.0165 51.0974Z" fill="var(--fill-0, #FFF5E5)" style="fill:#FFF5E5;fill:color(display-p3 1.0000 0.9591 0.8978);fill-opacity:1;"/>
<path d="M112.092 54.3516C112.024 54.8228 111.938 55.2928 111.893 55.7664C111.819 56.533 111.757 57.3014 111.717 58.0704C111.688 58.6226 111.712 59.1777 111.698 59.7311C111.693 59.922 111.702 60.1491 111.334 60.1775C111.327 59.9564 111.306 59.7383 111.318 59.5221C111.366 58.6087 111.408 57.6832 111.094 56.8157C110.638 55.5629 109.703 54.8355 108.404 54.6126C107.499 54.4574 106.629 54.586 105.863 55.1231C105.135 55.6329 104.734 56.3669 104.608 57.2465C104.488 58.0825 104.555 58.8914 104.951 59.6616C105.229 60.2029 105.664 60.5804 106.167 60.8565C107.084 61.3603 108.03 61.811 108.968 62.2785C110.193 62.8899 111.295 63.6384 111.916 64.9335C112.283 65.6983 112.463 66.5078 112.49 67.3559C112.526 68.4306 112.441 69.486 112.079 70.5099C111.5 72.15 110.466 73.2247 108.684 73.4663C107.803 73.5859 106.968 73.4724 106.186 73.0851C105.787 72.8882 105.436 72.5777 105.095 72.2817C104.746 71.9791 104.445 71.9857 104.191 72.3862C104.071 72.5765 104.006 72.8024 103.898 73.0018C103.831 73.1262 103.73 73.2325 103.645 73.3467C103.613 73.331 103.581 73.3147 103.549 73.299C103.541 73.2144 103.526 73.1299 103.528 73.0459C103.567 71.1575 103.604 69.2691 103.655 67.3807C103.657 67.2871 103.78 67.1971 103.847 67.1052C103.9 67.194 103.994 67.2804 103.999 67.371C104.031 68.0537 104.01 68.7399 104.073 69.4189C104.168 70.4634 104.617 71.3423 105.403 72.0431C105.93 72.5131 106.504 72.8785 107.208 73.0054C108.386 73.218 109.486 73.09 110.429 72.26C110.917 71.8298 111.177 71.2717 111.317 70.647C111.573 69.5107 111.444 68.4252 110.633 67.5698C110.172 67.0841 109.562 66.7228 108.975 66.3846C108.147 65.9085 107.267 65.5274 106.429 65.0676C104.892 64.2243 103.881 62.9569 103.611 61.1857C103.358 59.5293 103.473 57.9001 104.245 56.3741C104.856 55.166 105.798 54.4217 107.159 54.2338C107.984 54.1197 108.784 54.1837 109.541 54.5051C109.912 54.6634 110.24 54.9491 110.556 55.2149C110.902 55.5061 111.272 55.4523 111.472 55.0319C111.562 54.844 111.623 54.6404 111.73 54.4646C111.785 54.3752 111.914 54.3323 112.01 54.2683C112.036 54.2967 112.064 54.3245 112.092 54.3516Z" fill="var(--fill-0, #FFF5E5)" style="fill:#FFF5E5;fill:color(display-p3 1.0000 0.9591 0.8978);fill-opacity:1;"/>
<path d="M102.332 73.2748C101.959 73.2748 101.631 73.2742 101.304 73.2748C98.537 73.2803 95.7695 73.2863 93.0026 73.2905C92.7839 73.2911 92.5646 73.2869 92.3472 73.2706C92.2826 73.2658 92.2217 73.2096 92.1596 73.177C92.2068 73.1003 92.2504 73.0205 92.303 72.948C92.3167 72.9293 92.3579 72.9239 92.3866 72.9233C92.8807 72.922 93.3742 72.922 93.8809 72.922C93.9908 72.6925 94.0643 55.8963 93.9424 54.7292C93.4447 54.7292 92.9416 54.7352 92.4392 54.7238C92.346 54.7213 92.1847 54.6585 92.1745 54.6011C92.1398 54.4121 92.3047 54.4157 92.432 54.4133C93.1478 54.397 93.863 54.377 94.5787 54.3722C95.7038 54.3643 96.8282 54.368 97.9533 54.3674C98.0769 54.3674 98.2544 54.3335 98.2138 54.5371C98.197 54.6199 98.0506 54.7304 97.9592 54.734C97.4681 54.7534 96.9752 54.7431 96.45 54.7431C96.45 60.7997 96.45 66.8394 96.45 72.9118C96.6281 72.9118 96.8139 72.9118 97.0003 72.9118C98.0656 72.9118 99.1309 72.8955 100.196 72.9172C101.029 72.9341 101.331 72.7982 101.65 71.7864C101.887 71.0373 101.962 70.2338 102.089 69.4515C102.17 68.9495 102.206 68.4403 102.281 67.9371C102.297 67.8338 102.397 67.7432 102.459 67.6471C102.528 67.693 102.659 67.7438 102.656 67.7836C102.578 68.7611 102.469 69.7355 102.403 70.7135C102.352 71.4559 102.353 72.2014 102.332 72.9456C102.329 73.0441 102.332 73.1425 102.332 73.2748Z" fill="var(--fill-0, #FFF5E5)" style="fill:#FFF5E5;fill:color(display-p3 1.0000 0.9591 0.8978);fill-opacity:1;"/>
<path d="M77.4629 54.3758C77.4778 54.754 77.4486 54.7878 77.1128 54.789C76.6473 54.7902 76.1819 54.7896 75.6932 54.7896C75.6932 60.8185 75.6932 66.8213 75.6932 72.9124C76.2028 72.9124 76.6945 72.9106 77.1863 72.913C77.4725 72.9142 77.4725 72.9172 77.4617 73.2555C77.203 73.2809 76.9395 73.3274 76.676 73.3286C75.1059 73.3365 73.5351 73.3346 71.9649 73.3346C71.8454 73.3346 71.7218 73.3479 71.6083 73.3207C71.5258 73.3008 71.4571 73.2241 71.3818 73.1727C71.4493 73.0858 71.5103 72.9299 71.5855 72.9227C72.0958 72.8731 72.6084 72.8556 73.1563 72.8254C73.1617 72.7299 73.173 72.6236 73.173 72.5173C73.1736 66.7398 73.1736 60.9622 73.1736 55.1847C73.1736 54.7902 73.1724 54.7902 72.7685 54.7896C72.4005 54.7896 72.0319 54.7944 71.6638 54.7866C71.5425 54.7842 71.3597 54.8615 71.3591 54.6223C71.3585 54.4181 71.4607 54.3601 71.6602 54.3619C72.5421 54.3704 73.424 54.3613 74.3058 54.3601C75.3012 54.3589 76.2966 54.3589 77.292 54.3589C77.3416 54.3595 77.39 54.3686 77.4629 54.3758Z" fill="var(--fill-0, #FFF5E5)" style="fill:#FFF5E5;fill:color(display-p3 1.0000 0.9591 0.8978);fill-opacity:1;"/>
<path d="M60.7097 82.1391L62.0645 80.778L63.4194 82.1391L62.0645 83.5002L60.7097 82.1391Z" fill="#FFF5E5" style="fill:#FFF5E5;fill:color(display-p3 1.0000 0.9591 0.8978);fill-opacity:1;"/>
<path d="M108.581 82.1391L109.935 80.778L111.29 82.1391L109.935 83.5002L108.581 82.1391Z" fill="#FFF5E5" style="fill:#FFF5E5;fill:color(display-p3 1.0000 0.9591 0.8978);fill-opacity:1;"/>
<path d="M68.2407 81.4098V80.0496L67.0323 78.1089H67.4909L68.1503 79.1767C68.2017 79.2579 68.251 79.3399 68.298 79.4226C68.3465 79.5038 68.3943 79.5851 68.4413 79.6663C68.4884 79.5851 68.5362 79.5038 68.5847 79.4226C68.6332 79.3399 68.6824 79.2579 68.7324 79.1767L69.3896 78.1089H69.846L68.6376 80.0496V81.4098H68.2407Z" fill="var(--fill-0, #FFF5E5)" style="fill:#FFF5E5;fill:color(display-p3 1.0000 0.9591 0.8978);fill-opacity:1;"/>
<path d="M71 81.4098V78.1089H73.1368V78.4634H71.3969V79.5422H73.0089V79.8967H71.3969V81.0553H73.1368V81.4098H71Z" fill="var(--fill-0, #FFF5E5)" style="fill:#FFF5E5;fill:color(display-p3 1.0000 0.9591 0.8978);fill-opacity:1;"/>
<path d="M74.4032 81.4098V78.1089H74.8002V79.8014C74.8928 79.6981 74.9861 79.5954 75.0802 79.4935C75.1743 79.3916 75.2691 79.2889 75.3647 79.1856L76.3614 78.1089H76.8862L75.5521 79.5378L76.8862 81.4098H76.4165L75.2787 79.8103L74.8002 80.3287V81.4098H74.4032Z" fill="var(--fill-0, #FFF5E5)" style="fill:#FFF5E5;fill:color(display-p3 1.0000 0.9591 0.8978);fill-opacity:1;"/>
<path d="M77.7712 81.4098L78.984 78.1089H79.4339L80.6335 81.4098H80.2101L79.8881 80.4838H78.5165L78.1857 81.4098H77.7712ZM78.6422 80.1293H79.7668L79.5199 79.4204C79.4787 79.3037 79.4339 79.1738 79.3853 79.0305C79.3383 78.8858 79.2795 78.7034 79.2089 78.4833C79.1384 78.7034 79.0788 78.8858 79.0303 79.0305C78.9833 79.1738 78.9384 79.3037 78.8958 79.4204L78.6422 80.1293Z" fill="var(--fill-0, #FFF5E5)" style="fill:#FFF5E5;fill:color(display-p3 1.0000 0.9591 0.8978);fill-opacity:1;"/>
<path d="M81.7874 81.4098V78.1089H83.0069C83.3494 78.1089 83.6206 78.199 83.8206 78.3792C84.022 78.5579 84.1227 78.8016 84.1227 79.1102C84.1227 79.3451 84.0595 79.5437 83.933 79.7062C83.8081 79.8686 83.6383 79.9831 83.4237 80.0496L84.1624 81.4098H83.6993L83.0069 80.1138C82.9966 80.1138 82.9863 80.1138 82.976 80.1138H82.1844V81.4098H81.7874ZM82.1844 79.7593H82.9981C83.2259 79.7593 83.4045 79.7017 83.5339 79.5865C83.6647 79.4699 83.7302 79.3111 83.7302 79.1102C83.7302 78.9094 83.664 78.7514 83.5317 78.6362C83.4009 78.521 83.2215 78.4634 82.9936 78.4634H82.1844V79.7593Z" fill="var(--fill-0, #FFF5E5)" style="fill:#FFF5E5;fill:color(display-p3 1.0000 0.9591 0.8978);fill-opacity:1;"/>
<path d="M85.8257 78.1089V81.4098H85.4288V78.1089H85.8257Z" fill="var(--fill-0, #FFF5E5)" style="fill:#FFF5E5;fill:color(display-p3 1.0000 0.9591 0.8978);fill-opacity:1;"/>
<path d="M87.262 81.4098V78.1089H87.7185L89.0724 80.2578C89.1106 80.3198 89.1636 80.4077 89.2312 80.5214C89.2988 80.6351 89.3657 80.7503 89.4318 80.867C89.4274 80.7518 89.4238 80.6322 89.4208 80.5081C89.4194 80.3841 89.4186 80.2947 89.4186 80.2401V78.1089H89.8155V81.4098H89.3547L88.1507 79.5001C88.1051 79.4293 88.0375 79.3207 87.9478 79.1745C87.8596 79.0268 87.7567 78.854 87.6391 78.6561C87.6464 78.8614 87.6516 79.0349 87.6545 79.1767C87.6574 79.317 87.6589 79.4233 87.6589 79.4957V81.4098H87.262Z" fill="var(--fill-0, #FFF5E5)" style="fill:#FFF5E5;fill:color(display-p3 1.0000 0.9591 0.8978);fill-opacity:1;"/>
<path d="M91.2518 81.4098V78.1089H92.4381C92.7675 78.1089 93.0262 78.1879 93.2144 78.3459C93.4025 78.504 93.4966 78.7174 93.4966 78.9862C93.4966 79.1752 93.4496 79.3273 93.3555 79.4425C93.2614 79.5577 93.1306 79.6434 92.963 79.6995V79.704C93.1497 79.735 93.3077 79.814 93.4371 79.941C93.5664 80.0665 93.6311 80.2475 93.6311 80.4838C93.6311 80.7659 93.5341 80.9911 93.3401 81.1594C93.146 81.3263 92.8512 81.4098 92.4558 81.4098H91.2518ZM91.6487 81.0553H92.4558C92.7042 81.0553 92.8946 81.0088 93.0269 80.9158C93.1607 80.8212 93.2276 80.6824 93.2276 80.4993C93.2276 80.3161 93.1629 80.1721 93.0335 80.0673C92.9042 79.9609 92.7189 79.9078 92.4778 79.9078H91.6487V81.0553ZM91.6487 79.5577H92.4536C92.6579 79.5577 92.8174 79.509 92.9321 79.4115C93.0468 79.3126 93.1041 79.1789 93.1041 79.0106C93.1041 78.8422 93.0468 78.7093 92.9321 78.6118C92.8174 78.5128 92.6579 78.4634 92.4536 78.4634H91.6487V79.5577Z" fill="var(--fill-0, #FFF5E5)" style="fill:#FFF5E5;fill:color(display-p3 1.0000 0.9591 0.8978);fill-opacity:1;"/>
<path d="M96.181 81.463C95.9237 81.463 95.6988 81.412 95.5062 81.3101C95.3151 81.2082 95.1666 81.0694 95.0608 80.8936C94.9549 80.7164 94.902 80.5148 94.902 80.2888V78.1089H95.2989V80.2578C95.2989 80.4188 95.3342 80.562 95.4048 80.6876C95.4753 80.8131 95.5768 80.9121 95.7091 80.9844C95.8414 81.0553 95.9987 81.0908 96.181 81.0908C96.3647 81.0908 96.522 81.0553 96.6529 80.9844C96.7852 80.9121 96.8866 80.8131 96.9572 80.6876C97.0277 80.562 97.063 80.4188 97.063 80.2578V78.1089H97.46V80.2888C97.46 80.5148 97.407 80.7164 97.3012 80.8936C97.1953 81.0694 97.0469 81.2082 96.8557 81.3101C96.6646 81.412 96.4397 81.463 96.181 81.463Z" fill="var(--fill-0, #FFF5E5)" style="fill:#FFF5E5;fill:color(display-p3 1.0000 0.9591 0.8978);fill-opacity:1;"/>
<path d="M98.8786 81.4098V78.1089H100.098C100.441 78.1089 100.712 78.199 100.912 78.3792C101.113 78.5579 101.214 78.8016 101.214 79.1102C101.214 79.3451 101.151 79.5437 101.024 79.7062C100.899 79.8686 100.729 79.9831 100.515 80.0496L101.253 81.4098H100.79L100.098 80.1138C100.088 80.1138 100.077 80.1138 100.067 80.1138H99.2755V81.4098H98.8786ZM99.2755 79.7593H100.089C100.317 79.7593 100.496 79.7017 100.625 79.5865C100.756 79.4699 100.821 79.3111 100.821 79.1102C100.821 78.9094 100.755 78.7514 100.623 78.6362C100.492 78.521 100.313 78.4634 100.085 78.4634H99.2755V79.7593Z" fill="var(--fill-0, #FFF5E5)" style="fill:#FFF5E5;fill:color(display-p3 1.0000 0.9591 0.8978);fill-opacity:1;"/>
<path d="M103.894 81.463C103.603 81.463 103.344 81.3906 103.118 81.2458C102.893 81.0996 102.715 80.8988 102.586 80.6433C102.457 80.3863 102.392 80.0924 102.392 79.7616C102.392 79.4278 102.456 79.1331 102.584 78.8776C102.713 78.6206 102.891 78.4198 103.118 78.2751C103.344 78.1288 103.603 78.0557 103.894 78.0557C104.126 78.0557 104.338 78.1037 104.531 78.1997C104.724 78.2943 104.884 78.4257 105.012 78.5941C105.14 78.7624 105.223 78.9566 105.261 79.1767H104.86C104.826 79.029 104.763 78.899 104.672 78.7868C104.581 78.6746 104.469 78.5867 104.335 78.5232C104.202 78.4597 104.055 78.4279 103.894 78.4279C103.675 78.4279 103.482 78.4848 103.316 78.5985C103.15 78.7107 103.021 78.8673 102.928 79.0682C102.835 79.2675 102.789 79.4987 102.789 79.7616C102.789 80.023 102.835 80.2534 102.928 80.4527C103.021 80.6521 103.15 80.8087 103.316 80.9224C103.482 81.0346 103.675 81.0908 103.894 81.0908C104.076 81.0908 104.242 81.0502 104.392 80.9689C104.542 80.8862 104.662 80.7718 104.752 80.6255C104.841 80.4779 104.887 80.3073 104.888 80.1138H104.028V79.7593H105.281V80.116C105.281 80.373 105.219 80.6034 105.096 80.8072C104.974 81.0095 104.808 81.1698 104.599 81.2879C104.391 81.4046 104.155 81.463 103.894 81.463Z" fill="var(--fill-0, #FFF5E5)" style="fill:#FFF5E5;fill:color(display-p3 1.0000 0.9591 0.8978);fill-opacity:1;"/>
<path d="M75.4992 86C75.1963 86 74.931 85.9276 74.7031 85.7829C74.4753 85.6367 74.2974 85.4358 74.1695 85.1803C74.0431 84.9233 73.9798 84.6294 73.9798 84.2986C73.9798 83.9648 74.0431 83.6702 74.1695 83.4147C74.2959 83.1577 74.4731 82.9568 74.7009 82.8121C74.9303 82.6659 75.1963 82.5928 75.4992 82.5928C75.7285 82.5928 75.938 82.6386 76.1277 82.7301C76.3173 82.8202 76.4753 82.9495 76.6018 83.1178C76.7297 83.2847 76.8135 83.4834 76.8531 83.7138H76.4474C76.3945 83.473 76.2827 83.2884 76.1122 83.1599C75.9432 83.0299 75.7388 82.965 75.4992 82.965C75.2684 82.965 75.0692 83.0218 74.9016 83.1355C74.734 83.2478 74.6046 83.4043 74.5135 83.6052C74.4223 83.8046 74.3768 84.0357 74.3768 84.2986C74.3768 84.56 74.4223 84.7904 74.5135 84.9898C74.6046 85.1892 74.734 85.3457 74.9016 85.4595C75.0692 85.5717 75.2684 85.6278 75.4992 85.6278C75.7359 85.6278 75.9395 85.5636 76.11 85.4351C76.2805 85.3066 76.3937 85.1227 76.4496 84.8835H76.8531C76.8135 85.1124 76.7304 85.3103 76.604 85.4772C76.4775 85.6441 76.3188 85.7733 76.1277 85.8649C75.938 85.955 75.7285 86 75.4992 86Z" fill="var(--fill-0, #FFF5E5)" style="fill:#FFF5E5;fill:color(display-p3 1.0000 0.9591 0.8978);fill-opacity:1;"/>
<path d="M77.8065 85.9468L79.0193 82.646H79.4691L80.6687 85.9468H80.2453L79.9234 85.0208H78.5518L78.221 85.9468H77.8065ZM78.6775 84.6664H79.8021L79.5551 83.9574C79.514 83.8408 79.4691 83.7108 79.4206 83.5675C79.3736 83.4228 79.3148 83.2404 79.2442 83.0203C79.1736 83.2404 79.1141 83.4228 79.0656 83.5675C79.0186 83.7108 78.9737 83.8408 78.9311 83.9574L78.6775 84.6664Z" fill="var(--fill-0, #FFF5E5)" style="fill:#FFF5E5;fill:color(display-p3 1.0000 0.9591 0.8978);fill-opacity:1;"/>
<path d="M81.8227 85.9468V82.646H83.0091C83.3384 82.646 83.5971 82.725 83.7853 82.883C83.9735 83.041 84.0676 83.2544 84.0676 83.5232C84.0676 83.7123 84.0205 83.8644 83.9264 83.9796C83.8323 84.0948 83.7015 84.1805 83.5339 84.2366V84.241C83.7206 84.272 83.8786 84.351 84.008 84.4781C84.1374 84.6036 84.2021 84.7845 84.2021 85.0208C84.2021 85.3029 84.105 85.5281 83.911 85.6965C83.7169 85.8634 83.4222 85.9468 83.0267 85.9468H81.8227ZM82.2196 85.5924H83.0267C83.2752 85.5924 83.4655 85.5459 83.5979 85.4528C83.7316 85.3583 83.7985 85.2195 83.7985 85.0363C83.7985 84.8532 83.7338 84.7092 83.6045 84.6043C83.4751 84.498 83.2899 84.4448 83.0488 84.4448H82.2196V85.5924ZM82.2196 84.0948H83.0245C83.2289 84.0948 83.3884 84.0461 83.503 83.9486C83.6177 83.8496 83.675 83.716 83.675 83.5476C83.675 83.3792 83.6177 83.2463 83.503 83.1488C83.3884 83.0499 83.2289 83.0004 83.0245 83.0004H82.2196V84.0948Z" fill="var(--fill-0, #FFF5E5)" style="fill:#FFF5E5;fill:color(display-p3 1.0000 0.9591 0.8978);fill-opacity:1;"/>
<path d="M85.2083 85.9468L86.4211 82.646H86.871L88.0706 85.9468H87.6472L87.3252 85.0208H85.9536L85.6229 85.9468H85.2083ZM86.0793 84.6664H87.204L86.957 83.9574C86.9158 83.8408 86.871 83.7108 86.8225 83.5675C86.7754 83.4228 86.7166 83.2404 86.6461 83.0203C86.5755 83.2404 86.516 83.4228 86.4674 83.5675C86.4204 83.7108 86.3756 83.8408 86.3329 83.9574L86.0793 84.6664Z" fill="var(--fill-0, #FFF5E5)" style="fill:#FFF5E5;fill:color(display-p3 1.0000 0.9591 0.8978);fill-opacity:1;"/>
<path d="M89.2246 85.9468V82.646H90.444C90.7865 82.646 91.0578 82.736 91.2577 82.9162C91.4591 83.0949 91.5598 83.3386 91.5598 83.6473C91.5598 83.8821 91.4966 84.0808 91.3702 84.2432C91.2452 84.4057 91.0754 84.5201 90.8608 84.5866L91.5995 85.9468H91.1364L90.444 84.6508C90.4337 84.6508 90.4234 84.6508 90.4131 84.6508H89.6215V85.9468H89.2246ZM89.6215 84.2964H90.4352C90.6631 84.2964 90.8417 84.2388 90.971 84.1236C91.1019 84.0069 91.1673 83.8482 91.1673 83.6473C91.1673 83.4464 91.1011 83.2884 90.9688 83.1732C90.838 83.058 90.6586 83.0004 90.4308 83.0004H89.6215V84.2964Z" fill="var(--fill-0, #FFF5E5)" style="fill:#FFF5E5;fill:color(display-p3 1.0000 0.9591 0.8978);fill-opacity:1;"/>
<path d="M92.8659 85.9468V82.646H95.0027V83.0004H93.2629V84.0793H94.8748V84.4337H93.2629V85.5924H95.0027V85.9468H92.8659Z" fill="var(--fill-0, #FFF5E5)" style="fill:#FFF5E5;fill:color(display-p3 1.0000 0.9591 0.8978);fill-opacity:1;"/>
<path d="M96.0531 83.0004V82.646H98.589V83.0004H97.5217V85.9468H97.1248V83.0004H96.0531Z" fill="var(--fill-0, #FFF5E5)" style="fill:#FFF5E5;fill:color(display-p3 1.0000 0.9591 0.8978);fill-opacity:1;"/>
<path d="M90.5399 15.5348L92.1673 17.7148L86.1297 25.6466L85.8315 26.0392L80.0038 17.7449L80.1008 17.5508L81.004 15.736L81.1037 15.5348H90.5399ZM85.8739 24.2465L88.042 18.0763H84.0683L85.8739 24.2465ZM84.8807 23.4268L83.3141 18.0763H81.1213L84.8807 23.4268ZM86.9429 23.3825L90.9827 18.0763H88.8076L86.9429 23.3825ZM88.7749 17.3497H90.9907L90.1783 16.2615H88.2334L88.7749 17.3497ZM84.1689 17.3497H87.9687L87.4272 16.2615H84.7104L84.1689 17.3497ZM81.0076 17.3497H83.3627L83.9042 16.2615H81.5491L81.0076 17.3497Z" fill="var(--fill-0, #FFF5E5)" style="fill:#FFF5E5;fill:color(display-p3 1.0000 0.9591 0.8978);fill-opacity:1;"/>
<path d="M93.3634 11.572L91.1053 14.748L90.5179 14.3261L92.776 11.1502L93.3634 11.572Z" fill="var(--fill-0, #FFF5E5)" style="fill:#FFF5E5;fill:color(display-p3 1.0000 0.9591 0.8978);fill-opacity:1;"/>
<path d="M78.7742 11.572L81.0323 14.748L81.6197 14.3261L79.3616 11.1502L78.7742 11.572Z" fill="var(--fill-0, #FFF5E5)" style="fill:#FFF5E5;fill:color(display-p3 1.0000 0.9591 0.8978);fill-opacity:1;"/>
<path d="M86.6562 10V13.6296H85.933V10H86.6562Z" fill="var(--fill-0, #FFF5E5)" style="fill:#FFF5E5;fill:color(display-p3 1.0000 0.9591 0.8978);fill-opacity:1;"/>
</g>
</g>
</svg>
