<svg preserveAspectRatio="none" width="100%" height="100%" overflow="visible" style="display: block;" viewBox="0 0 972 1080" fill="none" xmlns="http://www.w3.org/2000/svg">
<g id="&#209;&#129;&#208;&#178;&#208;&#181;&#209;&#130;" clip-path="url(#clip0_0_21)">
<g id="Ellipse 14" filter="url(#filter0_f_0_21)">
<path d="M-397.606 470.365C-276.21 545.963 -139.916 500.965 -40.3525 338.352C59.2108 175.74 86.4072 16.0939 -39.1655 -38.4353C-164.738 -92.9646 -85.4327 19.4341 -359.298 71.5621C-633.163 123.69 -519.002 394.766 -397.606 470.365Z" fill="url(#paint0_linear_0_21)" fill-opacity="0.6"/>
</g>
<g id="Group 76">
<g id="Ellipse 14_2" filter="url(#filter1_f_0_21)">
<path d="M1066.81 258.525C1367.46 334.961 1233.25 417.302 1197.19 609.554C1161.13 801.806 1084.99 940.794 981.095 893.153C877.198 845.512 1046.99 762.038 859.491 584.825C671.988 407.613 766.171 182.089 1066.81 258.525Z" fill="url(#paint1_linear_0_21)" fill-opacity="0.6"/>
</g>
<g id="Ellipse 15" opacity="0.8" filter="url(#filter2_f_0_21)">
<path d="M950.282 304.328C904.869 365.039 917.536 448.414 990.377 524.518C1063.22 600.621 1139.59 634.907 1174.96 569.334C1210.34 503.762 1149.79 536.042 1143.1 372.996C1136.42 209.95 995.696 243.617 950.282 304.328Z" fill="url(#paint2_linear_0_21)"/>
</g>
</g>
</g>
<defs>
<filter id="filter0_f_0_21" x="-828" y="-353" width="1173" height="1159" filterUnits="userSpaceOnUse" color-interpolation-filters="sRGB">
<feFlood flood-opacity="0" result="BackgroundImageFix"/>
<feBlend mode="normal" in="SourceGraphic" in2="BackgroundImageFix" result="shape"/>
<feGaussianBlur stdDeviation="150" result="effect1_foregroundBlur_0_21"/>
</filter>
<filter id="filter1_f_0_21" x="462.906" y="-56.7883" width="1095.36" height="1259.36" filterUnits="userSpaceOnUse" color-interpolation-filters="sRGB">
<feFlood flood-opacity="0" result="BackgroundImageFix"/>
<feBlend mode="normal" in="SourceGraphic" in2="BackgroundImageFix" result="shape"/>
<feGaussianBlur stdDeviation="150" result="effect1_foregroundBlur_0_21"/>
</filter>
<filter id="filter2_f_0_21" x="823.774" y="154.229" width="462.207" height="549.82" filterUnits="userSpaceOnUse" color-interpolation-filters="sRGB">
<feFlood flood-opacity="0" result="BackgroundImageFix"/>
<feBlend mode="normal" in="SourceGraphic" in2="BackgroundImageFix" result="shape"/>
<feGaussianBlur stdDeviation="50" result="effect1_foregroundBlur_0_21"/>
</filter>
<linearGradient id="paint0_linear_0_21" x1="123.875" y1="359.871" x2="-117.679" y2="207.807" gradientUnits="userSpaceOnUse">
<stop stop-color="#0B0B0B" style="stop-color:#0B0B0B;stop-color:color(display-p3 0.0431 0.0431 0.0431);stop-opacity:1;"/>
<stop offset="0.5" stop-color="#C88C63" style="stop-color:#C88C63;stop-color:color(display-p3 0.7840 0.5493 0.3884);stop-opacity:1;"/>
<stop offset="1" stop-color="#9C5F49" style="stop-color:#9C5F49;stop-color:color(display-p3 0.6110 0.3731 0.2866);stop-opacity:1;"/>
</linearGradient>
<linearGradient id="paint1_linear_0_21" x1="732.672" y1="516.907" x2="1057.43" y2="605.779" gradientUnits="userSpaceOnUse">
<stop stop-color="#C88C63" stop-opacity="0" style="stop-color:none;stop-opacity:0;"/>
<stop offset="0.5" stop-color="#C88C63" style="stop-color:#C88C63;stop-color:color(display-p3 0.7840 0.5493 0.3884);stop-opacity:1;"/>
<stop offset="1" stop-color="#9C5F49" style="stop-color:#9C5F49;stop-color:color(display-p3 0.6110 0.3731 0.2866);stop-opacity:1;"/>
</linearGradient>
<linearGradient id="paint2_linear_0_21" x1="1009.3" y1="246.314" x2="1146.37" y2="416.603" gradientUnits="userSpaceOnUse">
<stop stop-color="#C88C63" stop-opacity="0" style="stop-color:none;stop-opacity:0;"/>
<stop offset="0.5" stop-color="#AF6E6E" style="stop-color:#AF6E6E;stop-color:color(display-p3 0.6854 0.4310 0.4310);stop-opacity:1;"/>
<stop offset="1" stop-color="#F6D98F" style="stop-color:#F6D98F;stop-color:color(display-p3 0.9658 0.8508 0.5597);stop-opacity:1;"/>
</linearGradient>
<clipPath id="clip0_0_21">
<rect width="972" height="1080" fill="white" style="fill:white;fill-opacity:1;"/>
</clipPath>
</defs>
</svg>
