<svg preserveAspectRatio="none" width="1920" height="1080" viewBox="0 0 1920 1080" fill="none" xmlns="http://www.w3.org/2000/svg">
<g id="svet" clip-path="url(#clip0_0_4)">
<g id="Ellipse 14" filter="url(#filter0_f_0_4)">
<path d="M-189.606 820.365C-68.2098 895.963 68.0841 850.965 167.647 688.352C267.211 525.74 294.407 366.094 168.835 311.565C43.2618 257.035 122.567 369.434 -151.298 421.562C-425.163 473.69 -311.002 744.766 -189.606 820.365Z" fill="url(#paint0_linear_0_4)" fill-opacity="0.6"/>
</g>
<g id="Ellipse 14_2" filter="url(#filter1_f_0_4)">
<path d="M1838.39 245.52C2141.34 178.803 2058.4 312.645 2112.52 500.613C2166.64 688.58 2161.02 846.959 2046.8 851.049C1932.57 855.14 2046.8 704.306 1799.68 630.171C1552.57 556.036 1535.44 312.236 1838.39 245.52Z" fill="url(#paint1_linear_0_4)" fill-opacity="0.6"/>
</g>
<g id="Ellipse 15" opacity="0.8" filter="url(#filter2_f_0_4)">
<path d="M1754.84 338.776C1741.53 413.415 1790.29 482.221 1889.55 517.508C1988.8 552.795 2072.44 549.132 2074.6 474.657C2076.76 400.183 2037.15 456.217 1957.96 313.538C1878.77 170.86 1768.15 264.137 1754.84 338.776Z" fill="url(#paint2_linear_0_4)"/>
</g>
</g>
<defs>
<filter id="filter0_f_0_4" x="-620" y="-3.00003" width="1173" height="1159" filterUnits="userSpaceOnUse" color-interpolation-filters="sRGB">
<feFlood flood-opacity="0" result="BackgroundImageFix"/>
<feBlend mode="normal" in="SourceGraphic" in2="BackgroundImageFix" result="shape"/>
<feGaussianBlur stdDeviation="150" result="effect1_foregroundBlur_0_4"/>
</filter>
<filter id="filter1_f_0_4" x="1312.68" y="-71.8691" width="1133" height="1223" filterUnits="userSpaceOnUse" color-interpolation-filters="sRGB">
<feFlood flood-opacity="0" result="BackgroundImageFix"/>
<feBlend mode="normal" in="SourceGraphic" in2="BackgroundImageFix" result="shape"/>
<feGaussianBlur stdDeviation="150" result="effect1_foregroundBlur_0_4"/>
</filter>
<filter id="filter2_f_0_4" x="1652.68" y="139.131" width="522" height="500" filterUnits="userSpaceOnUse" color-interpolation-filters="sRGB">
<feFlood flood-opacity="0" result="BackgroundImageFix"/>
<feBlend mode="normal" in="SourceGraphic" in2="BackgroundImageFix" result="shape"/>
<feGaussianBlur stdDeviation="50" result="effect1_foregroundBlur_0_4"/>
</filter>
<linearGradient id="paint0_linear_0_4" x1="331.875" y1="709.871" x2="90.321" y2="557.807" gradientUnits="userSpaceOnUse">
<stop stop-color="#0B0B0B"/>
<stop offset="0.5" stop-color="#C88C63"/>
<stop offset="1" stop-color="#9C5F49"/>
</linearGradient>
<linearGradient id="paint1_linear_0_4" x1="1655.87" y1="626.437" x2="1985.95" y2="560.003" gradientUnits="userSpaceOnUse">
<stop stop-color="#C88C63" stop-opacity="0"/>
<stop offset="0.5" stop-color="#C88C63"/>
<stop offset="1" stop-color="#9C5F49"/>
</linearGradient>
<linearGradient id="paint2_linear_0_4" x1="1781.52" y1="260.438" x2="1980.46" y2="351.033" gradientUnits="userSpaceOnUse">
<stop stop-color="#C88C63" stop-opacity="0"/>
<stop offset="0.5" stop-color="#AF6E6E"/>
<stop offset="1" stop-color="#F6D98F"/>
</linearGradient>
<clipPath id="clip0_0_4">
<rect width="1920" height="1080" fill="white"/>
</clipPath>
</defs>
</svg>
