<svg preserveAspectRatio="none" width="100%" height="100%" overflow="visible" style="display: block;" viewBox="0 0 172 96" fill="none" xmlns="http://www.w3.org/2000/svg">
<g id="Frame 1321317616">
<g id="Vector">
<path d="M67.0354 69.2902C67.0354 62.9347 67.0354 56.6424 67.0354 50.2957C66.7429 50.2879 66.4726 50.2782 66.2023 50.274C65.9416 50.2703 65.6805 50.2768 65.4203 50.2713C65.0187 50.263 64.993 50.2215 65.1196 49.7779C65.214 49.7715 65.3176 49.7585 65.4217 49.7585C67.7377 49.7613 70.0536 49.7655 72.3696 49.7696C72.7536 49.7701 73.1363 49.7728 73.496 49.9434C73.5761 49.9812 73.6742 49.9831 73.7649 49.996C74.9232 50.1606 75.911 50.6572 76.657 51.566C76.9683 51.9445 77.1645 52.4001 77.334 52.8713C77.7227 53.9502 77.5831 55.0549 77.5085 56.1458C77.4781 56.5912 77.2483 57.0482 77.0199 57.4488C76.7629 57.8984 76.4346 58.3244 75.9897 58.6144C75.6158 58.8579 75.2041 59.0423 74.82 59.2715C74.353 59.5495 73.7857 59.5716 73.28 59.8755C73.5881 60.0073 73.8488 60.1429 74.1246 60.2324C74.8905 60.4809 75.4951 60.9798 75.9644 61.5879C76.3692 62.1122 76.6552 62.7236 76.8518 63.3907C77.0296 63.9947 76.9964 64.6034 77.1221 65.1931C77.2935 65.9986 77.2364 66.8115 77.3271 67.616C77.3796 68.0813 77.4652 68.5516 77.7494 68.9416C78.0625 69.3718 78.4636 69.3773 78.7819 68.9462C78.9085 68.7747 79.037 68.5935 79.0609 68.3441C79.0927 68.0153 79.2032 67.694 79.2898 67.3717C79.3018 67.3265 79.3805 67.2592 79.4095 67.2675C79.4685 67.2845 79.5606 67.3481 79.5588 67.3896C79.5426 67.812 79.614 68.233 79.4192 68.6512C79.2525 69.0089 79.1111 69.3746 78.7846 69.6065C78.5576 69.7679 78.2997 69.9435 78.0367 69.9823C77.6167 70.0436 77.1599 70.08 76.7565 69.9772C75.9225 69.7642 75.2331 69.2801 74.8301 68.4939C74.5787 68.0038 74.4189 67.4736 74.2568 66.9396C74.0546 66.2729 74.0781 65.6113 74.0164 64.945C73.9446 64.1672 73.9059 63.3824 73.7654 62.6166C73.6383 61.925 73.4555 61.2306 73.0235 60.6441C72.7771 60.3094 72.406 60.1305 72.0265 60.0959C71.4057 60.0392 70.7762 60.0807 70.101 60.0807C70.0683 60.2854 70.0163 60.4601 70.0158 60.6353C70.0108 63.3543 70.0117 66.0737 70.014 68.7927C70.014 68.9425 70.0347 69.0929 70.0504 69.305C70.3631 69.3119 70.6477 69.3192 70.9318 69.3234C71.1464 69.3266 71.362 69.316 71.5756 69.3294C71.8612 69.3469 71.9574 69.441 72.0223 69.7605C71.8441 69.7891 71.6677 69.8416 71.4909 69.8421C69.4968 69.8476 67.5032 69.8476 65.5092 69.8416C65.3517 69.8412 65.1942 69.7845 65.0339 69.7536C65.0399 69.4327 65.1772 69.3216 65.4383 69.3252C65.791 69.3303 66.1438 69.328 66.4966 69.3229C66.6619 69.3192 66.8272 69.3027 67.0354 69.2902ZM70.1121 50.2952C69.9753 50.7457 69.9675 59.0797 70.0983 59.5015C70.9829 59.5015 71.869 59.5025 72.755 59.4992C72.8135 59.4992 72.8766 59.4753 72.9296 59.4467C73.6273 59.0723 74.0468 58.4664 74.2817 57.7347C74.3972 57.3751 74.4834 56.991 74.4935 56.6152C74.5216 55.5879 74.5133 54.5593 74.4949 53.532C74.4907 53.295 74.3498 53.0617 74.3369 52.8233C74.3061 52.2456 74.0753 51.7435 73.7788 51.2736C73.449 50.7517 72.9438 50.3842 72.3493 50.3155C71.6106 50.2302 70.854 50.2952 70.1121 50.2952Z" fill="#F1B965" style="fill:#F1B965;fill:color(display-p3 0.9451 0.7255 0.3961);fill-opacity:1;"/>
<path d="M94.2849 59.6477C94.2849 60.4159 94.2918 61.184 94.2817 61.9517C94.2766 62.333 94.2881 62.718 94.0873 63.0735C94.0247 63.1842 94.044 63.3432 94.0339 63.4811C94.0136 63.7564 93.9731 64.0136 93.8465 64.2751C93.6977 64.5821 93.6434 64.9344 93.549 65.2678C93.443 65.6417 93.2805 65.9866 93.0986 66.3324C92.9379 66.6376 92.7748 66.9373 92.5929 67.231C92.231 67.8148 91.7534 68.2901 91.2422 68.7341C90.7255 69.1823 90.1149 69.5097 89.4784 69.6992C88.9378 69.8601 88.3916 70.0869 87.7883 70.039C87.2242 69.9938 86.6536 70.0353 86.0862 70.0247C85.721 70.0182 85.3655 70.0044 85.016 69.8246C84.7443 69.6844 84.4178 69.683 84.1157 69.5507C83.3226 69.2035 82.6342 68.7374 82.047 68.108C81.4985 67.5201 81.0537 66.8668 80.7557 66.1157C80.5347 65.5582 80.3044 65.0045 80.0792 64.4484C80.0677 64.4208 80.0668 64.3885 80.0617 64.3581C79.9641 63.7416 79.9024 63.1164 79.7619 62.5096C79.4183 61.0217 79.6035 59.5172 79.5634 58.0196C79.5524 57.5959 79.685 57.2072 79.7554 56.8029C79.8627 56.1887 79.9314 55.5663 80.07 54.9595C80.1524 54.5998 80.3293 54.26 80.4785 53.9175C80.6595 53.5029 80.8225 53.0751 81.0523 52.6882C81.5225 51.8961 82.0884 51.1823 82.9109 50.7153C83.2623 50.5156 83.5893 50.2607 83.9586 50.1076C84.3588 49.9416 84.7945 49.8609 85.2168 49.7512C85.4512 49.6903 85.6879 49.6234 85.9273 49.6009C86.7038 49.5271 87.4825 49.4386 88.2502 49.6755C88.3372 49.7023 88.428 49.723 88.5182 49.73C89.6857 49.8236 90.6601 50.3561 91.5508 51.0735C92.2917 51.6702 92.8264 52.4443 93.2303 53.2835C93.473 53.7879 93.6517 54.3393 93.8225 54.8857C93.992 55.4266 93.9501 56.0117 94.2232 56.5211C94.2766 56.6212 94.2623 56.7618 94.2665 56.884C94.2973 57.8052 94.3249 58.7265 94.353 59.6482C94.3318 59.6472 94.3084 59.6477 94.2849 59.6477ZM91.2565 59.7662C91.2639 58.2954 91.2966 56.8236 91.0396 55.3652C90.9341 54.7654 90.8535 54.1614 90.761 53.5597C90.7587 53.5449 90.7531 53.5297 90.7462 53.5163C90.4787 52.9976 90.3668 52.4222 90.0895 51.8975C89.5968 50.9647 88.8733 50.3035 87.8859 50.0822C87.1813 49.9241 86.4224 49.9093 85.6805 50.2086C84.7613 50.5793 84.1769 51.2132 83.7624 52.0833C83.6386 52.3429 83.5465 52.6043 83.4548 52.8717C83.2835 53.3725 83.097 53.8663 83.0468 54.4016C83.0169 54.7183 82.9335 55.0305 82.8769 55.3449C82.8525 55.4805 82.8221 55.6165 82.817 55.753C82.7746 56.9647 82.7253 58.1764 82.7042 59.3881C82.694 59.97 82.7327 60.5533 82.7626 61.1351C82.823 62.2934 82.6733 63.4627 83.0099 64.6089C83.1274 65.0086 83.126 65.4402 83.2351 65.8598C83.4295 66.6049 83.6772 67.314 84.0572 67.9803C84.706 69.1178 85.7533 69.5784 86.9911 69.7098C87.0915 69.7204 87.1993 69.6766 87.302 69.6517C87.4356 69.6194 87.5659 69.5567 87.7004 69.5493C88.188 69.5221 88.5915 69.2934 88.959 69.0094C89.3974 68.6705 89.7778 68.2565 90.0163 67.7576C90.2406 67.2882 90.417 66.7916 90.597 66.301C90.7835 65.7915 90.8499 65.2641 90.9521 64.7569C91.1437 63.8029 91.1893 62.8162 91.2491 61.8401C91.2906 61.1504 91.2565 60.4574 91.2565 59.7662Z" fill="#F1B965" style="fill:#F1B965;fill:color(display-p3 0.9451 0.7255 0.3961);fill-opacity:1;"/>
<path d="M82.9653 18.0273C83.144 18.1831 83.342 18.3417 83.523 18.5179C83.8053 18.7931 84.0728 19.0836 84.3528 19.3612C84.6351 19.6415 84.7553 19.6309 85.0597 19.3349C85.5004 18.9056 85.9453 18.4805 86.4206 18.0231C86.8663 18.4565 87.3301 18.8803 87.7616 19.3344C88.3501 19.9536 88.2599 19.8628 88.7803 19.3229C89.1736 18.9144 89.5862 18.5243 89.9947 18.1306C90.1844 17.948 90.3419 17.9609 90.5233 18.1444C91.5443 19.1781 92.5662 20.2105 93.589 21.2424C94.5773 22.2397 95.5605 23.2416 96.5571 24.2301C97.9304 25.5922 99.3161 26.9413 100.693 28.2996C101.37 28.9677 102.041 29.6413 102.707 30.3196C102.788 30.4016 102.824 30.527 102.904 30.6751C102.489 31.1039 102.065 31.5525 101.629 31.9887C100.592 33.0265 99.5468 34.0566 98.5083 35.0935C97.7204 35.8806 96.9407 36.6769 96.1518 37.4635C94.3834 39.2266 92.6118 40.9861 90.8416 42.747C90.7356 42.8525 90.6302 42.9581 90.5275 43.0665C90.271 43.3362 90.2572 43.3348 89.9905 43.0775C89.4734 42.5787 88.9525 42.083 88.3971 41.5509C87.7584 42.1692 87.1104 42.7963 86.4321 43.4533C85.8302 42.8728 85.2665 42.3292 84.7084 41.7916C84.0563 42.291 83.628 42.9706 82.9266 43.4081C82.5706 43.066 82.2312 42.7483 81.9015 42.421C80.5673 41.0972 79.2314 39.7753 77.9042 38.4442C76.5475 37.0836 75.2018 35.7119 73.8483 34.348C72.7514 33.2433 71.6503 32.1427 70.551 31.0402C70.2798 30.7682 70.2733 30.7451 70.5321 30.4805C71.4062 29.5874 72.2835 28.697 73.1631 27.809C74.0514 26.9118 74.9389 26.014 75.835 25.1246C76.8044 24.1624 77.7913 23.2176 78.7557 22.2503C79.7951 21.2078 80.8142 20.1455 81.8485 19.0974C82.1994 18.7438 82.5683 18.4067 82.9653 18.0273ZM86.4012 42.5058C86.4606 42.4731 86.5071 42.4592 86.5375 42.4293C87.4563 41.5251 88.3805 40.626 89.2887 39.7117C90.4087 38.5844 91.5084 37.4377 92.6288 36.3103C94.3567 34.5721 96.0956 32.8449 97.8267 31.1103C98.1892 30.7474 98.1873 30.7147 97.8336 30.3606C94.8785 27.4 91.9215 24.4413 88.9659 21.4812C88.2364 20.7504 87.5111 20.0154 86.7821 19.2837C86.4339 18.9347 86.4035 18.9351 86.06 19.2777C85.4659 19.8707 84.8723 20.4645 84.2801 21.0593C82.4794 22.8672 80.6793 24.6755 78.8791 26.4839C77.5629 27.8062 76.2463 29.1286 74.9306 30.4514C74.7215 30.6612 74.7183 30.8323 74.9085 31.0209C75.8746 31.9794 76.8422 32.9366 77.8028 33.9003C78.5797 34.6795 79.3437 35.4721 80.1216 36.2513C81.0933 37.2246 82.0737 38.1892 83.0486 39.1593C84.1668 40.2737 85.2835 41.39 86.4012 42.5058ZM102.036 30.6271C100.975 29.5639 99.9368 28.5278 98.9021 27.4881C97.608 26.1879 96.3172 24.8839 95.0236 23.5832C93.677 22.23 92.3373 20.8693 90.9728 19.535C90.7306 19.298 90.5436 18.9476 90.1301 18.9102C89.7193 19.3012 89.2984 19.6913 88.8917 20.0957C88.7812 20.2054 88.7333 20.346 88.883 20.4936C89.4674 21.0699 90.0403 21.6578 90.6247 22.2341C91.5029 23.0991 92.394 23.9507 93.2667 24.8208C94.2425 25.7941 95.2027 26.7836 96.1725 27.7638C97.0623 28.6629 97.9557 29.5579 98.8454 30.4565C99.0881 30.7018 99.089 30.8069 98.8555 31.0384C98.0851 31.8019 97.3054 32.5567 96.5428 33.3281C95.3399 34.5453 94.155 35.7806 92.9489 36.9946C91.6898 38.2616 90.4147 39.512 89.1468 40.7699C88.9677 40.9478 88.9557 41.129 89.1289 41.3079C89.4011 41.5892 89.6792 41.8649 89.9615 42.136C90.1931 42.3587 90.311 42.3426 90.5468 42.1047C91.1552 41.4901 91.7672 40.8801 92.3783 40.2682C93.2662 39.3797 94.1536 38.4912 95.042 37.6036C95.8189 36.8277 96.5971 36.053 97.3736 35.2766C98.3444 34.3056 99.3124 33.3322 100.284 32.3626C100.853 31.7941 101.427 31.2307 102.036 30.6271ZM84.2289 20.1667C83.8702 19.7923 83.5635 19.4649 83.2485 19.1454C83.0841 18.9785 82.9528 18.9932 82.7686 19.1726C82.2004 19.725 81.6219 20.2663 81.0652 20.8302C79.9549 21.9543 78.8653 23.0986 77.7503 24.2181C76.8707 25.1016 75.9575 25.9509 75.0752 26.8315C73.8631 28.0414 72.6662 29.2674 71.4619 30.4856C71.2436 30.7064 71.2464 30.8055 71.4656 31.025C72.6662 32.2247 73.8668 33.4245 75.0632 34.6288C75.9216 35.4928 76.7676 36.3698 77.6288 37.2311C78.6018 38.204 79.5887 39.163 80.5646 40.1331C81.3535 40.9174 82.135 41.7091 82.9625 42.5409C83.3033 42.2001 83.622 41.8811 83.9407 41.562C84.1493 41.3531 84.1507 41.1927 83.9503 40.993C82.4937 39.5434 81.0357 38.0956 79.5823 36.6432C78.5351 35.5966 77.4938 34.5439 76.4498 33.4945C75.6264 32.6664 74.8021 31.8393 73.9787 31.0112C73.7553 30.7866 73.7553 30.7078 73.986 30.4768C74.4199 30.0415 74.8583 29.6109 75.2916 29.1752C76.1781 28.2839 77.0632 27.3913 77.9479 26.4977C78.8229 25.6143 79.6933 24.7258 80.5715 23.8456C81.4391 22.976 82.3164 22.1156 83.1849 21.2474C83.5257 20.9053 83.8559 20.5526 84.2289 20.1667Z" fill="#F1B965" style="fill:#F1B965;fill:color(display-p3 0.9451 0.7255 0.3961);fill-opacity:1;"/>
<path d="M123.186 69.719C123.054 69.754 122.939 69.7849 122.814 69.8186C122.483 69.3916 122.381 68.8107 121.876 68.5363C121.466 68.8098 121.068 69.0947 120.651 69.3464C120.302 69.5562 119.906 69.6586 119.524 69.7965C118.442 70.1861 117.345 69.9956 116.254 70.0062C116.052 70.0081 115.844 69.9177 115.647 69.8467C115.35 69.7397 115.043 69.6849 114.745 69.5567C113.865 69.1777 113.144 68.6092 112.487 67.9277C111.996 67.4182 111.606 66.8299 111.299 66.213C111.077 65.7685 110.818 65.3226 110.723 64.8053C110.645 64.3825 110.448 63.9823 110.304 63.5719C110.293 63.5429 110.279 63.5143 110.275 63.4843C110.181 62.8052 110.039 62.1283 110.007 61.4464C109.959 60.4504 109.976 59.4504 109.992 58.4526C109.999 57.9823 109.976 57.5046 110.183 57.0514C110.256 56.8937 110.211 56.6862 110.244 56.5055C110.279 56.3137 110.342 56.1269 110.396 55.9393C110.417 55.866 110.457 55.7977 110.472 55.7235C110.718 54.4781 111.264 53.3586 112.008 52.3535C112.683 51.4429 113.518 50.6927 114.586 50.2298C115.141 49.9886 115.703 49.8222 116.298 49.6954C116.847 49.5787 117.386 49.5077 117.929 49.557C118.48 49.6068 119.015 49.7493 119.547 49.9448C120.215 50.1901 120.726 50.6166 121.22 51.0818C121.417 51.2667 121.563 51.2487 121.779 51.1408C122.17 50.9454 122.413 50.665 122.51 50.227C122.547 50.0546 122.709 49.9088 122.849 49.6977C122.913 49.8268 122.985 49.9029 122.977 49.9693C122.935 50.3312 122.87 50.6908 122.818 51.0519C122.789 51.2483 122.765 51.4452 122.747 51.643C122.673 52.4369 122.588 53.23 122.534 54.0253C122.5 54.5145 122.516 55.0074 122.507 55.4985C122.504 55.6631 122.493 55.8272 122.487 55.9729C122.268 56.0527 122.215 55.9522 122.212 55.8106C122.205 55.5188 122.198 55.2264 122.208 54.935C122.234 54.1918 122.056 53.5016 121.786 52.809C121.538 52.1727 121.191 51.6245 120.692 51.1814C120.187 50.7323 119.607 50.4206 118.938 50.2284C118.426 50.0813 117.926 50.0287 117.406 50.0297C116.793 50.031 116.245 50.2588 115.748 50.5806C115.025 51.0491 114.542 51.7232 114.209 52.5204C114 53.0216 113.82 53.5209 113.682 54.0512C113.416 55.0743 113.235 56.097 113.216 57.1547C113.209 57.5493 113.095 57.9413 113.062 58.3369C113.027 58.7643 113.02 59.1954 113.017 59.6247C113.013 60.1932 113.015 60.7617 113.036 61.3297C113.045 61.5722 113.124 61.8111 113.145 62.0541C113.191 62.5737 113.229 63.0947 113.251 63.6157C113.284 64.3673 113.52 65.075 113.667 65.8022C113.749 66.2079 113.915 66.5763 114.022 66.9664C114.123 67.3329 114.328 67.6838 114.546 68.0019C114.848 68.4427 115.17 68.8688 115.672 69.1307C116.022 69.3132 116.35 69.5277 116.762 69.5217C117.236 69.5152 117.726 69.5779 118.181 69.4806C118.932 69.3206 119.57 68.919 119.969 68.2302C120.307 67.6469 120.476 67.0162 120.467 66.3305C120.45 65.0861 120.463 63.8417 120.463 62.5972C120.463 62.4308 120.463 62.2643 120.463 62.0352C119.704 62.0352 118.991 62.0352 118.258 62.0352C118.258 61.8452 118.258 61.7189 118.258 61.5635C120.323 61.5635 122.358 61.5635 124.418 61.5635C124.438 61.6234 124.471 61.6898 124.483 61.7604C124.494 61.8189 124.48 61.8812 124.475 61.9927C124.08 61.9927 123.689 61.9927 123.241 61.9927C123.222 62.2288 123.193 62.4192 123.192 62.6097C123.188 64.8376 123.188 67.0655 123.188 69.293C123.186 69.4294 123.186 69.5668 123.186 69.719Z" fill="#F1B965" style="fill:#F1B965;fill:color(display-p3 0.9451 0.7255 0.3961);fill-opacity:1;"/>
<path d="M59.5178 55.5427C59.4193 55.4602 59.3346 55.4247 59.3244 55.374C59.2973 55.2403 59.2954 55.1001 59.295 54.9623C59.2922 54.2863 59.2636 53.6085 59.3014 52.9349C59.3382 52.2806 59.1886 51.6568 59.0877 51.0242C59.0232 50.6198 58.5871 50.2809 58.1432 50.2786C56.7474 50.2713 55.3515 50.2745 53.9557 50.2736C53.6969 50.2736 53.4376 50.2736 53.1912 50.2736C53.0563 50.718 53.0669 59.312 53.1995 59.6998C53.3238 59.71 53.4592 59.7298 53.5951 59.7302C54.4848 59.733 55.3745 59.7358 56.2643 59.7298C56.7639 59.7266 56.8141 59.6689 56.8151 59.1705C56.816 58.6329 56.8127 58.0948 56.8164 57.5572C56.8174 57.3912 56.8349 57.2257 56.8487 56.9896C56.9698 57.0698 57.0665 57.0989 57.0877 57.1561C57.1236 57.2529 57.119 57.3672 57.119 57.4742C57.1204 59.1949 57.1199 60.9157 57.119 62.6364C57.119 62.7282 57.1314 62.8296 57.0969 62.9084C57.0706 62.9684 56.9795 63.0002 56.8468 63.0943C56.7911 62.5617 56.8224 62.1052 56.8169 61.6506C56.8114 61.208 56.8155 60.7649 56.8155 60.3361C56.4347 60.2038 53.9442 60.1609 53.1723 60.2614C53.0761 60.5874 53.0646 68.8572 53.1696 69.2976C53.322 69.3059 53.4864 69.322 53.6504 69.322C55.0153 69.3239 56.3808 69.3252 57.7458 69.3225C58.5609 69.3206 58.8082 69.1477 59.1282 68.3791C59.3852 67.7617 59.5773 67.1291 59.604 66.4546C59.6072 66.378 59.5966 66.2923 59.6265 66.2263C59.8978 65.6311 59.8278 64.992 59.8692 64.3687C59.8867 64.1049 59.9913 63.9182 60.2528 63.766C60.2846 63.8643 60.3256 63.9316 60.3247 63.998C60.3159 64.5471 60.3666 65.0976 60.199 65.6403C60.1234 65.8847 60.1197 66.1563 60.1128 66.4158C60.088 67.368 60.0755 68.3201 60.0594 69.2727C60.0567 69.4239 60.059 69.5751 60.059 69.7711C59.8199 69.802 59.6123 69.8523 59.4041 69.8523C55.8609 69.8541 52.3176 69.8509 48.7744 69.843C48.5524 69.8426 48.3309 69.7919 48.1011 69.7637C48.1959 69.4304 48.3069 69.3386 48.6265 69.3275C48.9484 69.3165 49.2708 69.3257 49.5927 69.322C49.7438 69.3202 49.8943 69.3082 50.0104 69.3027C50.0541 69.2598 50.0661 69.2501 50.0758 69.2381C50.0855 69.2266 50.0974 69.2146 50.1002 69.2008C50.1122 69.1413 50.1301 69.0809 50.1301 69.0205C50.1311 62.8748 50.1306 56.7296 50.1288 50.5839C50.1288 50.5087 50.1108 50.4331 50.0928 50.2925C49.4481 50.2791 48.8001 50.2653 48.1338 50.2514C48.1338 50.0771 48.1338 49.9596 48.1338 49.8392C48.1831 49.8148 48.2213 49.7807 48.2623 49.7779C48.4304 49.7659 48.5989 49.7576 48.7675 49.7576C52.4028 49.7567 56.0382 49.7572 59.6735 49.7572C59.8697 49.7572 60.0659 49.7572 60.3178 49.7572C60.2975 49.9651 60.2938 50.1131 60.2667 50.2565C60.21 50.5539 60.1285 50.8471 60.0783 51.1455C59.9217 52.0805 59.8365 53.0234 59.7693 53.9696C59.7338 54.4671 59.6141 54.959 59.5178 55.5427Z" fill="#F1B965" style="fill:#F1B965;fill:color(display-p3 0.9451 0.7255 0.3961);fill-opacity:1;"/>
<path d="M135.682 69.7868C135.507 69.8098 135.329 69.8536 135.151 69.8536C131.592 69.8541 128.032 69.8495 124.473 69.8458C124.231 69.8453 123.987 69.8467 123.757 69.666C123.892 69.4225 124.088 69.3248 124.348 69.3257C124.701 69.3266 125.054 69.3294 125.407 69.322C125.852 69.3123 125.921 69.2459 125.921 68.8199C125.923 62.8416 125.924 56.8637 125.924 50.8854C125.924 50.8084 125.928 50.731 125.918 50.6553C125.88 50.3713 125.794 50.286 125.499 50.2782C125.1 50.2676 124.701 50.2763 124.302 50.2726C123.917 50.269 123.795 50.2086 123.787 50.0278C123.778 49.8346 123.902 49.7599 124.278 49.7599C128.052 49.7585 131.826 49.759 135.601 49.7604C135.691 49.7604 135.781 49.7701 135.898 49.777C135.996 50.0771 135.974 50.3838 135.873 50.6374C135.736 50.9799 135.751 51.3248 135.707 51.6711C135.663 52.0187 135.585 52.3618 135.533 52.7085C135.499 52.9349 135.475 53.1641 135.464 53.3932C135.441 53.8843 135.436 54.3762 135.41 54.8673C135.396 55.1232 135.355 55.3777 134.999 55.5354C134.981 55.3316 134.956 55.1743 134.955 55.0167C134.951 54.0793 134.934 53.1415 134.96 52.2046C134.973 51.7163 134.882 51.2552 134.69 50.8246C134.552 50.5142 134.279 50.2929 133.904 50.2814C133.582 50.2717 133.26 50.2754 132.938 50.2754C131.756 50.2749 130.575 50.2749 129.394 50.2768C129.256 50.2768 129.108 50.2611 128.985 50.3072C128.893 50.3423 128.807 50.4543 128.768 50.5521C128.73 50.6452 128.755 50.7641 128.755 50.8716C128.755 53.6071 128.755 56.3427 128.757 59.0783C128.757 59.2005 128.724 59.3549 128.784 59.4375C128.874 59.5606 129.031 59.7127 129.162 59.7155C130.218 59.7376 131.276 59.7279 132.384 59.7279C132.41 59.538 132.45 59.3784 132.452 59.218C132.461 58.6647 132.453 58.1114 132.457 57.5581C132.458 57.3935 132.478 57.2284 132.494 56.9868C132.632 57.068 132.755 57.097 132.781 57.1639C132.84 57.316 132.878 57.4866 132.879 57.6503C132.889 59.3254 132.884 61.0005 132.898 62.6751C132.9 62.9393 132.796 63.0375 132.488 63.0431C132.424 62.5908 132.463 62.1357 132.457 61.6847C132.45 61.2255 132.456 60.7663 132.456 60.32C131.966 60.166 129.143 60.1968 128.772 60.355C128.772 63.2944 128.772 66.2406 128.772 69.2358C128.956 69.2662 129.132 69.3202 129.308 69.3206C130.735 69.3275 132.162 69.3133 133.588 69.3294C134.154 69.3358 134.48 69.0541 134.726 68.5843C134.997 68.0665 135.174 67.5284 135.213 66.9456C135.214 66.9304 135.212 66.9133 135.217 66.9C135.483 66.2591 135.412 65.573 135.494 64.9072C135.54 64.5347 135.682 64.1736 135.786 63.7886C136.008 63.8633 136.005 64.0376 135.998 64.1995C135.97 64.8288 135.996 65.4683 135.888 66.0843C135.685 67.243 135.751 68.4059 135.718 69.5678C135.715 69.6249 135.698 69.684 135.682 69.7868Z" fill="#F1B965" style="fill:#F1B965;fill:color(display-p3 0.9451 0.7255 0.3961);fill-opacity:1;"/>
<path d="M101.029 49.7821C101.02 49.9619 101.014 50.0924 101.004 50.2846C100.337 50.2846 99.7015 50.2846 99.0467 50.2846C99.0328 50.4815 99.0153 50.6161 99.0153 50.7512C99.0176 54.8839 99.0163 59.017 99.0324 63.1496C99.0342 63.6047 99.1388 64.0588 99.1945 64.5134C99.2129 64.6656 99.2313 64.8178 99.2433 64.9704C99.2792 65.425 99.2599 65.8773 99.4634 66.3181C99.591 66.5947 99.6062 66.9235 99.7126 67.2278C99.9935 68.0333 100.425 68.7083 101.16 69.1454C101.48 69.3358 101.825 69.5161 102.224 69.5106C102.851 69.5023 103.486 69.5553 104.105 69.4756C104.764 69.3907 105.352 69.0684 105.864 68.6327C106.362 68.2081 106.721 67.688 107.044 67.1116C107.354 66.5602 107.426 65.9405 107.704 65.3895C107.762 65.2747 107.726 65.1161 107.75 64.9805C107.797 64.7113 107.861 64.4447 107.907 64.175C107.943 63.9643 107.984 63.7513 107.986 63.5392C107.996 62.049 108 60.5588 108.001 59.0686C108.002 56.6871 107.998 54.3057 108.004 51.9247C108.005 51.5521 107.976 51.2008 107.758 50.8794C107.528 50.5382 107.252 50.2846 106.816 50.2773C106.558 50.2726 106.299 50.2763 106.002 50.2763C106.002 50.0891 106.002 49.9499 106.002 49.7857C107.502 49.7857 108.982 49.7857 110.482 49.7857C110.482 49.9476 110.482 50.0804 110.482 50.274C110.19 50.274 109.918 50.2685 109.646 50.275C108.987 50.2906 108.513 50.7499 108.475 51.4143C108.456 51.7513 108.444 52.0897 108.444 52.4273C108.441 55.8074 108.448 59.1871 108.435 62.5672C108.434 62.9905 108.334 63.4129 108.287 63.8366C108.232 64.3488 108.329 64.8855 108.038 65.3591C108.11 65.8395 107.821 66.236 107.713 66.6736C107.621 67.0461 107.412 67.3989 107.211 67.7331C106.819 68.3837 106.322 68.9499 105.676 69.3617C105.387 69.5461 105.068 69.6715 104.741 69.7965C103.586 70.2368 102.409 70.0298 101.249 69.9661C100.665 69.9343 100.073 69.684 99.5279 69.4368C98.8132 69.1127 98.1565 68.671 97.6959 68.0052C97.4606 67.6654 97.2281 67.32 97.0342 66.9553C96.8523 66.6127 96.7229 66.242 96.5709 65.8833C96.5589 65.8552 96.5502 65.8252 96.5437 65.7957C96.4654 65.4559 96.3568 65.1198 96.3162 64.7758C96.2131 63.8956 96.074 63.0126 96.0675 62.1297C96.0404 58.3963 96.056 54.663 96.056 50.9297C96.056 50.7333 96.056 50.5373 96.056 50.2856C95.3657 50.2856 94.7297 50.2856 94.0601 50.2856C94.0601 50.0882 94.0601 49.948 94.0601 49.7816C96.3738 49.7821 98.6681 49.7821 101.029 49.7821Z" fill="#F1B965" style="fill:#F1B965;fill:color(display-p3 0.9451 0.7255 0.3961);fill-opacity:1;"/>
<path d="M40.9197 69.2372C41.1261 69.2685 41.302 69.3179 41.4784 69.3188C42.859 69.3252 44.2392 69.3275 45.6198 69.3206C46.2926 69.3174 46.6477 69.0269 46.8964 68.4169C47.1557 67.7811 47.263 67.1181 47.4112 66.4555C47.554 65.8183 47.5687 65.1852 47.6544 64.5517C47.6899 64.2903 47.8229 64.0422 47.9114 63.7882C47.9491 63.79 47.9874 63.7914 48.0251 63.7932C48.0532 63.897 48.1117 64.003 48.1048 64.104C48.0574 64.8044 48.1449 65.5112 47.9459 66.2065C47.8593 66.5085 47.8925 66.847 47.8856 67.1692C47.8704 67.9065 47.8653 68.6438 47.8538 69.381C47.852 69.5009 47.8395 69.6203 47.8294 69.7803C47.6369 69.8071 47.4596 69.8527 47.2828 69.8527C43.7243 69.8532 40.1654 69.849 36.607 69.8444C36.3942 69.844 36.1755 69.855 36 69.6637C36.1009 69.3939 36.2998 69.3128 36.5701 69.3215C36.9072 69.3326 37.2452 69.3308 37.5823 69.3183C37.744 69.3123 37.9047 69.2694 38.0733 69.2418C38.0733 62.9232 38.0733 56.6475 38.0733 50.3446C37.4212 50.1804 36.7714 50.3492 36.1045 50.2279C36.0976 50.0924 36.0907 49.9637 36.0843 49.842C36.1566 49.8065 36.1953 49.7742 36.2362 49.7705C36.3583 49.7599 36.4812 49.7572 36.6033 49.7572C38.5513 49.7567 40.4993 49.7562 42.4473 49.7576C42.5845 49.7576 42.731 49.7466 42.8558 49.7899C42.9359 49.818 43.0345 49.9365 43.034 50.014C43.0335 50.0905 42.9322 50.1947 42.8502 50.2344C42.7604 50.2777 42.6416 50.269 42.5352 50.2699C42.1364 50.274 41.7376 50.2648 41.3388 50.2759C40.9718 50.286 40.9276 50.339 40.9179 50.7162C40.9133 50.885 40.9179 51.0542 40.9179 51.2234C40.9179 57.0463 40.9184 62.8692 40.9184 68.6922C40.9197 68.8457 40.9197 68.9983 40.9197 69.2372Z" fill="#F1B965" style="fill:#F1B965;fill:color(display-p3 0.9451 0.7255 0.3961);fill-opacity:1;"/>
<path d="M96.8145 39.4738C96.6708 39.2091 96.7984 39.0118 96.9798 38.8297C97.8995 37.9043 98.8159 36.9757 99.7407 36.0554C100.63 35.1701 101.533 34.2977 102.422 33.4111C103.202 32.6323 103.97 31.8402 104.747 31.0568C105.153 30.6469 105.169 30.599 104.776 30.1932C103.991 29.384 103.192 28.5887 102.4 27.7873C101.432 26.8085 100.466 25.8273 99.4952 24.8517C98.8026 24.1559 98.1007 23.4694 97.4054 22.7768C97.2907 22.6625 97.1875 22.5366 97.0692 22.4052C97.1617 22.2779 97.2479 22.1594 97.3285 22.0488C97.6292 21.9718 97.7701 22.2162 97.9147 22.3586C98.9702 23.3997 99.999 24.469 101.048 25.517C102.076 26.5434 103.119 27.5526 104.152 28.5739C104.737 29.153 105.315 29.74 105.893 30.326C106.049 30.4837 106.042 30.6303 105.859 30.8203C105.239 31.4658 104.621 32.1141 103.989 32.7471C102.852 33.8855 101.702 35.0106 100.564 36.1471C99.5219 37.1873 98.489 38.2362 97.4505 39.2801C97.2746 39.4563 97.0931 39.6255 96.8145 39.4738Z" fill="#F1B965" style="fill:#F1B965;fill:color(display-p3 0.9451 0.7255 0.3961);fill-opacity:1;"/>
<path d="M67.1588 30.6658C68.0577 29.7686 68.9235 28.9064 69.7865 28.0423C71.6972 26.1288 73.6066 24.214 75.5168 22.3001C75.7227 22.0935 75.9221 21.8634 76.2859 22.0414C76.3365 22.241 76.3605 22.3978 76.1588 22.5942C75.3552 23.3767 74.5912 24.2006 73.7981 24.9941C72.9328 25.86 72.0449 26.7029 71.1792 27.5683C70.1978 28.549 69.2302 29.5431 68.2562 30.5307C68.0435 30.7465 68.0421 30.7968 68.2401 30.9946C70.7025 33.4595 73.1649 35.9249 75.6269 38.3902C75.8078 38.5714 75.9741 38.7711 76.1721 38.9315C76.3619 39.0855 76.3669 39.2571 76.3144 39.4761C76.08 39.5669 75.9105 39.5503 75.7121 39.3474C74.9246 38.5442 74.1053 37.7724 73.3091 36.9775C72.2577 35.9281 71.2197 34.8658 70.1715 33.8131C69.2491 32.8873 68.3189 31.9688 67.3978 31.0416C67.3057 30.9499 67.2532 30.8184 67.1588 30.6658Z" fill="#F1B965" style="fill:#F1B965;fill:color(display-p3 0.9451 0.7255 0.3961);fill-opacity:1;"/>
<path d="M86.4132 39.9805C85.7841 39.3636 85.1749 38.7716 84.572 38.1731C83.3342 36.9448 82.0958 35.7174 80.8653 34.4817C79.8429 33.4558 78.8321 32.4184 77.8139 31.3879C77.6803 31.2528 77.5316 31.1329 77.3985 30.9978C77.2516 30.8489 77.2484 30.6649 77.3916 30.5192C78.0386 29.8608 78.688 29.2042 79.3387 28.5495C79.9065 27.9787 80.4743 27.4079 81.0486 26.8435C81.9369 25.9707 82.8377 25.1099 83.7205 24.2311C84.4979 23.4574 85.2578 22.6657 86.0273 21.8842C86.1502 21.7592 86.2833 21.6449 86.4358 21.5029C86.8843 21.9367 87.3282 22.3549 87.7593 22.786C88.7407 23.7672 89.7133 24.7567 90.6933 25.7392C91.7175 26.766 92.7481 27.7864 93.7719 28.8132C94.3097 29.3531 94.8421 29.8991 95.3722 30.4464C95.608 30.6898 95.6038 30.7977 95.3703 31.031C94.0233 32.3741 92.6703 33.7117 91.3297 35.0613C90.2157 36.1826 89.1206 37.3229 88.0075 38.4451C87.494 38.9634 86.9575 39.4581 86.4132 39.9805ZM88.5431 32.3912C89.1441 33.1681 89.7276 33.9335 90.3249 34.6869C90.4593 34.8566 90.6399 34.8211 90.8213 34.6422C91.9629 33.5139 93.1082 32.3889 94.2453 31.2555C94.4207 31.0808 94.5593 30.8696 94.6736 30.7276C94.3507 30.374 94.067 30.0392 93.759 29.7294C91.4439 27.4033 89.1234 25.0827 86.8074 22.7575C86.5233 22.472 86.4671 22.372 86.0747 22.763C85.1799 23.6533 84.3068 24.5653 83.4134 25.4571C83.1932 25.677 83.0951 25.9121 83.0965 26.2215C83.1039 27.9261 83.0997 29.6307 83.0993 31.3349C83.0993 31.3962 83.0938 31.458 83.0988 31.5188C83.1223 31.8153 83.295 31.9914 83.5976 31.9951C84.2414 32.003 84.8856 32.0048 85.529 31.9951C85.925 31.9891 86.0084 31.896 86.0098 31.4953C86.013 30.6663 86.0102 29.8368 86.0098 29.0078C86.0098 28.8566 86.0098 28.7049 86.0098 28.5315C86.165 28.5066 86.2829 28.484 86.4012 28.4697C87.1206 28.3812 87.8348 28.4471 88.5546 28.4974C89.2436 28.5453 90.1084 29.301 90.0624 30.0738C90.0485 30.3034 90.0647 30.5344 90.0504 30.764C90.0154 31.3261 89.6755 31.706 89.2523 32.0149C89.0515 32.1611 88.8111 32.2515 88.5431 32.3912ZM86.4229 39.0722C87.6059 37.8734 88.742 36.7221 89.8786 35.5703C90.1038 35.3421 90.0946 35.2572 89.9044 35.0189C89.3476 34.3212 88.8051 33.6121 88.2493 32.9131C88.1332 32.7674 88.0015 32.5622 87.8482 32.5318C87.4337 32.4502 87.004 32.4585 86.5518 32.5433C86.5518 33.4655 86.5518 34.3521 86.5518 35.2701C86.3602 35.2701 86.205 35.2701 86.0033 35.2701C86.0033 34.3494 86.0033 33.4646 86.0033 32.5378C84.8516 32.4451 83.7353 32.5507 82.5978 32.4728C82.583 32.2607 82.5596 32.0795 82.5591 31.8988C82.5563 30.2555 82.5582 28.6122 82.5554 26.9694C82.555 26.8117 82.5292 26.654 82.5089 26.4235C82.3661 26.5281 82.2911 26.5696 82.2326 26.6282C80.9523 27.9054 79.6739 29.1839 78.396 30.463C78.2007 30.6585 78.2086 30.8475 78.4001 31.0375C79.8535 32.4788 81.3092 33.9183 82.7562 35.3665C83.9701 36.5824 85.1739 37.8093 86.4229 39.0722ZM86.5523 29.0304C86.5523 29.23 86.5523 29.3822 86.5523 29.5344C86.5518 30.2241 86.5523 30.9139 86.55 31.6041C86.549 31.8347 86.672 31.9472 86.888 31.9481C87.3425 31.9499 87.7846 31.9559 88.2438 31.8268C88.7798 31.6756 89.1192 31.3994 89.3725 30.9194C89.8086 30.0927 89.2141 29.2144 88.4782 29.0433C87.8763 28.9027 87.2361 28.9409 86.5523 29.0304Z" fill="#F1B965" style="fill:#F1B965;fill:color(display-p3 0.9451 0.7255 0.3961);fill-opacity:1;"/>
<path d="M60.7304 77.3401L62.3883 75.6803L64.0462 77.3401L62.3883 79L60.7304 77.3401Z" fill="#F1B965" style="fill:#F1B965;fill:color(display-p3 0.9451 0.7255 0.3961);fill-opacity:1;"/>
<path d="M109.822 77.3401L111.48 75.6803L113.138 77.3401L111.48 79L109.822 77.3401Z" fill="#F1B965" style="fill:#F1B965;fill:color(display-p3 0.9451 0.7255 0.3961);fill-opacity:1;"/>
<path d="M66.8761 78.7234V76.193H67.2917L67.9329 77.8267C67.9487 77.8652 67.9673 77.9139 67.9888 77.9727C68.0114 78.0305 68.0341 78.0905 68.0567 78.1527C68.0804 78.2139 68.1013 78.2699 68.1194 78.3209C68.1375 78.2699 68.1579 78.2139 68.1805 78.1527C68.2042 78.0905 68.2269 78.0305 68.2483 77.9727C68.271 77.9139 68.2896 77.8652 68.3043 77.8267L68.9353 76.193H69.3526V78.7234H69.0523V77.2561C69.0523 77.1655 69.0535 77.0647 69.0557 76.9538C69.058 76.8417 69.0603 76.7307 69.0625 76.6209C69.0139 76.7545 68.9692 76.8768 68.9285 76.9877C68.8878 77.0987 68.8539 77.1881 68.8268 77.2561L68.2399 78.7234H67.9888L67.3985 77.2561C67.3725 77.1915 67.3397 77.1072 67.3002 77.003C67.2606 76.8989 67.2165 76.7839 67.1679 76.6583C67.1713 76.7624 67.1735 76.8666 67.1746 76.9708C67.1769 77.0749 67.178 77.17 67.178 77.2561V78.7234H66.8761Z" fill="#F1B965" style="fill:#F1B965;fill:color(display-p3 0.9451 0.7255 0.3961);fill-opacity:1;"/>
<path d="M71.5299 78.7641C71.3071 78.7641 71.1092 78.7081 70.9362 78.596C70.7632 78.4839 70.6275 78.3299 70.5291 78.1341C70.4308 77.9371 70.3816 77.7123 70.3816 77.4599C70.3816 77.2051 70.4308 76.9798 70.5291 76.7839C70.6275 76.587 70.7632 76.4324 70.9362 76.3203C71.1092 76.2082 71.3071 76.1522 71.5299 76.1522C71.7538 76.1522 71.9517 76.2082 72.1236 76.3203C72.2966 76.4324 72.4323 76.587 72.5307 76.7839C72.629 76.9798 72.6782 77.2051 72.6782 77.4599C72.6782 77.7123 72.629 77.9371 72.5307 78.1341C72.4323 78.3299 72.2966 78.4839 72.1236 78.596C71.9517 78.7081 71.7538 78.7641 71.5299 78.7641ZM71.5299 78.4788C71.6826 78.4788 71.8228 78.4397 71.9506 78.3616C72.0783 78.2824 72.1807 78.1669 72.2576 78.0152C72.3345 77.8635 72.3729 77.6784 72.3729 77.4599C72.3729 77.2402 72.3345 77.0545 72.2576 76.9028C72.1807 76.75 72.0783 76.6345 71.9506 76.5564C71.8228 76.4771 71.6826 76.4375 71.5299 76.4375C71.3772 76.4375 71.237 76.4771 71.1092 76.5564C70.9815 76.6345 70.8791 76.75 70.8022 76.9028C70.7253 77.0545 70.6869 77.2402 70.6869 77.4599C70.6869 77.6784 70.7253 77.8635 70.8022 78.0152C70.8791 78.1669 70.9815 78.2824 71.1092 78.3616C71.237 78.4397 71.3772 78.4788 71.5299 78.4788Z" fill="#F1B965" style="fill:#F1B965;fill:color(display-p3 0.9451 0.7255 0.3961);fill-opacity:1;"/>
<path d="M74.5418 78.7641C74.3473 78.7641 74.1788 78.7296 74.0363 78.6605C73.8938 78.5903 73.7835 78.4913 73.7055 78.3633C73.6275 78.2354 73.5885 78.0837 73.5885 77.9082H73.9006C73.9006 78.0893 73.9566 78.2309 74.0685 78.3328C74.1816 78.4347 74.3393 78.4856 74.5418 78.4856C74.7261 78.4856 74.8736 78.4454 74.9845 78.365C75.0964 78.2846 75.1524 78.1765 75.1524 78.0407C75.1524 77.9354 75.1145 77.8499 75.0387 77.7842C74.963 77.7186 74.8341 77.6631 74.652 77.6178L74.3687 77.5482C74.1109 77.4848 73.9249 77.3998 73.8107 77.2934C73.6965 77.187 73.6394 77.0477 73.6394 76.8757C73.6394 76.7296 73.675 76.6028 73.7462 76.4952C73.8186 76.3866 73.9204 76.3022 74.0516 76.2422C74.1827 76.1822 74.3359 76.1522 74.5112 76.1522C74.7747 76.1522 74.9845 76.223 75.1405 76.3645C75.2977 76.5049 75.3797 76.6968 75.3865 76.9402H75.0845C75.0755 76.7817 75.019 76.6577 74.9149 76.5683C74.8109 76.4777 74.6729 76.4324 74.501 76.4324C74.3371 76.4324 74.2025 76.4726 74.0973 76.553C73.9933 76.6322 73.9413 76.7347 73.9413 76.8604C73.9413 76.9589 73.9797 77.0393 74.0566 77.1015C74.1347 77.1627 74.2653 77.2164 74.4485 77.2629L74.7351 77.3342C74.9816 77.3953 75.1637 77.4819 75.2813 77.594C75.3989 77.7061 75.4577 77.8505 75.4577 78.0271C75.4577 78.1731 75.4193 78.3016 75.3424 78.4126C75.2666 78.5235 75.1597 78.6101 75.0218 78.6724C74.885 78.7335 74.7249 78.7641 74.5418 78.7641Z" fill="#F1B965" style="fill:#F1B965;fill:color(display-p3 0.9451 0.7255 0.3961);fill-opacity:1;"/>
<path d="M77.5366 78.7641C77.3037 78.7641 77.0996 78.7086 76.9243 78.5977C76.749 78.4856 76.6122 78.3316 76.5138 78.1358C76.4166 77.9388 76.368 77.7135 76.368 77.4599C76.368 77.204 76.4166 76.9781 76.5138 76.7822C76.6111 76.5853 76.7473 76.4313 76.9226 76.3203C77.099 76.2082 77.3037 76.1522 77.5366 76.1522C77.7131 76.1522 77.8742 76.1873 78.0201 76.2575C78.1659 76.3265 78.2875 76.4256 78.3848 76.5547C78.4831 76.6826 78.5476 76.8349 78.5781 77.0115H78.266C78.2253 76.827 78.1394 76.6854 78.0082 76.5869C77.8782 76.4873 77.721 76.4375 77.5366 76.4375C77.3591 76.4375 77.2059 76.4811 77.077 76.5683C76.9481 76.6543 76.8486 76.7743 76.7784 76.9283C76.7083 77.0811 76.6733 77.2583 76.6733 77.4599C76.6733 77.6602 76.7083 77.8369 76.7784 77.9897C76.8486 78.1426 76.9481 78.2626 77.077 78.3497C77.2059 78.4358 77.3591 78.4788 77.5366 78.4788C77.7187 78.4788 77.8753 78.4296 78.0065 78.3311C78.1377 78.2326 78.2247 78.0916 78.2677 77.9082H78.5781C78.5476 78.0837 78.4837 78.2354 78.3864 78.3633C78.2892 78.4913 78.1671 78.5903 78.0201 78.6605C77.8742 78.7296 77.7131 78.7641 77.5366 78.7641Z" fill="#F1B965" style="fill:#F1B965;fill:color(display-p3 0.9451 0.7255 0.3961);fill-opacity:1;"/>
<path d="M80.652 78.7641C80.4292 78.7641 80.2313 78.7081 80.0583 78.596C79.8853 78.4839 79.7496 78.3299 79.6512 78.1341C79.5528 77.9371 79.5036 77.7123 79.5036 77.4599C79.5036 77.2051 79.5528 76.9798 79.6512 76.7839C79.7496 76.587 79.8853 76.4324 80.0583 76.3203C80.2313 76.2082 80.4292 76.1522 80.652 76.1522C80.8759 76.1522 81.0738 76.2082 81.2456 76.3203C81.4187 76.4324 81.5544 76.587 81.6527 76.7839C81.7511 76.9798 81.8003 77.2051 81.8003 77.4599C81.8003 77.7123 81.7511 77.9371 81.6527 78.1341C81.5544 78.3299 81.4187 78.4839 81.2456 78.596C81.0738 78.7081 80.8759 78.7641 80.652 78.7641ZM80.652 78.4788C80.8046 78.4788 80.9449 78.4397 81.0726 78.3616C81.2004 78.2824 81.3028 78.1669 81.3796 78.0152C81.4565 77.8635 81.495 77.6784 81.495 77.4599C81.495 77.2402 81.4565 77.0545 81.3796 76.9028C81.3028 76.75 81.2004 76.6345 81.0726 76.5564C80.9449 76.4771 80.8046 76.4375 80.652 76.4375C80.4993 76.4375 80.3591 76.4771 80.2313 76.5564C80.1035 76.6345 80.0012 76.75 79.9243 76.9028C79.8474 77.0545 79.809 77.2402 79.809 77.4599C79.809 77.6784 79.8474 77.8635 79.9243 78.0152C80.0012 78.1669 80.1035 78.2824 80.2313 78.3616C80.3591 78.4397 80.4993 78.4788 80.652 78.4788Z" fill="#F1B965" style="fill:#F1B965;fill:color(display-p3 0.9451 0.7255 0.3961);fill-opacity:1;"/>
<path d="M83.233 78.7234L82.5443 76.193H82.853L83.2618 77.7723C83.3172 77.9874 83.3676 78.2031 83.4128 78.4194C83.4343 78.3118 83.458 78.2043 83.484 78.0967C83.51 77.988 83.5372 77.8799 83.5654 77.7723L83.9827 76.193H84.3355L84.7494 77.7723C84.7777 77.8788 84.8042 77.9852 84.8291 78.0916C84.8551 78.1969 84.88 78.3028 84.9038 78.4092C84.9264 78.3028 84.9501 78.1969 84.975 78.0916C85.001 77.9852 85.0276 77.8788 85.0547 77.7723L85.4618 76.193H85.7739L85.0819 78.7234H84.7257L84.2829 77.093C84.2592 77.0059 84.2371 76.9181 84.2168 76.8298C84.1964 76.7415 84.1767 76.6537 84.1574 76.5666C84.1393 76.6537 84.1201 76.7415 84.0998 76.8298C84.0794 76.9181 84.0573 77.0059 84.0336 77.093L83.5926 78.7234H83.233Z" fill="#F1B965" style="fill:#F1B965;fill:color(display-p3 0.9451 0.7255 0.3961);fill-opacity:1;"/>
<path d="M89.2482 78.7641C89.0153 78.7641 88.8112 78.7086 88.6359 78.5977C88.4606 78.4856 88.3238 78.3316 88.2254 78.1358C88.1282 77.9388 88.0795 77.7135 88.0795 77.4599C88.0795 77.204 88.1282 76.9781 88.2254 76.7822C88.3227 76.5853 88.4589 76.4313 88.6342 76.3203C88.8106 76.2082 89.0153 76.1522 89.2482 76.1522C89.4246 76.1522 89.5858 76.1873 89.7316 76.2575C89.8775 76.3265 89.9991 76.4256 90.0963 76.5547C90.1947 76.6826 90.2592 76.8349 90.2897 77.0115H89.9776C89.9369 76.827 89.8509 76.6854 89.7198 76.5869C89.5897 76.4873 89.4325 76.4375 89.2482 76.4375C89.0707 76.4375 88.9175 76.4811 88.7886 76.5683C88.6596 76.6543 88.5601 76.7743 88.49 76.9283C88.4199 77.0811 88.3849 77.2583 88.3849 77.4599C88.3849 77.6602 88.4199 77.8369 88.49 77.9897C88.5601 78.1426 88.6596 78.2626 88.7886 78.3497C88.9175 78.4358 89.0707 78.4788 89.2482 78.4788C89.4303 78.4788 89.5869 78.4296 89.7181 78.3311C89.8492 78.2326 89.9363 78.0916 89.9793 77.9082H90.2897C90.2592 78.0837 90.1953 78.2354 90.098 78.3633C90.0008 78.4913 89.8786 78.5903 89.7316 78.6605C89.5858 78.7296 89.4246 78.7641 89.2482 78.7641Z" fill="#F1B965" style="fill:#F1B965;fill:color(display-p3 0.9451 0.7255 0.3961);fill-opacity:1;"/>
<path d="M91.0456 78.7234L91.9785 76.193H92.3245L93.2473 78.7234H92.9216L92.674 78.0135H91.6189L91.3645 78.7234H91.0456ZM91.7156 77.7418H92.5807L92.3907 77.1983C92.359 77.1089 92.3245 77.0093 92.2872 76.8994C92.251 76.7885 92.2058 76.6487 92.1515 76.48C92.0972 76.6487 92.0514 76.7885 92.0141 76.8994C91.9779 77.0093 91.9435 77.1089 91.9107 77.1983L91.7156 77.7418Z" fill="#F1B965" style="fill:#F1B965;fill:color(display-p3 0.9451 0.7255 0.3961);fill-opacity:1;"/>
<path d="M94.1575 78.7234V76.193H95.0701C95.3234 76.193 95.5224 76.2535 95.6672 76.3747C95.8119 76.4958 95.8843 76.6594 95.8843 76.8655C95.8843 77.0104 95.8481 77.127 95.7757 77.2153C95.7033 77.3036 95.6027 77.3693 95.4738 77.4123V77.4157C95.6174 77.4395 95.739 77.5 95.8385 77.5974C95.938 77.6936 95.9877 77.8323 95.9877 78.0135C95.9877 78.2297 95.9131 78.4024 95.7638 78.5315C95.6146 78.6594 95.3878 78.7234 95.0837 78.7234H94.1575ZM94.4628 78.4516H95.0837C95.2748 78.4516 95.4212 78.416 95.523 78.3446C95.6259 78.2722 95.6773 78.1658 95.6773 78.0254C95.6773 77.885 95.6276 77.7746 95.5281 77.6942C95.4286 77.6127 95.2861 77.5719 95.1006 77.5719H94.4628V78.4516ZM94.4628 77.3036H95.082C95.2391 77.3036 95.3618 77.2663 95.45 77.1915C95.5382 77.1157 95.5823 77.0132 95.5823 76.8841C95.5823 76.7551 95.5382 76.6532 95.45 76.5785C95.3618 76.5026 95.2391 76.4647 95.082 76.4647H94.4628V77.3036Z" fill="#F1B965" style="fill:#F1B965;fill:color(display-p3 0.9451 0.7255 0.3961);fill-opacity:1;"/>
<path d="M96.7843 78.7234L97.7173 76.193H98.0633L98.986 78.7234H98.6603L98.4127 78.0135H97.3577L97.1032 78.7234H96.7843ZM97.4543 77.7418H98.3194L98.1294 77.1983C98.0978 77.1089 98.0633 77.0093 98.026 76.8994C97.9898 76.7885 97.9445 76.6487 97.8903 76.48C97.836 76.6487 97.7902 76.7885 97.7529 76.8994C97.7167 77.0093 97.6822 77.1089 97.6494 77.1983L97.4543 77.7418Z" fill="#F1B965" style="fill:#F1B965;fill:color(display-p3 0.9451 0.7255 0.3961);fill-opacity:1;"/>
<path d="M99.8963 78.7234V76.193H100.834C101.098 76.193 101.306 76.262 101.46 76.4001C101.615 76.5371 101.693 76.7239 101.693 76.9606C101.693 77.1406 101.644 77.2929 101.547 77.4174C101.451 77.5419 101.32 77.6297 101.155 77.6806L101.723 78.7234H101.367L100.834 77.7299C100.826 77.7299 100.818 77.7299 100.811 77.7299H100.202V78.7234H99.8963ZM100.202 77.4582H100.827C101.003 77.4582 101.14 77.414 101.24 77.3257C101.34 77.2362 101.391 77.1145 101.391 76.9606C101.391 76.8066 101.34 76.6855 101.238 76.5971C101.137 76.5088 100.999 76.4647 100.824 76.4647H100.202V77.4582Z" fill="#F1B965" style="fill:#F1B965;fill:color(display-p3 0.9451 0.7255 0.3961);fill-opacity:1;"/>
<path d="M102.72 78.7234V76.193H104.363V76.4647H103.025V77.2917H104.265V77.5634H103.025V78.4516H104.363V78.7234H102.72Z" fill="#F1B965" style="fill:#F1B965;fill:color(display-p3 0.9451 0.7255 0.3961);fill-opacity:1;"/>
<path d="M105.194 76.4647V76.193H107.145V76.4647H106.324V78.7234H106.018V76.4647H105.194Z" fill="#F1B965" style="fill:#F1B965;fill:color(display-p3 0.9451 0.7255 0.3961);fill-opacity:1;"/>
</g>
</g>
</svg>
