<svg viewBox="0 0 17 28" fill="none" xmlns="http://www.w3.org/2000/svg">
<path id="Vector" d="M3.14792 0.270509L0.30379 8.65843C-0.536366 11.1356 0.409592 13.8781 2.60405 15.3278L6.58696 17.9588C6.64231 17.9966 7.94303 18.9097 8.09948 21.018V21.0222V27.2063H4.90626C4.68508 27.2063 4.50574 27.384 4.50574 27.6031C4.50574 27.8223 4.68508 28 4.90626 28H12.0937C12.3149 28 12.4943 27.8223 12.4943 27.6031C12.4943 27.384 12.3149 27.2063 12.0937 27.2063H8.9005L8.89954 21.047C9.05678 18.9095 10.3577 17.9966 10.4093 17.9612L14.396 15.3278C16.5904 13.8781 17.5364 11.1356 16.6962 8.65843L13.8521 0.270509C13.7973 0.108901 13.6446 0 13.4725 0H3.52752C3.35542 0 3.20268 0.108901 3.14792 0.270509ZM15.937 8.91111C16.662 11.0492 15.8457 13.4162 13.9516 14.6674L9.96304 17.3021C9.91297 17.3355 9.03859 17.9354 8.5 19.2501C7.96141 17.9354 7.08644 17.3353 7.03501 17.3008L3.04838 14.6674C1.15431 13.4162 0.338014 11.0492 1.06298 8.91111L1.95978 6.26628H15.0402L15.937 8.91111ZM13.1846 0.793701L14.7711 5.47258H2.2289L3.81539 0.793701H13.1846Z" fill="currentColor"/>
</svg>
