<svg viewBox="0 0 37 28" fill="none" xmlns="http://www.w3.org/2000/svg">
<g id="Vector">
<path d="M36.5889 0H36.3833C35.402 0 34.4609 0.391939 33.767 1.08959C33.0732 1.78725 32.6833 2.73347 32.6833 3.72011V14.8804C32.6844 15.4541 32.8175 16.0198 33.0721 16.5332C33.3267 17.0466 33.696 17.4939 34.151 17.84L33.5343 25.6935V25.7266C33.5343 27.0266 34.2784 28 35.2672 28C36.2559 28 37 27.0204 37 25.7266V0.413345C37 0.303719 36.9567 0.198583 36.8796 0.121066C36.8025 0.0435488 36.6979 0 36.5889 0ZM33.5056 14.8804V3.72011C33.5037 2.98723 33.7785 2.28094 34.2745 1.74389C34.7705 1.20684 35.4507 0.879037 36.1778 0.82669V17.7738C35.4507 17.7215 34.7705 17.3937 34.2745 16.8566C33.7785 16.3196 33.5037 15.6133 33.5056 14.8804ZM35.2672 27.1754C34.7594 27.1754 34.3607 26.545 34.3566 25.7287L34.9403 18.2885C35.3319 18.4547 35.7492 18.5513 36.1737 18.5737V25.7059C36.1778 26.5368 35.7769 27.1754 35.2672 27.1754Z" fill="currentColor"/>
<path d="M6.16667 7.64689V0.620018C6.16667 0.510392 6.12335 0.405256 6.04626 0.327739C5.96916 0.250221 5.86459 0.206673 5.75556 0.206673C5.64652 0.206673 5.54195 0.250221 5.46486 0.327739C5.38776 0.405256 5.34444 0.510392 5.34444 0.620018V7.64689C5.34444 9.50694 4.89222 10.2034 4.45439 10.8689C3.89528 11.6121 3.60521 12.525 3.63217 13.4565C3.63077 13.4674 3.63077 13.4785 3.63217 13.4895C3.63217 13.5102 3.63217 13.5309 3.63217 13.5495V13.5867L3.96928 25.708C3.96928 26.5223 3.56844 27.1547 3.05661 27.1547C2.54478 27.1547 2.146 26.5161 2.146 25.708L2.48106 13.5991V13.4957C2.48228 13.484 2.48228 13.4723 2.48106 13.4606C2.506 12.5355 2.22635 11.6281 1.68556 10.8792C1.26006 10.2138 0.822222 9.52347 0.822222 7.64689V0.620018C0.822222 0.510392 0.778909 0.405256 0.70181 0.327739C0.624712 0.250221 0.520145 0.206673 0.411111 0.206673C0.302078 0.206673 0.19751 0.250221 0.120412 0.327739C0.0433134 0.405256 0 0.510392 0 0.620018V7.64689C0 9.76528 0.528278 10.594 0.992833 11.3257C1.47117 11.9683 1.70718 12.7607 1.65883 13.5619V13.5763L1.32172 25.7225C1.32172 27.0224 2.06789 27.9959 3.05456 27.9959C4.04122 27.9959 4.78944 27.0162 4.78739 25.7039L4.45233 13.5867C4.45233 13.5867 4.45233 13.5722 4.45233 13.5639C4.43794 12.4004 4.74833 11.925 5.13889 11.3298C5.61989 10.5982 6.16667 9.76941 6.16667 7.64689Z" fill="currentColor"/>
<path d="M18.9111 0.206673C16.3498 0.206673 13.8461 0.970304 11.7165 2.401C9.58687 3.8317 7.92703 5.8652 6.94688 8.24436C5.96672 10.6235 5.71027 13.2415 6.20995 15.7672C6.70963 18.2929 7.94299 20.6129 9.75409 22.4338C11.5652 24.2548 13.8726 25.4948 16.3847 25.9972C18.8968 26.4996 21.5006 26.2418 23.8669 25.2563C26.2332 24.2708 28.2557 22.602 29.6786 20.4608C31.1016 18.3196 31.8611 15.8022 31.8611 13.227C31.8573 9.775 30.4917 6.46544 28.0639 4.02448C25.6362 1.58352 22.3445 0.210502 18.9111 0.206673ZM18.9111 25.4207C16.5125 25.4207 14.1677 24.7056 12.1733 23.3657C10.1789 22.0259 8.62443 20.1215 7.70651 17.8934C6.78859 15.6653 6.54842 13.2135 7.01637 10.8482C7.48432 8.48283 8.63938 6.31013 10.3355 4.60481C12.0316 2.89949 14.1925 1.73816 16.5451 1.26766C18.8977 0.797165 21.3362 1.03864 23.5522 1.96155C25.7683 2.88446 27.6624 4.44736 28.995 6.4526C30.3276 8.45784 31.0389 10.8154 31.0389 13.227C31.0351 16.4598 29.7561 19.5591 27.4825 21.8451C25.209 24.131 22.1264 25.4169 18.9111 25.4207Z" fill="currentColor"/>
<path d="M2.26111 6.61352C2.37014 6.61352 2.47471 6.56997 2.55181 6.49246C2.62891 6.41494 2.67222 6.3098 2.67222 6.20018V0.620018C2.67222 0.510392 2.62891 0.405256 2.55181 0.327739C2.47471 0.250221 2.37014 0.206673 2.26111 0.206673C2.15208 0.206673 2.04751 0.250221 1.97041 0.327739C1.89331 0.405256 1.85 0.510392 1.85 0.620018V6.20018C1.85 6.3098 1.89331 6.41494 1.97041 6.49246C2.04751 6.56997 2.15208 6.61352 2.26111 6.61352Z" fill="currentColor"/>
<path d="M3.90556 6.61352C4.01459 6.61352 4.11916 6.56997 4.19625 6.49246C4.27335 6.41494 4.31667 6.3098 4.31667 6.20018V0.620018C4.31667 0.510392 4.27335 0.405256 4.19625 0.327739C4.11916 0.250221 4.01459 0.206673 3.90556 0.206673C3.79652 0.206673 3.69195 0.250221 3.61486 0.327739C3.53776 0.405256 3.49444 0.510392 3.49444 0.620018V6.20018C3.49444 6.3098 3.53776 6.41494 3.61486 6.49246C3.69195 6.56997 3.79652 6.61352 3.90556 6.61352Z" fill="currentColor"/>
<path d="M18.8083 3.72011C16.9585 3.72011 15.1503 4.27162 13.6122 5.3049C12.0742 6.33818 10.8754 7.80682 10.1675 9.52511C9.45961 11.2434 9.27439 13.1341 9.63527 14.9583C9.99615 16.7824 10.8869 18.4579 12.1949 19.7731C13.5029 21.0882 15.1694 21.9838 16.9837 22.3466C18.798 22.7095 20.6785 22.5232 22.3875 21.8115C24.0965 21.0998 25.5572 19.8945 26.5849 18.3481C27.6126 16.8017 28.1611 14.9836 28.1611 13.1237C28.1584 10.6306 27.1721 8.2403 25.4187 6.47738C23.6653 4.71445 21.288 3.72284 18.8083 3.72011ZM18.8083 21.7006C17.1212 21.7006 15.4719 21.1976 14.069 20.2552C12.6662 19.3127 11.5728 17.9732 10.9271 16.406C10.2815 14.8387 10.1125 13.1142 10.4417 11.4504C10.7708 9.78668 11.5833 8.25842 12.7763 7.05892C13.9693 5.85941 15.4893 5.04254 17.1441 4.7116C18.7989 4.38066 20.5141 4.55051 22.0728 5.19968C23.6316 5.84884 24.9639 6.94817 25.9012 8.35863C26.8386 9.7691 27.3389 11.4274 27.3389 13.1237C27.3362 15.3976 26.4365 17.5776 24.8373 19.1855C23.2381 20.7934 21.0699 21.6979 18.8083 21.7006Z" fill="currentColor"/>
</g>
</svg>
