<svg width="20" height="16" viewBox="0 0 20 16" fill="none" xmlns="http://www.w3.org/2000/svg">
<path d="M11.201 0.00230805C12.7138 -0.0525754 13.812 0.875241 13.9829 2.37016C14.172 4.02274 13.54 5.66053 12.8599 7.1376C12.636 7.15162 12.2847 7.14039 12.0498 7.1404C11.5702 7.1423 11.0907 7.14093 10.6111 7.13626C11.0753 6.28145 11.7147 4.84173 11.5643 3.84714C11.5384 3.6751 11.4768 3.47656 11.3264 3.37125C11.2049 3.28617 11.055 3.2898 10.9147 3.31367C9.78255 3.50628 8.35196 5.34887 7.71125 6.25508C6.76364 7.59539 5.6366 9.49776 5.22949 11.0942C5.14108 11.4409 5.0613 11.8418 5.12647 12.1978C5.15493 12.3532 5.21837 12.512 5.35555 12.6032C5.50037 12.6995 5.68788 12.696 5.85249 12.6639C6.99089 12.4427 8.49747 10.5674 9.13102 9.62446C8.472 9.61659 7.81052 9.62935 7.15127 9.6235C7.01247 9.62223 6.86973 9.61797 6.73151 9.62106C7.01319 9.14089 7.37011 8.56584 7.67402 8.09834C8.00736 8.08268 8.43811 8.09417 8.77793 8.09417L10.8308 8.09445C11.357 8.09429 11.9618 8.07937 12.48 8.09998C11.6755 9.59276 10.7016 10.9894 9.57742 12.2626C7.86499 14.1643 5.62249 15.8472 2.96608 15.9931C2.21487 16.0343 1.40871 15.8979 0.833049 15.382C0.255006 14.8638 0.0423546 14.0974 0.00604594 13.3496C-0.143221 10.2754 2.50217 6.03206 4.53431 3.8071C6.01537 2.18553 7.98056 0.59393 10.1839 0.126703C10.521 0.0552446 10.8572 0.0190422 11.201 0.00230805Z" fill="currentColor"/>
<path d="M18.0271 5.22504C20.4254 5.2025 20.2227 7.4196 19.5653 8.99301C18.6223 11.2495 16.4414 13.8749 13.7663 13.8894C12.649 13.8989 11.7527 13.353 11.7506 12.1527C11.7476 10.427 12.9311 8.49619 14.068 7.26935C15.0751 6.1825 16.5133 5.2764 18.0271 5.22504ZM15.2679 11.8662C16.0037 11.6883 16.9494 10.2528 17.3344 9.62361C17.6712 9.07349 18.176 8.13449 18.0764 7.45889C18.045 7.24526 17.866 7.2165 17.6845 7.23642C16.8967 7.44162 15.9159 9.02535 15.5045 9.71414C15.2133 10.2019 14.782 11.0509 14.8904 11.6439C14.9257 11.8368 15.0918 11.8842 15.2679 11.8662Z" fill="currentColor"/>
</svg>
