<svg width="15" height="15" viewBox="0 0 14.8002 14.8002" fill="none" xmlns="http://www.w3.org/2000/svg">
<path d="M5.24129 11.4969C8.45068 14.7063 10.9173 15.5119 13.8248 12.6045C14.2798 12.1373 14.7054 11.5469 14.1016 10.9432L11.7481 9.14349C11.0053 8.74388 10.7152 9.02809 10.3637 9.42032C9.07884 10.8545 7.69267 10.3785 6.76437 9.42032L5.37994 8.03589C4.42178 7.10748 3.94581 5.72116 5.37994 4.43655C5.77232 4.085 6.05639 3.79482 5.65677 3.05212L3.85704 0.69861C3.25325 0.0948147 2.66288 0.520384 2.19565 0.97544C-0.711639 3.88275 0.0938479 6.34946 3.30324 9.55898L5.24129 11.4969Z" stroke="currentColor" stroke-width="0.8"/>
</svg>
