<svg width="24" height="24" viewBox="0 0 24 24" fill="none" xmlns="http://www.w3.org/2000/svg">
<path fill-rule="evenodd" clip-rule="evenodd" d="M10.9072 0.0506234C17.5081 -0.552905 23.3478 4.3097 23.9497 10.9105C24.5514 17.5112 19.688 23.3498 13.0872 23.9499C6.48854 24.5499 0.652125 19.6882 0.0503502 13.0896C-0.551377 6.49126 4.30978 0.654009 10.9072 0.0506234ZM22.8593 10.9766C22.2915 4.96093 16.9416 0.553075 10.9283 1.14704C4.95334 1.73739 0.578464 7.04674 1.1429 13.0248C1.70627 19.0029 6.9959 23.4007 12.9774 22.8634C18.9951 22.3226 23.4259 16.9923 22.8593 10.9766Z" fill="url(#paint0_linear_1026_3652)"/>
<path d="M4.36256 6.24817C5.68251 6.25157 6.27439 6.87059 7.16387 7.20101C7.26929 7.24 8.62439 6.31636 9.15917 6.24872C10.6076 6.06577 10.8448 6.61472 11.8507 7.30621C12.4514 7.12854 13.4067 6.23982 13.8427 6.23312C19.5343 6.14538 16.2026 13.3934 17.6488 16.5505C17.7938 16.8662 18.2506 17.2151 18.5339 17.4469L18.1946 16.4389C18.0441 15.9832 18.0068 15.8066 18.2089 15.4058C18.5647 15.2517 18.378 15.2893 18.7953 15.332C19.3476 15.7449 19.7759 17.763 19.9845 18.5151C19.1313 18.8717 17.3556 19.665 16.543 19.2172C16.4178 18.8243 16.4167 19.0127 16.5188 18.6323C16.8483 18.3366 17.2875 18.275 17.7323 18.1576C15.4317 16.2534 16.1916 12.5224 16.2004 9.64039C16.1652 7.1348 13.8306 6.49535 12.5172 8.59695C12.3723 11.0538 12.6007 13.5764 12.4162 16.029C12.3932 16.3311 12.3437 16.36 12.1219 16.5094C11.6959 16.5459 11.7519 16.61 11.4543 16.4333C10.8657 14.9317 12.1713 8.68041 10.6493 7.77841C5.83515 4.92437 8.42672 15.2262 7.39777 16.5269C7.06833 16.5862 7.06944 16.6088 6.75647 16.4586C6.26341 15.8171 6.59614 15.3143 6.53355 14.6101C6.3853 12.9567 7.04199 9.05114 5.9801 7.86055C5.6836 7.52803 4.62281 7.47324 4.20332 7.01773C4.15281 6.57695 4.17148 6.7085 4.36256 6.24817Z" fill="url(#paint1_linear_1026_3652)"/>
<defs>
<linearGradient id="paint0_linear_1026_3652" x1="19.2857" y1="2.14286" x2="3" y2="20.5714" gradientUnits="userSpaceOnUse">
<stop stop-color="#FFD698" style="stop-color:#FFD698;stop-color:color(display-p3 1.0000 0.8379 0.5948);stop-opacity:1;"/>
<stop offset="0.362284" stop-color="#F1B965" style="stop-color:#F1B965;stop-color:color(display-p3 0.9451 0.7255 0.3961);stop-opacity:1;"/>
<stop offset="1" stop-color="#BA8D4A" style="stop-color:#BA8D4A;stop-color:color(display-p3 0.7300 0.5534 0.2886);stop-opacity:1;"/>
</linearGradient>
<linearGradient id="paint1_linear_1026_3652" x1="19.2857" y1="2.14286" x2="3" y2="20.5714" gradientUnits="userSpaceOnUse">
<stop stop-color="#FFD698" style="stop-color:#FFD698;stop-color:color(display-p3 1.0000 0.8379 0.5948);stop-opacity:1;"/>
<stop offset="0.362284" stop-color="#F1B965" style="stop-color:#F1B965;stop-color:color(display-p3 0.9451 0.7255 0.3961);stop-opacity:1;"/>
<stop offset="1" stop-color="#BA8D4A" style="stop-color:#BA8D4A;stop-color:color(display-p3 0.7300 0.5534 0.2886);stop-opacity:1;"/>
</linearGradient>
</defs>
</svg>
