<svg preserveAspectRatio="none" width="100%" height="100%" overflow="visible" style="display: block;" viewBox="0 0 210.5 60.3473" fill="none" xmlns="http://www.w3.org/2000/svg">
<g id="&#208;&#187;&#208;&#190;&#208;&#179;&#208;&#190;">
<g id="Vector">
<path d="M65.1743 40.9074C65.1743 27.7559 65.1743 14.7352 65.1743 1.60184C64.5602 1.58562 63.9925 1.56558 63.4248 1.55699C62.8774 1.54936 62.3291 1.56272 61.7827 1.55127C60.9394 1.53409 60.8852 1.44822 61.1511 0.530368C61.3494 0.517011 61.567 0.490297 61.7856 0.490297C66.6491 0.496022 71.5126 0.504608 76.3761 0.513195C77.1827 0.514149 77.9863 0.519876 78.7416 0.872897C78.9099 0.951134 79.1159 0.954952 79.3064 0.981667C81.7386 1.32228 83.813 2.34986 85.3797 4.23041C86.0335 5.01374 86.4455 5.9564 86.8014 6.9315C87.6176 9.16412 87.3246 11.4502 87.1679 13.7076C87.1041 14.6293 86.6215 15.5748 86.1418 16.4039C85.6022 17.3342 84.9126 18.2158 83.9784 18.8159C83.1931 19.3197 82.3286 19.7013 81.522 20.1755C80.5414 20.7508 79.3499 20.7966 78.288 21.4254C78.935 21.6983 79.4824 21.9788 80.0617 22.1639C81.67 22.6781 82.9398 23.7105 83.9252 24.969C84.7753 26.0538 85.3759 27.3189 85.7888 28.6995C86.1621 29.9494 86.0925 31.2088 86.3565 32.4292C86.7163 34.096 86.5963 35.7781 86.7869 37.443C86.8971 38.4057 87.077 39.3789 87.6737 40.1861C88.3313 41.0763 89.1736 41.0877 89.8419 40.1956C90.1079 39.8407 90.3777 39.4657 90.428 38.9496C90.4947 38.2693 90.7268 37.6043 90.9086 36.9373C90.9338 36.8438 91.0991 36.7045 91.16 36.7217C91.2838 36.757 91.4773 36.8887 91.4734 36.9745C91.4395 37.8485 91.5894 38.7196 91.1804 39.585C90.8303 40.3254 90.5334 41.082 89.8477 41.5619C89.3709 41.8959 88.8294 42.2594 88.2771 42.3395C87.3952 42.4664 86.4358 42.5418 85.5886 42.329C83.8372 41.8882 82.3895 40.8864 81.5433 39.2596C81.0152 38.2454 80.6797 37.1482 80.3392 36.0433C79.9147 34.6637 79.964 33.2945 79.8344 31.9158C79.6836 30.3063 79.6023 28.6824 79.3074 27.0976C79.0404 25.6664 78.6565 24.2295 77.7494 23.0159C77.232 22.3232 76.4525 21.953 75.6556 21.8815C74.352 21.7641 73.0299 21.85 71.6122 21.85C71.5435 22.2736 71.4342 22.6352 71.4333 22.9978C71.4226 28.6242 71.4246 34.2515 71.4294 39.8779C71.4294 40.188 71.4729 40.499 71.5058 40.9379C72.1625 40.9522 72.7601 40.9675 73.3568 40.9761C73.8075 40.9828 74.2601 40.9608 74.7088 40.9885C75.3084 41.0247 75.5106 41.2194 75.6469 41.8806C75.2726 41.9397 74.9022 42.0485 74.5309 42.0495C70.3434 42.0609 66.1568 42.0609 61.9693 42.0485C61.6386 42.0476 61.3078 41.9302 60.9713 41.8663C60.9838 41.2022 61.272 40.9723 61.8204 40.9799C62.5612 40.9904 63.302 40.9856 64.0428 40.9751C64.3899 40.9675 64.7371 40.9332 65.1743 40.9074ZM71.6354 1.60088C71.3482 2.53305 71.3317 19.7786 71.6064 20.6516C73.4642 20.6516 75.3249 20.6535 77.1856 20.6468C77.3084 20.6468 77.4409 20.5972 77.5521 20.5381C79.0172 19.7633 79.8983 18.5096 80.3915 16.9955C80.6342 16.2513 80.8151 15.4565 80.8363 14.6789C80.8953 12.5531 80.8779 10.4245 80.8392 8.29874C80.8305 7.80833 80.5346 7.32555 80.5075 6.83227C80.4427 5.63677 79.9582 4.59774 79.3354 3.6255C78.643 2.54545 77.5821 1.78503 76.3335 1.64286C74.7823 1.46635 73.1934 1.60088 71.6354 1.60088Z" fill="#F1B965" style="fill:#F1B965;fill:color(display-p3 0.9451 0.7255 0.3961);fill-opacity:1;"/>
<path d="M122.398 20.9541C122.398 22.5436 122.413 24.1332 122.391 25.7218C122.381 26.5108 122.405 27.3075 121.983 28.0431C121.852 28.2721 121.892 28.6013 121.871 28.8865C121.829 29.4561 121.744 29.9885 121.478 30.5295C121.165 31.165 121.051 31.8939 120.853 32.5837C120.63 33.3575 120.289 34.0712 119.907 34.7868C119.569 35.4184 119.227 36.0386 118.845 36.6463C118.085 37.8542 117.082 38.8379 116.009 39.7567C114.924 40.6841 113.641 41.3615 112.305 41.7537C111.169 42.0867 110.022 42.5561 108.755 42.4569C107.571 42.3634 106.373 42.4492 105.181 42.4273C104.414 42.4139 103.668 42.3853 102.934 42.0132C102.363 41.7231 101.677 41.7203 101.043 41.4465C99.3776 40.728 97.9317 39.7634 96.6987 38.461C95.5469 37.2445 94.6127 35.8926 93.987 34.3383C93.5228 33.1848 93.0392 32.0389 92.5663 30.8883C92.5421 30.831 92.5402 30.7642 92.5296 30.7013C92.3245 29.4256 92.1949 28.1318 91.9 26.8762C91.1785 23.7973 91.5673 20.684 91.4832 17.5851C91.46 16.7083 91.7385 15.904 91.8864 15.0672C92.1118 13.7963 92.2559 12.5083 92.547 11.2527C92.7201 10.5085 93.0914 9.80528 93.4048 9.09637C93.7848 8.23863 94.1272 7.35321 94.6098 6.55271C95.5972 4.91355 96.7857 3.43659 98.513 2.47007C99.2509 2.05694 99.9375 1.52932 100.713 1.21255C101.554 0.869074 102.468 0.702107 103.355 0.475028C103.847 0.349086 104.345 0.210739 104.847 0.163987C106.478 0.0113295 108.113 -0.17186 109.725 0.318553C109.908 0.373891 110.099 0.416825 110.288 0.431137C112.74 0.624822 114.786 1.72682 116.657 3.21142C118.213 4.44604 119.335 6.04799 120.184 7.78447C120.693 8.82827 121.068 9.96938 121.427 11.1C121.783 12.2192 121.695 13.4299 122.269 14.4842C122.381 14.6913 122.351 14.9823 122.36 15.2351C122.424 17.1414 122.482 19.0477 122.541 20.955C122.497 20.9531 122.448 20.9541 122.398 20.9541ZM116.039 21.1993C116.054 18.1557 116.123 15.1101 115.583 12.0923C115.362 10.851 115.192 9.6011 114.998 8.35598C114.993 8.32545 114.982 8.29396 114.967 8.26629C114.405 7.19292 114.17 6.00219 113.588 4.91641C112.553 2.98625 111.034 1.61805 108.96 1.16008C107.481 0.832819 105.887 0.802287 104.329 1.4215C102.399 2.18861 101.172 3.50051 100.301 5.30092C100.041 5.83808 99.8475 6.37907 99.6551 6.93245C99.2953 7.96861 98.9037 8.99047 98.7983 10.0982C98.7354 10.7537 98.5604 11.3996 98.4414 12.0503C98.3901 12.3308 98.3263 12.6123 98.3157 12.8947C98.2267 15.4021 98.1232 17.9095 98.0787 20.4169C98.0575 21.621 98.1387 22.8279 98.2016 24.032C98.3283 26.4287 98.0139 28.8484 98.7209 31.2203C98.9675 32.0475 98.9646 32.9406 99.1938 33.8088C99.6019 35.3506 100.122 36.8181 100.92 38.1968C102.283 40.5505 104.482 41.5037 107.081 41.7756C107.292 41.7976 107.519 41.7069 107.734 41.6554C108.015 41.5886 108.288 41.4589 108.571 41.4436C109.595 41.3873 110.442 40.9141 111.214 40.3263C112.134 39.625 112.933 38.7683 113.434 37.7359C113.905 36.7646 114.276 35.737 114.654 34.7219C115.045 33.6676 115.185 32.5761 115.399 31.5266C115.802 29.5525 115.897 27.5107 116.023 25.4909C116.11 24.0635 116.039 22.6295 116.039 21.1993Z" fill="#F1B965" style="fill:#F1B965;fill:color(display-p3 0.9451 0.7255 0.3961);fill-opacity:1;"/>
<path d="M183.091 41.7947C182.814 41.8672 182.573 41.9311 182.309 42.0008C181.613 41.1173 181.401 39.9151 180.34 39.3474C179.478 39.9132 178.643 40.5028 177.766 41.0238C177.034 41.4579 176.202 41.6697 175.4 41.955C173.129 42.7612 170.825 42.3672 168.532 42.3891C168.109 42.3929 167.673 42.2059 167.26 42.059C166.636 41.8376 165.991 41.7241 165.365 41.4589C163.517 40.6746 162.002 39.4982 160.623 38.088C159.593 37.0337 158.773 35.8163 158.127 34.5396C157.662 33.6199 157.118 32.6973 156.918 31.6267C156.754 30.7518 156.34 29.9237 156.038 29.0745C156.016 29.0144 155.986 28.9552 155.978 28.8932C155.78 27.4878 155.482 26.0872 155.414 24.676C155.313 22.6152 155.349 20.5457 155.383 18.481C155.398 17.5078 155.349 16.5193 155.785 15.5815C155.937 15.2551 155.843 14.8258 155.913 14.4518C155.986 14.0549 156.118 13.6685 156.231 13.2801C156.275 13.1284 156.361 12.9872 156.391 12.8336C156.908 10.2566 158.054 7.93999 159.618 5.86002C161.035 3.97566 162.788 2.42332 165.03 1.46539C166.197 0.96639 167.377 0.621953 168.626 0.359573C169.778 0.118183 170.911 -0.0287501 172.052 0.0733397C173.208 0.176384 174.331 0.471207 175.449 0.87575C176.851 1.38334 177.924 2.26589 178.962 3.22859C179.375 3.61118 179.683 3.57398 180.137 3.35071C180.958 2.94617 181.468 2.36607 181.67 1.45967C181.75 1.10283 182.088 0.801325 182.382 0.364342C182.517 0.631493 182.668 0.788923 182.652 0.926315C182.563 1.67529 182.428 2.4195 182.317 3.16657C182.257 3.57302 182.207 3.98042 182.168 4.38974C182.013 6.03271 181.836 7.67379 181.722 9.31963C181.651 10.3319 181.684 11.3519 181.666 12.368C181.659 12.7086 181.636 13.0483 181.622 13.3498C181.164 13.5149 181.051 13.3069 181.045 13.0139C181.03 12.41 181.016 11.8051 181.037 11.2021C181.092 9.66406 180.718 8.23576 180.151 6.80269C179.631 5.48601 178.901 4.35157 177.854 3.43467C176.793 2.50537 175.576 1.86039 174.171 1.46252C173.094 1.15816 172.045 1.0494 170.953 1.0513C169.665 1.05417 168.514 1.5255 167.471 2.19147C165.953 3.16084 164.938 4.55575 164.239 6.20541C163.8 7.24253 163.422 8.27583 163.132 9.37306C162.573 11.4902 162.193 13.6065 162.153 15.7952C162.139 16.6119 161.899 17.4229 161.83 18.2415C161.756 19.126 161.741 20.0181 161.736 20.9064C161.728 22.0828 161.731 23.2592 161.775 24.4347C161.795 24.9365 161.961 25.4307 162.005 25.9336C162.1 27.0088 162.181 28.087 162.228 29.1651C162.296 30.7203 162.792 32.1849 163.101 33.6895C163.273 34.5292 163.621 35.2915 163.847 36.0987C164.059 36.8572 164.489 37.5833 164.946 38.2416C165.58 39.1537 166.257 40.0353 167.311 40.5773C168.047 40.9551 168.735 41.3988 169.6 41.3863C170.596 41.373 171.624 41.5027 172.581 41.3014C174.158 40.9704 175.497 40.1393 176.336 38.7139C177.046 37.5069 177.401 36.2017 177.381 34.7829C177.346 32.2078 177.372 29.6326 177.373 27.0575C177.373 26.7131 177.373 26.3686 177.373 25.8944C175.778 25.8944 174.282 25.8944 172.742 25.8944C172.742 25.5013 172.742 25.2399 172.742 24.9184C177.079 24.9184 181.351 24.9184 185.677 24.9184C185.721 25.0424 185.789 25.1798 185.815 25.3258C185.837 25.447 185.809 25.5758 185.798 25.8067C184.967 25.8067 184.146 25.8067 183.207 25.8067C183.165 26.2952 183.105 26.6892 183.104 27.0833C183.095 31.6935 183.096 36.3038 183.095 40.9131C183.091 41.1955 183.091 41.4798 183.091 41.7947Z" fill="#F1B965" style="fill:#F1B965;fill:color(display-p3 0.9451 0.7255 0.3961);fill-opacity:1;"/>
<path d="M49.3875 12.4596C49.1805 12.2888 49.0026 12.2154 48.9813 12.1104C48.9242 11.8337 48.9204 11.5437 48.9194 11.2584C48.9136 9.85966 48.8536 8.45712 48.9329 7.06317C49.0103 5.70928 48.696 4.41837 48.4842 3.10933C48.3488 2.27258 47.433 1.57131 46.5007 1.56654C43.5694 1.55127 40.6382 1.55795 37.7069 1.55604C37.1634 1.55604 36.6189 1.55604 36.1015 1.55604C35.8182 2.4758 35.8404 20.2595 36.119 21.0619C36.3801 21.0829 36.6644 21.1239 36.9497 21.1249C38.8181 21.1306 40.6865 21.1363 42.555 21.1239C43.6043 21.1172 43.7097 20.998 43.7116 19.9666C43.7135 18.8541 43.7068 17.7406 43.7145 16.6281C43.7164 16.2846 43.7532 15.9421 43.7822 15.4536C44.0365 15.6196 44.2396 15.6797 44.2841 15.7981C44.3596 15.9984 44.3499 16.235 44.3499 16.4564C44.3528 20.0171 44.3518 23.5779 44.3499 27.1386C44.3499 27.3285 44.376 27.5384 44.3035 27.7015C44.2483 27.8256 44.0569 27.8914 43.7783 28.086C43.6613 26.9841 43.7271 26.0395 43.7155 25.0987C43.7039 24.1828 43.7126 23.2659 43.7126 22.3786C42.9128 22.1047 37.6827 22.016 36.0619 22.224C35.8598 22.8985 35.8356 40.0115 36.0561 40.9227C36.3762 40.9398 36.7215 40.9732 37.0657 40.9732C39.9322 40.977 42.7996 40.9799 45.6661 40.9742C47.3779 40.9704 47.8972 40.6126 48.5693 39.0221C49.109 37.7445 49.5122 36.4355 49.5683 35.0396C49.5751 34.8812 49.5529 34.7038 49.6157 34.5673C50.1853 33.3356 50.0383 32.0132 50.1254 30.7232C50.1621 30.1775 50.3816 29.791 50.931 29.4762C50.9977 29.6794 51.0838 29.8187 51.0818 29.9561C51.0635 31.0924 51.1698 32.2317 50.8178 33.3546C50.6592 33.8603 50.6515 34.4223 50.637 34.9595C50.5847 36.9297 50.5586 38.8999 50.5248 40.8711C50.519 41.1841 50.5238 41.497 50.5238 41.9025C50.0219 41.9665 49.5857 42.0704 49.1486 42.0704C41.7078 42.0743 34.267 42.0676 26.8262 42.0514C26.36 42.0504 25.8948 41.9455 25.4123 41.8873C25.6115 41.1974 25.8446 41.0076 26.5157 40.9847C27.1917 40.9618 27.8687 40.9809 28.5447 40.9732C28.8619 40.9694 29.1781 40.9446 29.4218 40.9332C29.5137 40.8444 29.5389 40.8244 29.5592 40.7996C29.5795 40.7757 29.6046 40.7509 29.6104 40.7223C29.6356 40.5992 29.6733 40.4742 29.6733 40.3492C29.6752 27.6319 29.6742 14.9155 29.6704 2.19816C29.6704 2.04264 29.6327 1.88616 29.5949 1.59516C28.241 1.56749 26.8803 1.53887 25.4809 1.51024C25.4809 1.14959 25.4809 0.90629 25.4809 0.657267C25.5844 0.606699 25.6647 0.536093 25.7507 0.530368C26.1037 0.505561 26.4577 0.488393 26.8117 0.488393C34.4459 0.486485 42.0801 0.487438 49.7144 0.487438C50.1263 0.487438 50.5383 0.487438 51.0673 0.487438C51.0248 0.917742 51.017 1.22401 50.96 1.52074C50.841 2.13614 50.6698 2.74295 50.5644 3.36026C50.2356 5.2952 50.0567 7.24636 49.9155 9.20419C49.841 10.2337 49.5896 11.2517 49.3875 12.4596Z" fill="#F1B965" style="fill:#F1B965;fill:color(display-p3 0.9451 0.7255 0.3961);fill-opacity:1;"/>
<path d="M209.331 41.935C208.964 41.9827 208.591 42.0733 208.218 42.0733C200.742 42.0743 193.268 42.0647 185.793 42.0571C185.284 42.0561 184.772 42.059 184.29 41.685C184.574 41.1812 184.986 40.9789 185.531 40.9809C186.272 40.9828 187.014 40.9885 187.754 40.9732C188.689 40.9532 188.835 40.8158 188.835 39.9342C188.838 27.5632 188.839 15.1931 188.84 2.82214C188.84 2.6628 188.848 2.50251 188.827 2.34604C188.748 1.75831 188.568 1.5818 187.948 1.56558C187.11 1.54363 186.273 1.56176 185.434 1.55413C184.626 1.54649 184.37 1.42151 184.353 1.04749C184.335 0.647722 184.595 0.493157 185.383 0.493157C193.309 0.490294 201.236 0.491249 209.162 0.494112C209.351 0.494112 209.54 0.514147 209.787 0.528458C209.991 1.14958 209.945 1.78407 209.733 2.30883C209.446 3.01773 209.477 3.73141 209.384 4.44795C209.292 5.16735 209.128 5.8772 209.02 6.5947C208.948 7.06316 208.897 7.53736 208.875 8.01155C208.825 9.02768 208.815 10.0457 208.761 11.0618C208.733 11.5914 208.645 12.118 207.899 12.4443C207.86 12.0226 207.807 11.6973 207.805 11.371C207.796 9.43127 207.762 7.4906 207.816 5.55185C207.844 4.54144 207.651 3.58733 207.249 2.6962C206.959 2.05408 206.386 1.59611 205.599 1.57226C204.923 1.55222 204.246 1.55985 203.569 1.55985C201.089 1.5589 198.607 1.55889 196.126 1.56271C195.837 1.56271 195.526 1.53027 195.268 1.62569C195.074 1.6982 194.894 1.93005 194.812 2.13232C194.734 2.32505 194.786 2.57121 194.786 2.79352C194.786 8.45426 194.786 14.115 194.789 19.7757C194.789 20.0286 194.72 20.3482 194.846 20.519C195.035 20.7737 195.364 21.0886 195.64 21.0943C197.859 21.1401 200.079 21.1201 202.406 21.1201C202.462 20.727 202.545 20.3969 202.55 20.0648C202.567 18.9199 202.552 17.775 202.56 16.63C202.562 16.2894 202.603 15.9478 202.638 15.4479C202.927 15.6158 203.185 15.6759 203.239 15.8143C203.364 16.1291 203.444 16.4821 203.446 16.8209C203.467 20.2871 203.457 23.7534 203.485 27.2188C203.49 27.7655 203.272 27.9687 202.624 27.9801C202.491 27.0441 202.573 26.1024 202.56 25.1693C202.545 24.219 202.557 23.2687 202.557 22.3452C201.528 22.0265 195.599 22.0904 194.822 22.4177C194.822 28.5001 194.822 34.5969 194.822 40.7948C195.207 40.8578 195.576 40.9694 195.947 40.9703C198.943 40.9847 201.94 40.9551 204.936 40.9885C206.123 41.0018 206.807 40.4189 207.324 39.4466C207.894 38.3752 208.264 37.2617 208.347 36.0557C208.349 36.0242 208.345 35.9889 208.356 35.9613C208.915 34.6351 208.764 33.2153 208.938 31.8376C209.034 31.0667 209.332 30.3196 209.551 29.5229C210.017 29.6775 210.01 30.0382 209.996 30.373C209.938 31.6754 209.993 32.9988 209.765 34.2734C209.338 36.6711 209.476 39.0774 209.409 41.4818C209.402 41.6001 209.366 41.7222 209.331 41.935Z" fill="#F1B965" style="fill:#F1B965;fill:color(display-p3 0.9451 0.7255 0.3961);fill-opacity:1;"/>
<path d="M136.561 0.538958C136.543 0.911061 136.529 1.18108 136.509 1.57894C135.108 1.57894 133.773 1.57894 132.398 1.57894C132.369 1.98635 132.332 2.26495 132.332 2.5445C132.337 11.0962 132.334 19.6488 132.368 28.2005C132.372 29.1422 132.591 30.082 132.708 31.0228C132.747 31.3377 132.786 31.6525 132.811 31.9683C132.886 32.9091 132.846 33.8451 133.273 34.7572C133.541 35.3297 133.573 36.0099 133.796 36.6397C134.386 38.3065 135.292 39.7033 136.836 40.6078C137.507 41.0019 138.232 41.3749 139.07 41.3634C140.388 41.3463 141.721 41.456 143.02 41.291C144.403 41.1154 145.639 40.4485 146.714 39.5468C147.76 38.6681 148.514 37.5919 149.193 36.3992C149.842 35.2581 149.995 33.9758 150.578 32.8356C150.699 32.598 150.625 32.2698 150.674 31.9893C150.773 31.4321 150.907 30.8806 151.004 30.3225C151.079 29.8864 151.166 29.4457 151.17 29.0068C151.192 25.9231 151.199 22.8394 151.201 19.7557C151.205 14.8277 151.196 9.89974 151.209 4.97271C151.211 4.20179 151.149 3.47476 150.692 2.80974C150.208 2.1037 149.629 1.57894 148.714 1.56367C148.171 1.55413 147.629 1.56177 147.004 1.56177C147.004 1.1744 147.004 0.886256 147.004 0.546592C150.155 0.546592 153.262 0.546592 156.412 0.546592C156.412 0.881485 156.412 1.15627 156.412 1.55699C155.799 1.55699 155.227 1.54554 154.656 1.5589C153.272 1.59134 152.278 2.54164 152.198 3.91651C152.159 4.61397 152.132 5.31428 152.132 6.01269C152.127 13.0073 152.14 20.0009 152.114 26.9955C152.111 27.8714 151.9 28.7453 151.804 29.6222C151.687 30.6822 151.891 31.7928 151.28 32.7726C151.43 33.7668 150.824 34.5874 150.597 35.4928C150.403 36.2637 149.966 36.9936 149.543 37.6854C148.72 39.0316 147.676 40.2033 146.32 41.0553C145.713 41.4369 145.042 41.6964 144.355 41.955C141.932 42.8662 139.459 42.4378 137.023 42.3061C135.797 42.2403 134.554 41.7222 133.409 41.2108C131.908 40.5401 130.529 39.626 129.561 38.2483C129.067 37.5451 128.579 36.8305 128.172 36.0758C127.79 35.3669 127.518 34.5998 127.199 33.8575C127.174 33.7993 127.155 33.7372 127.142 33.6762C126.977 32.973 126.749 32.2775 126.664 31.5657C126.447 29.7443 126.155 27.9172 126.142 26.09C126.085 18.3646 126.118 10.6392 126.118 2.91374C126.118 2.50729 126.118 2.10179 126.118 1.58085C124.668 1.58085 123.332 1.58085 121.926 1.58085C121.926 1.17249 121.926 0.882437 121.926 0.538003C126.785 0.538957 131.603 0.538958 136.561 0.538958Z" fill="#F1B965" style="fill:#F1B965;fill:color(display-p3 0.9451 0.7255 0.3961);fill-opacity:1;"/>
<path d="M10.3315 40.7977C10.7647 40.8625 11.1341 40.9646 11.5045 40.9665C14.4039 40.9799 17.3023 40.9847 20.2016 40.9703C21.6145 40.9637 22.3602 40.3626 22.8824 39.1003C23.4269 37.7846 23.6522 36.4126 23.9636 35.0415C24.2634 33.7229 24.2944 32.4129 24.4742 31.102C24.5487 30.561 24.8282 30.0477 25.0139 29.522C25.0932 29.5258 25.1734 29.5287 25.2527 29.5325C25.3117 29.7471 25.4346 29.9666 25.42 30.1755C25.3204 31.6248 25.5042 33.0875 25.0864 34.5263C24.9046 35.1512 24.9742 35.8516 24.9597 36.5185C24.9278 38.0441 24.9172 39.5697 24.893 41.0953C24.8891 41.3434 24.863 41.5905 24.8417 41.9216C24.4375 41.9769 24.0652 42.0714 23.6938 42.0714C16.2211 42.0723 8.74736 42.0638 1.27463 42.0542C0.827832 42.0533 0.368463 42.0762 0 41.6802C0.211793 41.1221 0.629578 40.9541 1.19726 40.9723C1.90517 40.9952 2.61502 40.9913 3.32293 40.9656C3.66238 40.9532 3.9999 40.8644 4.35385 40.8072C4.35385 27.7321 4.35385 14.7457 4.35385 1.70297C2.98445 1.3633 1.61988 1.71251 0.21953 1.46158C0.205024 1.18107 0.190517 0.914871 0.176978 0.662985C0.328812 0.589519 0.410048 0.522732 0.496119 0.515099C0.752399 0.493155 1.01061 0.487432 1.26689 0.487432C5.3577 0.486478 9.4485 0.485525 13.5393 0.488387C13.8275 0.488387 14.135 0.465484 14.3971 0.55517C14.5654 0.613371 14.7723 0.858582 14.7714 1.01887C14.7704 1.17726 14.5577 1.39288 14.3855 1.47493C14.1969 1.56462 13.9474 1.54649 13.724 1.5484C12.8865 1.55699 12.049 1.53791 11.2115 1.56081C10.4407 1.5818 10.3479 1.69152 10.3276 2.47198C10.3179 2.82119 10.3276 3.17134 10.3276 3.5215C10.3276 15.571 10.3286 27.6204 10.3286 39.6699C10.3315 39.9876 10.3315 40.3034 10.3315 40.7977Z" fill="#F1B965" style="fill:#F1B965;fill:color(display-p3 0.9451 0.7255 0.3961);fill-opacity:1;"/>
<path d="M51.9339 56.5652L55.4154 53.1304L58.8969 56.5652L55.4154 60L51.9339 56.5652Z" fill="#F1B965" style="fill:#F1B965;fill:color(display-p3 0.9451 0.7255 0.3961);fill-opacity:1;"/>
<path d="M155.026 56.5652L158.508 53.1304L161.989 56.5652L158.508 60L155.026 56.5652Z" fill="#F1B965" style="fill:#F1B965;fill:color(display-p3 0.9451 0.7255 0.3961);fill-opacity:1;"/>
<path d="M64.8398 59.4275V54.1913H65.7125L67.059 57.572C67.0922 57.6517 67.1314 57.7524 67.1765 57.8742C67.224 57.9937 67.2715 58.1179 67.319 58.2467C67.3689 58.3733 67.4128 58.4892 67.4508 58.5947C67.4888 58.4892 67.5315 58.3733 67.579 58.2467C67.6289 58.1179 67.6764 57.9937 67.7215 57.8742C67.769 57.7524 67.8082 57.6517 67.8391 57.572L69.1641 54.1913H70.0404V59.4275H69.4099V56.3912C69.4099 56.2038 69.4123 55.9953 69.4171 55.7657C69.4218 55.5338 69.4265 55.3042 69.4313 55.0769C69.3292 55.3534 69.2354 55.6064 69.1499 55.836C69.0644 56.0656 68.9932 56.2507 68.9362 56.3912L67.7037 59.4275H67.1765L65.9369 56.3912C65.8823 56.2577 65.8135 56.0832 65.7303 55.8676C65.6472 55.6521 65.5546 55.4143 65.4525 55.1542C65.4596 55.3698 65.4644 55.5853 65.4668 55.8008C65.4715 56.0164 65.4739 56.2132 65.4739 56.3912V59.4275H64.8398Z" fill="#F1B965" style="fill:#F1B965;fill:color(display-p3 0.9451 0.7255 0.3961);fill-opacity:1;"/>
<path d="M74.6128 59.5119C74.145 59.5119 73.7294 59.3959 73.3661 59.164C73.0027 58.932 72.7178 58.6134 72.5112 58.2081C72.3046 57.8004 72.2013 57.3354 72.2013 56.813C72.2013 56.2858 72.3046 55.8196 72.5112 55.4143C72.7178 55.0066 73.0027 54.6868 73.3661 54.4549C73.7294 54.223 74.145 54.107 74.6128 54.107C75.083 54.107 75.4985 54.223 75.8595 54.4549C76.2228 54.6868 76.5078 55.0066 76.7144 55.4143C76.921 55.8196 77.0243 56.2858 77.0243 56.813C77.0243 57.3354 76.921 57.8004 76.7144 58.2081C76.5078 58.6134 76.2228 58.932 75.8595 59.164C75.4985 59.3959 75.083 59.5119 74.6128 59.5119ZM74.6128 58.9215C74.9334 58.9215 75.2278 58.8407 75.4962 58.679C75.7645 58.515 75.9794 58.276 76.1409 57.9621C76.3024 57.6482 76.3831 57.2651 76.3831 56.813C76.3831 56.3584 76.3024 55.9742 76.1409 55.6603C75.9794 55.344 75.7645 55.105 75.4962 54.9434C75.2278 54.7794 74.9334 54.6974 74.6128 54.6974C74.2922 54.6974 73.9977 54.7794 73.7294 54.9434C73.4611 55.105 73.2461 55.344 73.0847 55.6603C72.9232 55.9742 72.8425 56.3584 72.8425 56.813C72.8425 57.2651 72.9232 57.6482 73.0847 57.9621C73.2461 58.276 73.4611 58.515 73.7294 58.679C73.9977 58.8407 74.2922 58.9215 74.6128 58.9215Z" fill="#F1B965" style="fill:#F1B965;fill:color(display-p3 0.9451 0.7255 0.3961);fill-opacity:1;"/>
<path d="M80.9377 59.5119C80.5292 59.5119 80.1754 59.4404 79.8762 59.2975C79.577 59.1522 79.3454 58.9473 79.1816 58.6825C79.0177 58.4178 78.9358 58.1038 78.9358 57.7407H79.5912C79.5912 58.1156 79.7088 58.4084 79.9439 58.6193C80.1813 58.8301 80.5126 58.9355 80.9377 58.9355C81.3248 58.9355 81.6347 58.8524 81.8674 58.686C82.1025 58.5197 82.22 58.296 82.22 58.0148C82.22 57.7969 82.1405 57.6201 81.9814 57.4842C81.8223 57.3483 81.5515 57.2335 81.1692 57.1398L80.5743 56.9957C80.0329 56.8645 79.6423 56.6888 79.4024 56.4686C79.1626 56.2483 79.0427 55.9602 79.0427 55.6041C79.0427 55.3018 79.1175 55.0394 79.2671 54.8169C79.4191 54.592 79.6328 54.4174 79.9083 54.2933C80.1837 54.1691 80.5055 54.107 80.8736 54.107C81.4269 54.107 81.8674 54.2534 82.1951 54.5463C82.5252 54.8368 82.6973 55.2339 82.7116 55.7376H82.0775C82.0585 55.4096 81.9398 55.1531 81.7213 54.968C81.5029 54.7806 81.2131 54.6869 80.8522 54.6869C80.5079 54.6869 80.2253 54.77 80.0044 54.9364C79.786 55.1004 79.6767 55.3124 79.6767 55.5724C79.6767 55.7763 79.7575 55.9426 79.9189 56.0715C80.0828 56.198 80.3571 56.3092 80.7418 56.4053L81.3438 56.5529C81.8614 56.6794 82.2438 56.8586 82.4907 57.0906C82.7377 57.3225 82.8612 57.6212 82.8612 57.9867C82.8612 58.2889 82.7804 58.5548 82.619 58.7844C82.4599 59.014 82.2355 59.1933 81.9457 59.3221C81.6584 59.4486 81.3224 59.5119 80.9377 59.5119Z" fill="#F1B965" style="fill:#F1B965;fill:color(display-p3 0.9451 0.7255 0.3961);fill-opacity:1;"/>
<path d="M87.227 59.5119C86.7378 59.5119 86.3091 59.3971 85.9411 59.1675C85.573 58.9355 85.2856 58.6169 85.079 58.2116C84.8748 57.804 84.7727 57.3377 84.7727 56.813C84.7727 56.2835 84.8748 55.8161 85.079 55.4108C85.2833 55.0031 85.5694 54.6845 85.9375 54.4549C86.308 54.223 86.7378 54.107 87.227 54.107C87.5974 54.107 87.9358 54.1796 88.2421 54.3249C88.5485 54.4678 88.8038 54.6728 89.008 54.9399C89.2146 55.2046 89.3499 55.5197 89.414 55.8852H88.7586C88.6731 55.5033 88.4927 55.2105 88.2172 55.0066C87.9441 54.8005 87.614 54.6974 87.227 54.6974C86.8541 54.6974 86.5324 54.7876 86.2616 54.968C85.9909 55.146 85.782 55.3944 85.6347 55.713C85.4875 56.0293 85.4139 56.3959 85.4139 56.813C85.4139 57.2276 85.4875 57.5931 85.6347 57.9094C85.782 58.2257 85.9909 58.474 86.2616 58.6544C86.5324 58.8325 86.8541 58.9215 87.227 58.9215C87.6093 58.9215 87.9382 58.8196 88.2136 58.6157C88.4891 58.4119 88.672 58.1202 88.7622 57.7407H89.414C89.3499 58.1038 89.2158 58.4178 89.0115 58.6825C88.8073 58.9473 88.5509 59.1522 88.2421 59.2975C87.9358 59.4404 87.5974 59.5119 87.227 59.5119Z" fill="#F1B965" style="fill:#F1B965;fill:color(display-p3 0.9451 0.7255 0.3961);fill-opacity:1;"/>
<path d="M93.7691 59.5119C93.3013 59.5119 92.8858 59.3959 92.5224 59.164C92.1591 58.932 91.8741 58.6134 91.6675 58.2081C91.4609 57.8004 91.3576 57.3354 91.3576 56.813C91.3576 56.2858 91.4609 55.8196 91.6675 55.4143C91.8741 55.0066 92.1591 54.6868 92.5224 54.4549C92.8858 54.223 93.3013 54.107 93.7691 54.107C94.2393 54.107 94.6549 54.223 95.0159 54.4549C95.3792 54.6868 95.6641 55.0066 95.8707 55.4143C96.0773 55.8196 96.1806 56.2858 96.1806 56.813C96.1806 57.3354 96.0773 57.8004 95.8707 58.2081C95.6641 58.6134 95.3792 58.932 95.0159 59.164C94.6549 59.3959 94.2393 59.5119 93.7691 59.5119ZM93.7691 58.9215C94.0897 58.9215 94.3842 58.8407 94.6525 58.679C94.9209 58.515 95.1358 58.276 95.2973 57.9621C95.4587 57.6482 95.5395 57.2651 95.5395 56.813C95.5395 56.3584 95.4587 55.9742 95.2973 55.6603C95.1358 55.344 94.9209 55.105 94.6525 54.9434C94.3842 54.7794 94.0897 54.6974 93.7691 54.6974C93.4486 54.6974 93.1541 54.7794 92.8858 54.9434C92.6174 55.105 92.4025 55.344 92.241 55.6603C92.0795 55.9742 91.9988 56.3584 91.9988 56.813C91.9988 57.2651 92.0795 57.6482 92.241 57.9621C92.4025 58.276 92.6174 58.515 92.8858 58.679C93.1541 58.8407 93.4486 58.9215 93.7691 58.9215Z" fill="#F1B965" style="fill:#F1B965;fill:color(display-p3 0.9451 0.7255 0.3961);fill-opacity:1;"/>
<path d="M99.1893 59.4275L97.7431 54.1913H98.3914L99.2498 57.4596C99.3662 57.9047 99.4719 58.351 99.5669 58.7985C99.612 58.5759 99.6618 58.3534 99.7165 58.1308C99.7711 57.9059 99.8281 57.6821 99.8874 57.4596L100.764 54.1913H101.505L102.374 57.4596C102.433 57.6798 102.489 57.9 102.541 58.1202C102.596 58.3381 102.648 58.5572 102.698 58.7774C102.745 58.5572 102.795 58.3381 102.847 58.1202C102.902 57.9 102.958 57.6798 103.015 57.4596L103.87 54.1913H104.525L103.072 59.4275H102.324L101.394 56.0539C101.344 55.8735 101.298 55.6919 101.255 55.5092C101.213 55.3264 101.171 55.1449 101.131 54.9645C101.093 55.1449 101.052 55.3264 101.009 55.5092C100.967 55.6919 100.92 55.8735 100.871 56.0539L99.9444 59.4275H99.1893Z" fill="#F1B965" style="fill:#F1B965;fill:color(display-p3 0.9451 0.7255 0.3961);fill-opacity:1;"/>
<path d="M111.821 59.5119C111.332 59.5119 110.903 59.3971 110.535 59.1675C110.167 58.9355 109.88 58.6169 109.673 58.2116C109.469 57.804 109.367 57.3377 109.367 56.813C109.367 56.2835 109.469 55.8161 109.673 55.4108C109.878 55.0031 110.164 54.6845 110.532 54.4549C110.902 54.223 111.332 54.107 111.821 54.107C112.192 54.107 112.53 54.1796 112.836 54.3249C113.143 54.4678 113.398 54.6728 113.602 54.9399C113.809 55.2046 113.944 55.5197 114.008 55.8852H113.353C113.267 55.5033 113.087 55.2105 112.812 55.0066C112.538 54.8005 112.208 54.6974 111.821 54.6974C111.448 54.6974 111.127 54.7876 110.856 54.968C110.585 55.146 110.376 55.3944 110.229 55.713C110.082 56.0293 110.008 56.3959 110.008 56.813C110.008 57.2276 110.082 57.5931 110.229 57.9094C110.376 58.2257 110.585 58.474 110.856 58.6544C111.127 58.8325 111.448 58.9215 111.821 58.9215C112.204 58.9215 112.532 58.8196 112.808 58.6157C113.083 58.4119 113.266 58.1202 113.356 57.7407H114.008C113.944 58.1038 113.81 58.4178 113.606 58.6825C113.402 58.9473 113.145 59.1522 112.836 59.2975C112.53 59.4404 112.192 59.5119 111.821 59.5119Z" fill="#F1B965" style="fill:#F1B965;fill:color(display-p3 0.9451 0.7255 0.3961);fill-opacity:1;"/>
<path d="M115.596 59.4275L117.555 54.1913H118.282L120.219 59.4275H119.535L119.015 57.9586H116.8L116.265 59.4275H115.596ZM117.003 57.3963H118.819L118.42 56.2718C118.354 56.0867 118.282 55.8805 118.203 55.6533C118.127 55.4237 118.032 55.1343 117.918 54.7852C117.804 55.1343 117.708 55.4237 117.63 55.6533C117.554 55.8805 117.481 56.0867 117.412 56.2718L117.003 57.3963Z" fill="#F1B965" style="fill:#F1B965;fill:color(display-p3 0.9451 0.7255 0.3961);fill-opacity:1;"/>
<path d="M122.131 59.4275V54.1913H124.047C124.579 54.1913 124.997 54.3167 125.301 54.5674C125.605 54.818 125.757 55.1566 125.757 55.583C125.757 55.8829 125.681 56.1242 125.529 56.3069C125.377 56.4896 125.166 56.6255 124.895 56.7146V56.7216C125.197 56.7708 125.452 56.8961 125.661 57.0976C125.87 57.2967 125.974 57.5837 125.974 57.9586C125.974 58.4061 125.818 58.7633 125.504 59.0304C125.191 59.2952 124.714 59.4275 124.076 59.4275H122.131ZM122.772 58.8653H124.076C124.477 58.8653 124.785 58.7915 124.998 58.6439C125.214 58.4939 125.322 58.2737 125.322 57.9832C125.322 57.6927 125.218 57.4643 125.009 57.2979C124.8 57.1292 124.501 57.0449 124.111 57.0449H122.772V58.8653ZM122.772 56.4896H124.072C124.402 56.4896 124.66 56.4123 124.845 56.2577C125.03 56.1007 125.123 55.8887 125.123 55.6216C125.123 55.3545 125.03 55.1437 124.845 54.9891C124.66 54.8321 124.402 54.7536 124.072 54.7536H122.772V56.4896Z" fill="#F1B965" style="fill:#F1B965;fill:color(display-p3 0.9451 0.7255 0.3961);fill-opacity:1;"/>
<path d="M127.647 59.4275L129.606 54.1913H130.333L132.271 59.4275H131.587L131.067 57.9586H128.851L128.317 59.4275H127.647ZM129.054 57.3963H130.871L130.472 56.2718C130.405 56.0867 130.333 55.8805 130.255 55.6533C130.179 55.4237 130.084 55.1343 129.97 54.7852C129.856 55.1343 129.759 55.4237 129.681 55.6533C129.605 55.8805 129.533 56.0867 129.464 56.2718L129.054 57.3963Z" fill="#F1B965" style="fill:#F1B965;fill:color(display-p3 0.9451 0.7255 0.3961);fill-opacity:1;"/>
<path d="M134.182 59.4275V54.1913H136.152C136.705 54.1913 137.143 54.3343 137.466 54.6201C137.792 54.9036 137.954 55.2901 137.954 55.7798C137.954 56.1523 137.852 56.4674 137.648 56.7251C137.446 56.9828 137.172 57.1644 136.825 57.2698L138.018 59.4275H137.27L136.152 57.3717C136.135 57.3717 136.119 57.3717 136.102 57.3717H134.823V59.4275H134.182ZM134.823 56.8094H136.138C136.506 56.8094 136.794 56.7181 137.003 56.5353C137.215 56.3502 137.32 56.0984 137.32 55.7798C137.32 55.4611 137.213 55.2105 137 55.0277C136.788 54.845 136.499 54.7536 136.131 54.7536H134.823V56.8094Z" fill="#F1B965" style="fill:#F1B965;fill:color(display-p3 0.9451 0.7255 0.3961);fill-opacity:1;"/>
<path d="M140.112 59.4275V54.1913H143.563V54.7536H140.753V56.465H143.357V57.0273H140.753V58.8653H143.563V59.4275H140.112Z" fill="#F1B965" style="fill:#F1B965;fill:color(display-p3 0.9451 0.7255 0.3961);fill-opacity:1;"/>
<path d="M145.307 54.7536V54.1913H149.404V54.7536H147.68V59.4275H147.039V54.7536H145.307Z" fill="#F1B965" style="fill:#F1B965;fill:color(display-p3 0.9451 0.7255 0.3961);fill-opacity:1;"/>
</g>
</g>
</svg>
