<svg preserveAspectRatio="none" width="100%" height="100%" overflow="visible" style="display: block;" viewBox="0 0 826.073 896.073" fill="none" xmlns="http://www.w3.org/2000/svg">
<g id="&#209;&#129;&#208;&#178;&#208;&#181;&#209;&#130;">
<g id="Ellipse 14" filter="url(#filter0_f_0_14)">
<path d="M381.657 221.434C614.694 170.032 550.895 273.152 592.526 417.974C634.157 562.797 629.836 684.822 541.971 687.974C454.105 691.126 541.971 574.913 351.882 517.794C161.794 460.676 148.621 272.837 381.657 221.434Z" fill="url(#paint0_linear_0_14)" fill-opacity="0.6"/>
</g>
<g id="Ellipse 15" opacity="0.8" filter="url(#filter1_f_0_14)">
<path d="M317.367 293.352C307.135 350.918 344.612 403.986 420.903 431.202C497.195 458.417 561.477 455.592 563.137 398.152C564.798 340.713 534.356 383.93 473.488 273.887C412.619 163.844 327.6 235.785 317.367 293.352Z" fill="url(#paint1_linear_0_14)"/>
</g>
</g>
<defs>
<filter id="filter0_f_0_14" x="-1.71099e-06" y="-4.32278e-06" width="826.073" height="896.073" filterUnits="userSpaceOnUse" color-interpolation-filters="sRGB">
<feFlood flood-opacity="0" result="BackgroundImageFix"/>
<feBlend mode="normal" in="SourceGraphic" in2="BackgroundImageFix" result="shape"/>
<feGaussianBlur stdDeviation="104.018" result="effect1_foregroundBlur_0_14"/>
</filter>
<filter id="filter1_f_0_14" x="246.364" y="147.153" width="386.183" height="370.071" filterUnits="userSpaceOnUse" color-interpolation-filters="sRGB">
<feFlood flood-opacity="0" result="BackgroundImageFix"/>
<feBlend mode="normal" in="SourceGraphic" in2="BackgroundImageFix" result="shape"/>
<feGaussianBlur stdDeviation="34.6728" result="effect1_foregroundBlur_0_14"/>
</filter>
<linearGradient id="paint0_linear_0_14" x1="241.257" y1="514.918" x2="495.197" y2="463.89" gradientUnits="userSpaceOnUse">
<stop stop-color="#C88C63" stop-opacity="0" style="stop-color:none;stop-opacity:0;"/>
<stop offset="0.5" stop-color="#C88C63" style="stop-color:#C88C63;stop-color:color(display-p3 0.7840 0.5493 0.3884);stop-opacity:1;"/>
<stop offset="1" stop-color="#9C5F49" style="stop-color:#9C5F49;stop-color:color(display-p3 0.6110 0.3731 0.2866);stop-opacity:1;"/>
</linearGradient>
<linearGradient id="paint1_linear_0_14" x1="337.871" y1="232.932" x2="490.965" y2="302.407" gradientUnits="userSpaceOnUse">
<stop stop-color="#C88C63" stop-opacity="0" style="stop-color:none;stop-opacity:0;"/>
<stop offset="0.5" stop-color="#AF6E6E" style="stop-color:#AF6E6E;stop-color:color(display-p3 0.6854 0.4310 0.4310);stop-opacity:1;"/>
<stop offset="1" stop-color="#F6D98F" style="stop-color:#F6D98F;stop-color:color(display-p3 0.9658 0.8508 0.5597);stop-opacity:1;"/>
</linearGradient>
</defs>
</svg>
