<svg xmlns="http://www.w3.org/2000/svg" xmlns:xlink="http://www.w3.org/1999/xlink"><defs><style>
    .sprite-symbol-usage {display: none;}
    .sprite-symbol-usage:target {display: inline;}
  </style><symbol viewBox="0 0 19.1549 21.7815" fill="none" id="arrow-l">
<path d="M19.0774 11.5008C14.1582 12.2721 10.3096 16.317 9.61368 21.4472L9.57745 21.7143L9.54121 21.4472C8.84529 16.317 4.99665 12.2721 0.0774509 11.5008M9.57745 21.0759L9.57745 0" stroke="currentColor" />
</symbol><symbol viewBox="0 0 17 15" fill="none" id="arrow-left">
<path d="M7.59308 0.0774541C7.02475 3.70213 4.04432 6.53797 0.26421 7.05076L0.0673825 7.07745L0.26421 7.10415C4.04432 7.61694 7.02475 10.4528 7.59308 14.0775M0.537743 7.07745L16.0674 7.07745" stroke="url(#arrow-left_paint0_linear_1094_1953)" />
<defs>

</defs>
</symbol><linearGradient id="arrow-left_paint0_linear_1094_1953" x1="16.763" y1="7.07745" x2="0.0673825" y2="7.07745" gradientUnits="userSpaceOnUse">
<stop stop-color="#E0B471" stop-opacity="0" style="stop-color:none;stop-opacity:0;" />
<stop offset="0.817308" stop-color="#E0B471" style="stop-color:#E0B471;stop-color:color(display-p3 0.8784 0.7059 0.4431);stop-opacity:1;" />
<stop offset="1" stop-color="#FFEDBF" style="stop-color:#FFEDBF;stop-color:color(display-p3 1.0000 0.9292 0.7502);stop-opacity:1;" />
</linearGradient><symbol viewBox="0 0 17 15" fill="none" id="arrow-right">
<path d="M8.47431 0.0774541C9.04263 3.70213 12.0231 6.53797 15.8032 7.05076L16 7.07745L15.8032 7.10415C12.0231 7.61694 9.04263 10.4528 8.47431 14.0775M15.5296 7.07745L0 7.07745" stroke="url(#arrow-right_paint0_linear_1094_1891)" />
<defs>

</defs>
</symbol><linearGradient id="arrow-right_paint0_linear_1094_1891" x1="-0.695652" y1="7.07745" x2="16" y2="7.07745" gradientUnits="userSpaceOnUse">
<stop stop-color="#E0B471" stop-opacity="0" style="stop-color:none;stop-opacity:0;" />
<stop offset="0.817308" stop-color="#E0B471" style="stop-color:#E0B471;stop-color:color(display-p3 0.8784 0.7059 0.4431);stop-opacity:1;" />
<stop offset="1" stop-color="#FFEDBF" style="stop-color:#FFEDBF;stop-color:color(display-p3 1.0000 0.9292 0.7502);stop-opacity:1;" />
</linearGradient><symbol viewBox="0 0 16 16" fill="none" id="chevron-down">
<path d="M3 5L8 10L13 5" stroke="currentColor" />
</symbol><symbol viewBox="0 0 20.7073 20.7069" fill="none" id="close">
<path d="M0.366843 0.353438L10.3538 10.3468M10.3538 10.3468L20.3537 20.3533M10.3538 10.3468L0.353668 20.3534M10.3538 10.3468L20.3405 0.353602" stroke="currentColor" />
</symbol><symbol viewBox="0 0 17 28" fill="none" id="cocktail">
<path id="cocktail_Vector" d="M3.14792 0.270509L0.30379 8.65843C-0.536366 11.1356 0.409592 13.8781 2.60405 15.3278L6.58696 17.9588C6.64231 17.9966 7.94303 18.9097 8.09948 21.018V21.0222V27.2063H4.90626C4.68508 27.2063 4.50574 27.384 4.50574 27.6031C4.50574 27.8223 4.68508 28 4.90626 28H12.0937C12.3149 28 12.4943 27.8223 12.4943 27.6031C12.4943 27.384 12.3149 27.2063 12.0937 27.2063H8.9005L8.89954 21.047C9.05678 18.9095 10.3577 17.9966 10.4093 17.9612L14.396 15.3278C16.5904 13.8781 17.5364 11.1356 16.6962 8.65843L13.8521 0.270509C13.7973 0.108901 13.6446 0 13.4725 0H3.52752C3.35542 0 3.20268 0.108901 3.14792 0.270509ZM15.937 8.91111C16.662 11.0492 15.8457 13.4162 13.9516 14.6674L9.96304 17.3021C9.91297 17.3355 9.03859 17.9354 8.5 19.2501C7.96141 17.9354 7.08644 17.3353 7.03501 17.3008L3.04838 14.6674C1.15431 13.4162 0.338014 11.0492 1.06298 8.91111L1.95978 6.26628H15.0402L15.937 8.91111ZM13.1846 0.793701L14.7711 5.47258H2.2289L3.81539 0.793701H13.1846Z" fill="currentColor" />
</symbol><symbol viewBox="0 0 37 28" fill="none" id="cutlery">
<g id="cutlery_Vector">
<path d="M36.5889 0H36.3833C35.402 0 34.4609 0.391939 33.767 1.08959C33.0732 1.78725 32.6833 2.73347 32.6833 3.72011V14.8804C32.6844 15.4541 32.8175 16.0198 33.0721 16.5332C33.3267 17.0466 33.696 17.4939 34.151 17.84L33.5343 25.6935V25.7266C33.5343 27.0266 34.2784 28 35.2672 28C36.2559 28 37 27.0204 37 25.7266V0.413345C37 0.303719 36.9567 0.198583 36.8796 0.121066C36.8025 0.0435488 36.6979 0 36.5889 0ZM33.5056 14.8804V3.72011C33.5037 2.98723 33.7785 2.28094 34.2745 1.74389C34.7705 1.20684 35.4507 0.879037 36.1778 0.82669V17.7738C35.4507 17.7215 34.7705 17.3937 34.2745 16.8566C33.7785 16.3196 33.5037 15.6133 33.5056 14.8804ZM35.2672 27.1754C34.7594 27.1754 34.3607 26.545 34.3566 25.7287L34.9403 18.2885C35.3319 18.4547 35.7492 18.5513 36.1737 18.5737V25.7059C36.1778 26.5368 35.7769 27.1754 35.2672 27.1754Z" fill="currentColor" />
<path d="M6.16667 7.64689V0.620018C6.16667 0.510392 6.12335 0.405256 6.04626 0.327739C5.96916 0.250221 5.86459 0.206673 5.75556 0.206673C5.64652 0.206673 5.54195 0.250221 5.46486 0.327739C5.38776 0.405256 5.34444 0.510392 5.34444 0.620018V7.64689C5.34444 9.50694 4.89222 10.2034 4.45439 10.8689C3.89528 11.6121 3.60521 12.525 3.63217 13.4565C3.63077 13.4674 3.63077 13.4785 3.63217 13.4895C3.63217 13.5102 3.63217 13.5309 3.63217 13.5495V13.5867L3.96928 25.708C3.96928 26.5223 3.56844 27.1547 3.05661 27.1547C2.54478 27.1547 2.146 26.5161 2.146 25.708L2.48106 13.5991V13.4957C2.48228 13.484 2.48228 13.4723 2.48106 13.4606C2.506 12.5355 2.22635 11.6281 1.68556 10.8792C1.26006 10.2138 0.822222 9.52347 0.822222 7.64689V0.620018C0.822222 0.510392 0.778909 0.405256 0.70181 0.327739C0.624712 0.250221 0.520145 0.206673 0.411111 0.206673C0.302078 0.206673 0.19751 0.250221 0.120412 0.327739C0.0433134 0.405256 0 0.510392 0 0.620018V7.64689C0 9.76528 0.528278 10.594 0.992833 11.3257C1.47117 11.9683 1.70718 12.7607 1.65883 13.5619V13.5763L1.32172 25.7225C1.32172 27.0224 2.06789 27.9959 3.05456 27.9959C4.04122 27.9959 4.78944 27.0162 4.78739 25.7039L4.45233 13.5867C4.45233 13.5867 4.45233 13.5722 4.45233 13.5639C4.43794 12.4004 4.74833 11.925 5.13889 11.3298C5.61989 10.5982 6.16667 9.76941 6.16667 7.64689Z" fill="currentColor" />
<path d="M18.9111 0.206673C16.3498 0.206673 13.8461 0.970304 11.7165 2.401C9.58687 3.8317 7.92703 5.8652 6.94688 8.24436C5.96672 10.6235 5.71027 13.2415 6.20995 15.7672C6.70963 18.2929 7.94299 20.6129 9.75409 22.4338C11.5652 24.2548 13.8726 25.4948 16.3847 25.9972C18.8968 26.4996 21.5006 26.2418 23.8669 25.2563C26.2332 24.2708 28.2557 22.602 29.6786 20.4608C31.1016 18.3196 31.8611 15.8022 31.8611 13.227C31.8573 9.775 30.4917 6.46544 28.0639 4.02448C25.6362 1.58352 22.3445 0.210502 18.9111 0.206673ZM18.9111 25.4207C16.5125 25.4207 14.1677 24.7056 12.1733 23.3657C10.1789 22.0259 8.62443 20.1215 7.70651 17.8934C6.78859 15.6653 6.54842 13.2135 7.01637 10.8482C7.48432 8.48283 8.63938 6.31013 10.3355 4.60481C12.0316 2.89949 14.1925 1.73816 16.5451 1.26766C18.8977 0.797165 21.3362 1.03864 23.5522 1.96155C25.7683 2.88446 27.6624 4.44736 28.995 6.4526C30.3276 8.45784 31.0389 10.8154 31.0389 13.227C31.0351 16.4598 29.7561 19.5591 27.4825 21.8451C25.209 24.131 22.1264 25.4169 18.9111 25.4207Z" fill="currentColor" />
<path d="M2.26111 6.61352C2.37014 6.61352 2.47471 6.56997 2.55181 6.49246C2.62891 6.41494 2.67222 6.3098 2.67222 6.20018V0.620018C2.67222 0.510392 2.62891 0.405256 2.55181 0.327739C2.47471 0.250221 2.37014 0.206673 2.26111 0.206673C2.15208 0.206673 2.04751 0.250221 1.97041 0.327739C1.89331 0.405256 1.85 0.510392 1.85 0.620018V6.20018C1.85 6.3098 1.89331 6.41494 1.97041 6.49246C2.04751 6.56997 2.15208 6.61352 2.26111 6.61352Z" fill="currentColor" />
<path d="M3.90556 6.61352C4.01459 6.61352 4.11916 6.56997 4.19625 6.49246C4.27335 6.41494 4.31667 6.3098 4.31667 6.20018V0.620018C4.31667 0.510392 4.27335 0.405256 4.19625 0.327739C4.11916 0.250221 4.01459 0.206673 3.90556 0.206673C3.79652 0.206673 3.69195 0.250221 3.61486 0.327739C3.53776 0.405256 3.49444 0.510392 3.49444 0.620018V6.20018C3.49444 6.3098 3.53776 6.41494 3.61486 6.49246C3.69195 6.56997 3.79652 6.61352 3.90556 6.61352Z" fill="currentColor" />
<path d="M18.8083 3.72011C16.9585 3.72011 15.1503 4.27162 13.6122 5.3049C12.0742 6.33818 10.8754 7.80682 10.1675 9.52511C9.45961 11.2434 9.27439 13.1341 9.63527 14.9583C9.99615 16.7824 10.8869 18.4579 12.1949 19.7731C13.5029 21.0882 15.1694 21.9838 16.9837 22.3466C18.798 22.7095 20.6785 22.5232 22.3875 21.8115C24.0965 21.0998 25.5572 19.8945 26.5849 18.3481C27.6126 16.8017 28.1611 14.9836 28.1611 13.1237C28.1584 10.6306 27.1721 8.2403 25.4187 6.47738C23.6653 4.71445 21.288 3.72284 18.8083 3.72011ZM18.8083 21.7006C17.1212 21.7006 15.4719 21.1976 14.069 20.2552C12.6662 19.3127 11.5728 17.9732 10.9271 16.406C10.2815 14.8387 10.1125 13.1142 10.4417 11.4504C10.7708 9.78668 11.5833 8.25842 12.7763 7.05892C13.9693 5.85941 15.4893 5.04254 17.1441 4.7116C18.7989 4.38066 20.5141 4.55051 22.0728 5.19968C23.6316 5.84884 24.9639 6.94817 25.9012 8.35863C26.8386 9.7691 27.3389 11.4274 27.3389 13.1237C27.3362 15.3976 26.4365 17.5776 24.8373 19.1855C23.2381 20.7934 21.0699 21.6979 18.8083 21.7006Z" fill="currentColor" />
</g>
</symbol><symbol viewBox="0 0 20 16" fill="none" id="go">
<path d="M11.201 0.00230805C12.7138 -0.0525754 13.812 0.875241 13.9829 2.37016C14.172 4.02274 13.54 5.66053 12.8599 7.1376C12.636 7.15162 12.2847 7.14039 12.0498 7.1404C11.5702 7.1423 11.0907 7.14093 10.6111 7.13626C11.0753 6.28145 11.7147 4.84173 11.5643 3.84714C11.5384 3.6751 11.4768 3.47656 11.3264 3.37125C11.2049 3.28617 11.055 3.2898 10.9147 3.31367C9.78255 3.50628 8.35196 5.34887 7.71125 6.25508C6.76364 7.59539 5.6366 9.49776 5.22949 11.0942C5.14108 11.4409 5.0613 11.8418 5.12647 12.1978C5.15493 12.3532 5.21837 12.512 5.35555 12.6032C5.50037 12.6995 5.68788 12.696 5.85249 12.6639C6.99089 12.4427 8.49747 10.5674 9.13102 9.62446C8.472 9.61659 7.81052 9.62935 7.15127 9.6235C7.01247 9.62223 6.86973 9.61797 6.73151 9.62106C7.01319 9.14089 7.37011 8.56584 7.67402 8.09834C8.00736 8.08268 8.43811 8.09417 8.77793 8.09417L10.8308 8.09445C11.357 8.09429 11.9618 8.07937 12.48 8.09998C11.6755 9.59276 10.7016 10.9894 9.57742 12.2626C7.86499 14.1643 5.62249 15.8472 2.96608 15.9931C2.21487 16.0343 1.40871 15.8979 0.833049 15.382C0.255006 14.8638 0.0423546 14.0974 0.00604594 13.3496C-0.143221 10.2754 2.50217 6.03206 4.53431 3.8071C6.01537 2.18553 7.98056 0.59393 10.1839 0.126703C10.521 0.0552446 10.8572 0.0190422 11.201 0.00230805Z" fill="currentColor" />
<path d="M18.0271 5.22504C20.4254 5.2025 20.2227 7.4196 19.5653 8.99301C18.6223 11.2495 16.4414 13.8749 13.7663 13.8894C12.649 13.8989 11.7527 13.353 11.7506 12.1527C11.7476 10.427 12.9311 8.49619 14.068 7.26935C15.0751 6.1825 16.5133 5.2764 18.0271 5.22504ZM15.2679 11.8662C16.0037 11.6883 16.9494 10.2528 17.3344 9.62361C17.6712 9.07349 18.176 8.13449 18.0764 7.45889C18.045 7.24526 17.866 7.2165 17.6845 7.23642C16.8967 7.44162 15.9159 9.02535 15.5045 9.71414C15.2133 10.2019 14.782 11.0509 14.8904 11.6439C14.9257 11.8368 15.0918 11.8842 15.2679 11.8662Z" fill="currentColor" />
</symbol><symbol viewBox="0 0 20 9" fill="none" id="menu">
<path d="M20 9H0V8H20V9ZM20 1H0V0H20V1Z" fill="currentColor" />
</symbol><symbol viewBox="0 0 40 40" fill="none" id="mic">
<rect x="-0.5" y="0.5" width="39" height="39" rx="19.5" transform="matrix(-1 0 0 1 39 0)" fill="url(#mic_paint0_linear_897_6752)" />
<rect x="-0.5" y="0.5" width="39" height="39" rx="19.5" transform="matrix(-1 0 0 1 39 0)" stroke="url(#mic_paint1_linear_897_6752)" />
<path d="M25.9963 18.875C25.9963 20.1875 25.5417 21.4175 24.7753 22.3962C24.0053 23.3713 22.9237 24.0912 21.6733 24.3725C21.6477 24.3763 21.622 24.3837 21.5963 24.3875C21.237 24.4625 20.8667 24.5 20.4963 24.5C20.126 24.5 19.7557 24.4625 19.3963 24.3875C19.3707 24.3837 19.345 24.3763 19.3193 24.3725C18.289 24.1362 17.354 23.6112 16.6097 22.8538C15.572 21.785 15 20.375 15 18.875C15 18.6687 15.165 18.5 15.3667 18.5C15.5683 18.5 15.7333 18.6687 15.7333 18.875C15.7333 20.1725 16.2283 21.3987 17.1303 22.3212C17.772 22.9812 18.586 23.435 19.477 23.6375C19.8107 23.7125 20.1553 23.75 20.5 23.75C20.8447 23.75 21.1893 23.7125 21.523 23.6375C23.6937 23.15 25.2667 21.1475 25.2667 18.875C25.2667 18.6687 25.4317 18.5 25.6333 18.5C25.835 18.5 26 18.6687 26 18.875H25.9963Z" fill="url(#mic_paint2_linear_897_6752)" fill-opacity="0.945098" />
<path d="M23.9245 26.375H17.0679C16.7049 26.375 16.3859 26.6525 16.2685 27.0613L15.8689 28.49C15.7992 28.7412 15.9569 29 16.1769 29H24.8082C25.0282 29 25.1859 28.7412 25.1162 28.49L24.7165 27.0613C24.6029 26.6525 24.2802 26.375 23.9172 26.375H23.9245Z" fill="url(#mic_paint3_linear_897_6752)" fill-opacity="0.945098" />
<path d="M20.4964 25.25C20.8631 25.25 21.2334 25.2162 21.5964 25.1487V26.75H19.3964V25.1525C19.7594 25.2162 20.1298 25.25 20.4964 25.25Z" fill="url(#mic_paint4_linear_897_6752)" fill-opacity="0.945098" />
<path d="M17.2183 19.25H23.7743C23.6899 20.03 23.3453 20.735 22.8283 21.26C22.2343 21.8713 21.4056 22.25 20.4963 22.25C18.7986 22.25 17.3979 20.9375 17.2183 19.25Z" fill="url(#mic_paint5_linear_897_6752)" fill-opacity="0.945098" />
<path d="M22.1684 16.4675C22.1684 16.6737 22.3298 16.8425 22.5351 16.8425H23.7964V18.5H17.1964V16.8425H18.4578C18.6631 16.8425 18.8244 16.6737 18.8244 16.4675C18.8244 16.2613 18.6631 16.0925 18.4578 16.0925H17.1964V14.5325H18.4578C18.6631 14.5325 18.8244 14.3675 18.8244 14.1575C18.8244 13.9475 18.6631 13.7825 18.4578 13.7825H17.2478C17.5228 12.2 18.8721 11 20.4964 11C22.1208 11 23.4701 12.2 23.7451 13.7825H22.5351C22.3298 13.7825 22.1684 13.9513 22.1684 14.1575C22.1684 14.3637 22.3298 14.5325 22.5351 14.5325H23.7964V16.0925H22.5351C22.3298 16.0925 22.1684 16.2575 22.1684 16.4675Z" fill="url(#mic_paint6_linear_897_6752)" fill-opacity="0.945098" />
<defs>







</defs>
</symbol><linearGradient id="mic_paint0_linear_897_6752" x1="0" y1="20" x2="40" y2="20" gradientUnits="userSpaceOnUse">
<stop stop-color="#F4B97D" stop-opacity="0.2" style="stop-color:#F4B97D;stop-color:color(display-p3 0.9569 0.7255 0.4902);stop-opacity:0.2;" />
<stop offset="1" stop-color="#F4B97D" stop-opacity="0.02" style="stop-color:#F4B97D;stop-color:color(display-p3 0.9569 0.7255 0.4902);stop-opacity:0.02;" />
</linearGradient><linearGradient id="mic_paint1_linear_897_6752" x1="2" y1="11.5" x2="9.56574" y2="41.8409" gradientUnits="userSpaceOnUse">
<stop stop-color="#F4B97D" style="stop-color:#F4B97D;stop-color:color(display-p3 0.9569 0.7255 0.4902);stop-opacity:1;" />
<stop offset="0.304051" stop-color="#F4B97D" stop-opacity="0.4" style="stop-color:#F4B97D;stop-color:color(display-p3 0.9569 0.7255 0.4902);stop-opacity:0.4;" />
<stop offset="1" stop-color="#F4B97D" stop-opacity="0.2" style="stop-color:#F4B97D;stop-color:color(display-p3 0.9569 0.7255 0.4902);stop-opacity:0.2;" />
</linearGradient><linearGradient id="mic_paint2_linear_897_6752" x1="20.5" y1="11" x2="20.5" y2="29" gradientUnits="userSpaceOnUse">
<stop stop-color="#F1B965" style="stop-color:#F1B965;stop-color:color(display-p3 0.9451 0.7255 0.3961);stop-opacity:1;" />
<stop offset="1" stop-color="#8B6B3A" style="stop-color:#8B6B3A;stop-color:color(display-p3 0.5451 0.4184 0.2284);stop-opacity:1;" />
</linearGradient><linearGradient id="mic_paint3_linear_897_6752" x1="20.5" y1="11" x2="20.5" y2="29" gradientUnits="userSpaceOnUse">
<stop stop-color="#F1B965" style="stop-color:#F1B965;stop-color:color(display-p3 0.9451 0.7255 0.3961);stop-opacity:1;" />
<stop offset="1" stop-color="#8B6B3A" style="stop-color:#8B6B3A;stop-color:color(display-p3 0.5451 0.4184 0.2284);stop-opacity:1;" />
</linearGradient><linearGradient id="mic_paint4_linear_897_6752" x1="20.5" y1="11" x2="20.5" y2="29" gradientUnits="userSpaceOnUse">
<stop stop-color="#F1B965" style="stop-color:#F1B965;stop-color:color(display-p3 0.9451 0.7255 0.3961);stop-opacity:1;" />
<stop offset="1" stop-color="#8B6B3A" style="stop-color:#8B6B3A;stop-color:color(display-p3 0.5451 0.4184 0.2284);stop-opacity:1;" />
</linearGradient><linearGradient id="mic_paint5_linear_897_6752" x1="20.5" y1="11" x2="20.5" y2="29" gradientUnits="userSpaceOnUse">
<stop stop-color="#F1B965" style="stop-color:#F1B965;stop-color:color(display-p3 0.9451 0.7255 0.3961);stop-opacity:1;" />
<stop offset="1" stop-color="#8B6B3A" style="stop-color:#8B6B3A;stop-color:color(display-p3 0.5451 0.4184 0.2284);stop-opacity:1;" />
</linearGradient><linearGradient id="mic_paint6_linear_897_6752" x1="20.5" y1="11" x2="20.5" y2="29" gradientUnits="userSpaceOnUse">
<stop stop-color="#F1B965" style="stop-color:#F1B965;stop-color:color(display-p3 0.9451 0.7255 0.3961);stop-opacity:1;" />
<stop offset="1" stop-color="#8B6B3A" style="stop-color:#8B6B3A;stop-color:color(display-p3 0.5451 0.4184 0.2284);stop-opacity:1;" />
</linearGradient><symbol viewBox="0 0 14.8002 14.8002" fill="none" id="phone">
<path d="M5.24129 11.4969C8.45068 14.7063 10.9173 15.5119 13.8248 12.6045C14.2798 12.1373 14.7054 11.5469 14.1016 10.9432L11.7481 9.14349C11.0053 8.74388 10.7152 9.02809 10.3637 9.42032C9.07884 10.8545 7.69267 10.3785 6.76437 9.42032L5.37994 8.03589C4.42178 7.10748 3.94581 5.72116 5.37994 4.43655C5.77232 4.085 6.05639 3.79482 5.65677 3.05212L3.85704 0.69861C3.25325 0.0948147 2.66288 0.520384 2.19565 0.97544C-0.711639 3.88275 0.0938479 6.34946 3.30324 9.55898L5.24129 11.4969Z" stroke="currentColor" stroke-width="0.8" />
</symbol><symbol viewBox="0 0 17.3205 15" fill="none" id="play">
<path d="M8.66025 1L16.4545 14.5H0.866025L8.66025 1Z" stroke="currentColor" />
</symbol><symbol viewBox="0 0 16 16" fill="none" id="plus">
<path d="M8 0L8 16M0 8H16" stroke="currentColor" />
</symbol><symbol viewBox="0 0 16 16" fill="none" id="plus2">
<path d="M8.00534 0L8.00534 16M0 7.99479L16 7.99479" stroke="url(#plus2_paint0_linear_813_8556)" />
<defs>

</defs>
</symbol><linearGradient id="plus2_paint0_linear_813_8556" x1="16" y1="8" x2="-0.8" y2="8" gradientUnits="userSpaceOnUse">
<stop stop-color="#F1B965" style="stop-color:#F1B965;stop-color:color(display-p3 0.9451 0.7255 0.3961);stop-opacity:1;" />
<stop offset="1" stop-color="#F1B965" stop-opacity="0.2" style="stop-color:#F1B965;stop-color:color(display-p3 0.9451 0.7255 0.3961);stop-opacity:0.2;" />
</linearGradient><symbol viewBox="0 0 15 15" fill="none" id="rhomb">
<path d="M11.5293 7.49951L7.5 11.5288L3.4707 7.49951L7.5 3.47021L11.5293 7.49951Z" stroke="#F1B965" style="stroke:#F1B965;stroke:color(display-p3 0.9451 0.7255 0.3961);stroke-opacity:1;" />
<path d="M14.293 7.5L7.5 14.293L0.707031 7.5L7.5 0.707031L14.293 7.5Z" stroke="#F1B965" style="stroke:#F1B965;stroke:color(display-p3 0.9451 0.7255 0.3961);stroke-opacity:1;" />
</symbol><symbol viewBox="0 0 17 14" fill="none" id="telegram">
<path fill-rule="evenodd" clip-rule="evenodd" d="M1.16866 6.02691C5.73205 4.05119 8.77503 2.74867 10.2976 2.11936C14.6448 0.322542 15.5481 0.0104165 16.1369 0.000109891C16.2664 -0.00215693 16.5559 0.0297341 16.7435 0.180964C16.9018 0.30866 16.9454 0.481158 16.9663 0.602228C16.9871 0.723297 17.0131 0.999097 16.9924 1.2146C16.7569 3.6743 15.7375 9.64335 15.2189 12.3983C14.9995 13.564 14.5674 13.9548 14.1492 13.9931C13.2401 14.0762 12.5498 13.3961 11.6694 12.8225C10.2916 11.9251 9.5133 11.3664 8.17597 10.4907C6.63045 9.47858 7.63235 8.92233 8.51313 8.01324C8.74364 7.77533 12.7489 4.15509 12.8264 3.82668C12.8361 3.7856 12.8451 3.6325 12.7536 3.55166C12.6621 3.47081 12.527 3.49846 12.4295 3.52045C12.2913 3.55161 10.0904 4.99723 5.82663 7.8573C5.2019 8.2836 4.63604 8.49131 4.12904 8.48042C3.57012 8.46842 2.49499 8.16638 1.69573 7.90821C0.715411 7.59154 -0.063727 7.42412 0.00411841 6.88633C0.0394565 6.60621 0.427637 6.31974 1.16866 6.02691Z" fill="currentColor" />
</symbol><symbol viewBox="0 0 24 24" fill="none" id="zodiac">
<path fill-rule="evenodd" clip-rule="evenodd" d="M10.9072 0.0506234C17.5081 -0.552905 23.3478 4.3097 23.9497 10.9105C24.5514 17.5112 19.688 23.3498 13.0872 23.9499C6.48854 24.5499 0.652125 19.6882 0.0503502 13.0896C-0.551377 6.49126 4.30978 0.654009 10.9072 0.0506234ZM22.8593 10.9766C22.2915 4.96093 16.9416 0.553075 10.9283 1.14704C4.95334 1.73739 0.578464 7.04674 1.1429 13.0248C1.70627 19.0029 6.9959 23.4007 12.9774 22.8634C18.9951 22.3226 23.4259 16.9923 22.8593 10.9766Z" fill="url(#zodiac_paint0_linear_1026_3652)" />
<path d="M4.36256 6.24817C5.68251 6.25157 6.27439 6.87059 7.16387 7.20101C7.26929 7.24 8.62439 6.31636 9.15917 6.24872C10.6076 6.06577 10.8448 6.61472 11.8507 7.30621C12.4514 7.12854 13.4067 6.23982 13.8427 6.23312C19.5343 6.14538 16.2026 13.3934 17.6488 16.5505C17.7938 16.8662 18.2506 17.2151 18.5339 17.4469L18.1946 16.4389C18.0441 15.9832 18.0068 15.8066 18.2089 15.4058C18.5647 15.2517 18.378 15.2893 18.7953 15.332C19.3476 15.7449 19.7759 17.763 19.9845 18.5151C19.1313 18.8717 17.3556 19.665 16.543 19.2172C16.4178 18.8243 16.4167 19.0127 16.5188 18.6323C16.8483 18.3366 17.2875 18.275 17.7323 18.1576C15.4317 16.2534 16.1916 12.5224 16.2004 9.64039C16.1652 7.1348 13.8306 6.49535 12.5172 8.59695C12.3723 11.0538 12.6007 13.5764 12.4162 16.029C12.3932 16.3311 12.3437 16.36 12.1219 16.5094C11.6959 16.5459 11.7519 16.61 11.4543 16.4333C10.8657 14.9317 12.1713 8.68041 10.6493 7.77841C5.83515 4.92437 8.42672 15.2262 7.39777 16.5269C7.06833 16.5862 7.06944 16.6088 6.75647 16.4586C6.26341 15.8171 6.59614 15.3143 6.53355 14.6101C6.3853 12.9567 7.04199 9.05114 5.9801 7.86055C5.6836 7.52803 4.62281 7.47324 4.20332 7.01773C4.15281 6.57695 4.17148 6.7085 4.36256 6.24817Z" fill="url(#zodiac_paint1_linear_1026_3652)" />
<defs>


</defs>
</symbol><linearGradient id="zodiac_paint0_linear_1026_3652" x1="19.2857" y1="2.14286" x2="3" y2="20.5714" gradientUnits="userSpaceOnUse">
<stop stop-color="#FFD698" style="stop-color:#FFD698;stop-color:color(display-p3 1.0000 0.8379 0.5948);stop-opacity:1;" />
<stop offset="0.362284" stop-color="#F1B965" style="stop-color:#F1B965;stop-color:color(display-p3 0.9451 0.7255 0.3961);stop-opacity:1;" />
<stop offset="1" stop-color="#BA8D4A" style="stop-color:#BA8D4A;stop-color:color(display-p3 0.7300 0.5534 0.2886);stop-opacity:1;" />
</linearGradient><linearGradient id="zodiac_paint1_linear_1026_3652" x1="19.2857" y1="2.14286" x2="3" y2="20.5714" gradientUnits="userSpaceOnUse">
<stop stop-color="#FFD698" style="stop-color:#FFD698;stop-color:color(display-p3 1.0000 0.8379 0.5948);stop-opacity:1;" />
<stop offset="0.362284" stop-color="#F1B965" style="stop-color:#F1B965;stop-color:color(display-p3 0.9451 0.7255 0.3961);stop-opacity:1;" />
<stop offset="1" stop-color="#BA8D4A" style="stop-color:#BA8D4A;stop-color:color(display-p3 0.7300 0.5534 0.2886);stop-opacity:1;" />
</linearGradient><symbol viewBox="0 0 28 28" fill="none" id="zodiac-scorpio">
<path d="M3 7H7V19H10V7H14V19H17V11C17 8.79 18.79 7 21 7C23.21 7 25 8.79 25 11V18L23 16V21L25 19V22.5L22 25.5L19 22.5V11C19 9.9 19.9 9 21 9C22.1 9 23 9.9 23 11V13L25 11V11C25 7.69 22.31 5 19 5C16.79 5 14.86 6.2 13.83 8C13.46 7.39 12.78 7 12 7H10V5H7V7H3Z" fill="currentColor" />
</symbol></defs><use id="arrow-l-usage" xlink:href="#arrow-l" class="sprite-symbol-usage" /><use id="arrow-left-usage" xlink:href="#arrow-left" class="sprite-symbol-usage" /><use id="arrow-right-usage" xlink:href="#arrow-right" class="sprite-symbol-usage" /><use id="chevron-down-usage" xlink:href="#chevron-down" class="sprite-symbol-usage" /><use id="close-usage" xlink:href="#close" class="sprite-symbol-usage" /><use id="cocktail-usage" xlink:href="#cocktail" class="sprite-symbol-usage" /><use id="cutlery-usage" xlink:href="#cutlery" class="sprite-symbol-usage" /><use id="go-usage" xlink:href="#go" class="sprite-symbol-usage" /><use id="menu-usage" xlink:href="#menu" class="sprite-symbol-usage" /><use id="mic-usage" xlink:href="#mic" class="sprite-symbol-usage" /><use id="phone-usage" xlink:href="#phone" class="sprite-symbol-usage" /><use id="play-usage" xlink:href="#play" class="sprite-symbol-usage" /><use id="plus-usage" xlink:href="#plus" class="sprite-symbol-usage" /><use id="plus2-usage" xlink:href="#plus2" class="sprite-symbol-usage" /><use id="rhomb-usage" xlink:href="#rhomb" class="sprite-symbol-usage" /><use id="telegram-usage" xlink:href="#telegram" class="sprite-symbol-usage" /><use id="zodiac-usage" xlink:href="#zodiac" class="sprite-symbol-usage" /><use id="zodiac-scorpio-usage" xlink:href="#zodiac-scorpio" class="sprite-symbol-usage" /></svg>