<svg preserveAspectRatio="none" width="814.836" height="488.357" viewBox="0 0 814.836 488.357" fill="none" xmlns="http://www.w3.org/2000/svg">
<g id="svet">
<g id="Ellipse 14" filter="url(#filter0_f_0_15)">
<path d="M136.208 352.994C188.538 385.586 247.289 366.186 290.208 296.08C333.126 225.973 344.849 157.145 290.719 133.636C236.589 110.127 270.775 158.585 152.722 181.059C34.6679 203.533 83.8789 320.401 136.208 352.994Z" fill="url(#paint0_linear_0_15)" fill-opacity="0.6"/>
</g>
<g id="Ellipse 14_2" filter="url(#filter1_f_0_15)">
<path d="M572.526 108.049C712.823 77.1687 674.414 139.118 699.478 226.119C724.541 313.12 721.94 386.426 669.041 388.319C616.142 390.213 669.041 320.399 554.6 286.085C440.159 251.771 432.229 138.928 572.526 108.049Z" fill="url(#paint1_linear_0_15)" fill-opacity="0.6"/>
</g>
<g id="Ellipse 15" filter="url(#filter2_f_0_15)">
<path d="M533.822 152.753C527.661 187.336 550.224 219.216 596.155 235.566C642.085 251.915 680.786 250.218 681.785 215.712C682.785 181.205 664.458 207.168 627.813 141.06C591.167 74.9525 539.982 118.171 533.822 152.753Z" fill="url(#paint2_linear_0_15)"/>
</g>
</g>
<defs>
<filter id="filter0_f_0_15" x="0" y="47.3569" width="407" height="401" filterUnits="userSpaceOnUse" color-interpolation-filters="sRGB">
<feFlood flood-opacity="0" result="BackgroundImageFix"/>
<feBlend mode="normal" in="SourceGraphic" in2="BackgroundImageFix" result="shape"/>
<feGaussianBlur stdDeviation="40" result="effect1_foregroundBlur_0_15"/>
</filter>
<filter id="filter1_f_0_15" x="367.999" y="0" width="446.837" height="488.357" filterUnits="userSpaceOnUse" color-interpolation-filters="sRGB">
<feFlood flood-opacity="0" result="BackgroundImageFix"/>
<feBlend mode="normal" in="SourceGraphic" in2="BackgroundImageFix" result="shape"/>
<feGaussianBlur stdDeviation="50" result="effect1_foregroundBlur_0_15"/>
</filter>
<filter id="filter2_f_0_15" x="432.824" y="6.58449" width="349" height="339" filterUnits="userSpaceOnUse" color-interpolation-filters="sRGB">
<feFlood flood-opacity="0" result="BackgroundImageFix"/>
<feBlend mode="normal" in="SourceGraphic" in2="BackgroundImageFix" result="shape"/>
<feGaussianBlur stdDeviation="50" result="effect1_foregroundBlur_0_15"/>
</filter>
<linearGradient id="paint0_linear_0_15" x1="361" y1="305.357" x2="256.866" y2="239.812" gradientUnits="userSpaceOnUse">
<stop stop-color="#0B0B0B"/>
<stop offset="0.5" stop-color="#C88C63"/>
<stop offset="1" stop-color="#9C5F49"/>
</linearGradient>
<linearGradient id="paint1_linear_0_15" x1="487.999" y1="284.357" x2="640.856" y2="253.575" gradientUnits="userSpaceOnUse">
<stop stop-color="#C88C63" stop-opacity="0"/>
<stop offset="0.5" stop-color="#C88C63"/>
<stop offset="1" stop-color="#9C5F49"/>
</linearGradient>
<linearGradient id="paint2_linear_0_15" x1="546.166" y1="116.457" x2="638.267" y2="158.343" gradientUnits="userSpaceOnUse">
<stop stop-color="#C88C63" stop-opacity="0"/>
<stop offset="0.5" stop-color="#AF6E6E"/>
<stop offset="1" stop-color="#F6D98F"/>
</linearGradient>
</defs>
</svg>
